; NON-PLATED HOLES START AT T1
; THROUGH (PLATED) HOLES START AT T100
M48
INCH
T1C0.086614
T100C0.125984
T101C0.031497
T102C0.130000
T103C0.038000
T104C0.040000
T105C0.118000
%
T1
X094722Y018685
X126222Y001185
X126222Y018685
X001222Y001185
X001222Y018685
X063722Y001185
X063722Y018685
X032722Y001185
X032722Y018685
X094722Y001185
T100
X123232Y014302
T101
X004722Y007685
X041722Y007685
X103723Y007685
X116707Y007685
X091706Y007685
X098706Y007685
X047722Y007685
X109723Y007685
X084722Y007685
X010722Y007685
X029706Y007685
X023706Y007685
X060706Y007685
X122707Y007685
X067706Y007685
X016722Y007685
X053722Y007685
X059722Y007685
X036706Y007685
X115723Y007685
X090722Y007685
X097722Y007685
X073706Y007685
X079706Y007685
X028722Y007685
X022722Y007685
X121723Y007685
X066722Y007685
X005706Y007685
X042706Y007685
X035722Y007685
X048706Y007685
X104707Y007685
X085706Y007685
X011706Y007685
X072722Y007685
X078722Y007685
X017706Y007685
X054706Y007685
X110707Y007685
T102
X019277Y017125
X009434Y017125
T103
X078222Y014685
X078222Y013685
T104
X010222Y004185
X016222Y003185
X042222Y004185
X048222Y003185
X074222Y004185
X029222Y003185
X055222Y015685
X055222Y004185
X070222Y014685
X023222Y003185
X004222Y003185
X036222Y003185
X030222Y004185
X062222Y015685
X068222Y014685
X068222Y003185
X017222Y003185
X049222Y003185
X121222Y003185
X028222Y004185
X014356Y016566
X090222Y003185
X011222Y003185
X043222Y003185
X024222Y003185
X056222Y014685
X012175Y016566
X005222Y003185
X037222Y003185
X063222Y015685
X069222Y014685
X016222Y004185
X048222Y004185
X122222Y003185
X029222Y004185
X012222Y003185
X070222Y015685
X057222Y014685
X023222Y004185
X004222Y004185
X036222Y004185
X110222Y003185
X068222Y015685
X068222Y004185
X017222Y004185
X049222Y004185
X121222Y004185
X064222Y014685
X090222Y004185
X011222Y004185
X043222Y004185
X024222Y004185
X056222Y015685
X005222Y004185
X037222Y004185
X069222Y015685
X071222Y014685
X115222Y003185
X122222Y004185
X084222Y003185
X065222Y014685
X109222Y003185
X097222Y003185
X015446Y016566
X012222Y004185
X018222Y003185
X057222Y015685
X103222Y003185
X091222Y003185
X013265Y016566
X072222Y014685
X110222Y004185
X116222Y003185
X072222Y003185
X053222Y003185
X085222Y003185
X006222Y003185
X098222Y003185
X064222Y015685
X123222Y003185
X060222Y014685
X104222Y003185
X060222Y003185
X092222Y003185
X073222Y014685
X117222Y003185
X073222Y003185
X071222Y015685
X115222Y004185
X058222Y014685
X084222Y004185
X065222Y015685
X109222Y004185
X111222Y003185
X097222Y004185
X018222Y004185
X080222Y003185
X012722Y017685
X103222Y004185
X091222Y004185
X072222Y015685
X014899Y017685
X116222Y004185
X078222Y003185
X072222Y004185
X059222Y014685
X053222Y004185
X059222Y003185
X085222Y004185
X006222Y004185
X098222Y004185
X115222Y017185
X123222Y004185
X060222Y015685
X066222Y014685
X104222Y004185
X060222Y004185
X066222Y003185
X092222Y004185
X047222Y003185
X073222Y015685
X117222Y004185
X079222Y003185
X073222Y004185
X058222Y015685
X041222Y003185
X111222Y004185
X116222Y017185
X022222Y003185
X054222Y014685
X054222Y003185
X086222Y003185
X080222Y004185
X035222Y003185
X067222Y014685
X067222Y003185
X099222Y003185
X078222Y004185
X059222Y015685
X059222Y004185
X061222Y014685
X105222Y003185
X061222Y003185
X010222Y003185
X042222Y003185
X074222Y003185
X117222Y017185
X055222Y014685
X055222Y003185
X016537Y016566
X066222Y015685
X066222Y004185
X047222Y004185
X013812Y017685
X079222Y004185
X030222Y003185
X062222Y014685
X041222Y004185
X022222Y004185
X028222Y003185
X054222Y015685
X054222Y004185
X086222Y004185
X035222Y004185
X067222Y015685
X067222Y004185
X099222Y004185
X015990Y017685
X063222Y014685
X061222Y015685
X105222Y004185
X061222Y004185
T105
X121751Y015553
X123222Y017185
T00
M30
