G04 MADE WITH FRITZING*
G04 WWW.FRITZING.ORG*
G04 DOUBLE SIDED*
G04 HOLES PLATED*
G04 CONTOUR ON CENTER OF CONTOUR VECTOR*
%ASAXBY*%
%FSLAX23Y23*%
%MOIN*%
%OFA0B0*%
%SFA1.0B1.0*%
%ADD10C,0.075000*%
%ADD11C,0.082000*%
%ADD12C,0.062992*%
%ADD13C,0.078000*%
%ADD14C,0.074000*%
%ADD15R,0.082000X0.082000*%
%ADD16R,0.075000X0.075000*%
%ADD17R,0.062992X0.062992*%
%ADD18R,0.074000X0.074000*%
%ADD19C,0.024000*%
%ADD20C,0.032000*%
%ADD21C,0.048000*%
%LNCOPPER1*%
G90*
G70*
G54D10*
X1599Y303D03*
X1599Y703D03*
G54D11*
X1799Y303D03*
X1799Y601D03*
G54D10*
X1399Y305D03*
X1099Y305D03*
X1399Y405D03*
X1099Y405D03*
X1399Y505D03*
X1099Y505D03*
X1399Y605D03*
X1099Y605D03*
G54D12*
X801Y303D03*
X899Y303D03*
G54D13*
X1999Y503D03*
X1999Y403D03*
G54D14*
X399Y603D03*
X399Y503D03*
X399Y403D03*
X299Y603D03*
X299Y503D03*
X299Y403D03*
G54D15*
X1799Y302D03*
G54D16*
X1399Y305D03*
G54D17*
X801Y303D03*
G54D18*
X299Y603D03*
G54D19*
X800Y402D02*
X430Y403D01*
D02*
X801Y330D02*
X800Y402D01*
G54D20*
D02*
X899Y203D02*
X899Y270D01*
D02*
X1198Y604D02*
X1200Y204D01*
D02*
X1200Y204D02*
X899Y203D01*
D02*
X1365Y605D02*
X1198Y604D01*
G54D19*
D02*
X1300Y102D02*
X800Y102D01*
D02*
X800Y102D02*
X801Y276D01*
D02*
X1300Y302D02*
X1300Y102D01*
D02*
X1371Y304D02*
X1300Y302D01*
D02*
X1000Y604D02*
X430Y603D01*
D02*
X1000Y302D02*
X1000Y604D01*
D02*
X1071Y304D02*
X1000Y302D01*
G54D21*
D02*
X1398Y703D02*
X298Y703D01*
D02*
X298Y703D02*
X299Y645D01*
D02*
X1399Y645D02*
X1398Y703D01*
G54D19*
D02*
X1500Y603D02*
X1428Y604D01*
D02*
X1500Y703D02*
X1500Y603D01*
D02*
X1570Y703D02*
X1500Y703D01*
D02*
X1800Y703D02*
X1628Y703D01*
D02*
X1799Y633D02*
X1800Y703D01*
D02*
X1700Y304D02*
X1767Y303D01*
D02*
X1628Y303D02*
X1700Y304D01*
D02*
X1500Y304D02*
X1498Y505D01*
D02*
X1498Y505D02*
X1428Y505D01*
D02*
X1570Y303D02*
X1500Y304D01*
D02*
X1999Y604D02*
X1831Y601D01*
D02*
X1999Y533D02*
X1999Y604D01*
D02*
X1999Y302D02*
X1831Y303D01*
D02*
X1999Y373D02*
X1999Y302D01*
G04 End of Copper1*
M02*