; NON-PLATED HOLES START AT T1
; THROUGH (PLATED) HOLES START AT T100
M48
INCH
T1C0.086614
T100C0.031497
T101C0.040000
T102C0.038000
T103C0.042000
T104C0.035000
%
T1
X000990Y001027
X021990Y001027
X000990Y009027
X021990Y009027
T100
X008006Y003027
X008990Y003027
T101
X003990Y006027
X002990Y006027
X003990Y004027
X002990Y004027
X003990Y005027
X002990Y005027
T102
X019990Y005027
X019990Y004027
T103
X017990Y006007
X017990Y003027
T104
X010990Y003047
X013990Y006047
X010990Y004047
X015990Y003027
X010990Y005047
X010990Y006047
X013990Y003047
X013990Y004047
X015990Y007027
X013990Y005047
T00
M30
