G04 MADE WITH FRITZING*
G04 WWW.FRITZING.ORG*
G04 DOUBLE SIDED*
G04 HOLES PLATED*
G04 CONTOUR ON CENTER OF CONTOUR VECTOR*
%ASAXBY*%
%FSLAX23Y23*%
%MOIN*%
%OFA0B0*%
%SFA1.0B1.0*%
%ADD10C,0.072992*%
%ADD11C,0.084000*%
%ADD12C,0.076194*%
%ADD13C,0.076222*%
%ADD14R,0.072992X0.072992*%
%ADD15R,0.084000X0.084000*%
%LNMASK0*%
G90*
G70*
G54D10*
X948Y1107D03*
X1046Y1107D03*
G54D11*
X1746Y957D03*
X1746Y1057D03*
X1746Y1157D03*
X1846Y957D03*
X1846Y1057D03*
X1846Y1157D03*
G54D12*
X2106Y107D03*
X2206Y107D03*
X2306Y107D03*
X2406Y107D03*
X2506Y107D03*
G54D13*
X1646Y2007D03*
X1546Y2007D03*
X1446Y2007D03*
X1346Y2007D03*
X1246Y2007D03*
X1146Y2007D03*
X1046Y2007D03*
X946Y2007D03*
X846Y2007D03*
X746Y2007D03*
X2506Y2007D03*
X2406Y2007D03*
X2306Y2007D03*
X2206Y2007D03*
X2106Y2007D03*
X2006Y2007D03*
X1906Y2007D03*
X1806Y2007D03*
G54D12*
X1206Y107D03*
X1106Y107D03*
X1306Y107D03*
X1406Y107D03*
X1506Y107D03*
X1606Y107D03*
X1706Y107D03*
X1806Y107D03*
X2006Y107D03*
G54D14*
X948Y1107D03*
G54D15*
X1846Y957D03*
G04 End of Mask0*
M02*