; NON-PLATED HOLES START AT T1
; THROUGH (PLATED) HOLES START AT T100
M48
INCH
T100C0.040000
T101C0.038417
T102C0.031497
T103C0.038445
%
T100
X018459Y009566
X018459Y010566
X017459Y009566
X017459Y010566
X018459Y011566
X017459Y011566
T101
X024059Y001066
X015059Y001066
X016059Y001066
X025059Y001066
X017059Y001066
X018059Y001066
X011059Y001066
X020059Y001066
X021059Y001066
X012059Y001066
X013059Y001066
X014059Y001066
X022059Y001066
X023059Y001066
T102
X009475Y011066
X010459Y011066
T103
X008459Y020066
X010459Y020066
X025059Y020066
X011459Y020066
X009459Y020066
X018059Y020066
X019059Y020066
X012459Y020066
X013459Y020066
X020059Y020066
X021059Y020066
X014459Y020066
X015459Y020066
X022059Y020066
X016459Y020066
X023059Y020066
X024059Y020066
X007459Y020066
T00
M30
