G04 MADE WITH FRITZING*
G04 WWW.FRITZING.ORG*
G04 DOUBLE SIDED*
G04 HOLES PLATED*
G04 CONTOUR ON CENTER OF CONTOUR VECTOR*
%ASAXBY*%
%FSLAX23Y23*%
%MOIN*%
%OFA0B0*%
%SFA1.0B1.0*%
%ADD10R,0.001000X0.001000*%
%LNSILK0*%
G90*
G70*
G54D10*
X39Y2100D02*
X2544Y2100D01*
X35Y2099D02*
X38Y2099D01*
X2544Y2099D02*
X2545Y2099D01*
X32Y2098D02*
X34Y2098D01*
X2545Y2098D02*
X2546Y2098D01*
X30Y2097D02*
X32Y2097D01*
X2546Y2097D02*
X2547Y2097D01*
X29Y2096D02*
X30Y2096D01*
X2547Y2096D02*
X2548Y2096D01*
X27Y2095D02*
X28Y2095D01*
X2548Y2095D02*
X2549Y2095D01*
X25Y2094D02*
X26Y2094D01*
X2549Y2094D02*
X2550Y2094D01*
X24Y2093D02*
X25Y2093D01*
X2550Y2093D02*
X2551Y2093D01*
X23Y2092D02*
X23Y2092D01*
X2551Y2092D02*
X2552Y2092D01*
X22Y2091D02*
X22Y2091D01*
X2552Y2091D02*
X2553Y2091D01*
X21Y2090D02*
X21Y2090D01*
X2553Y2090D02*
X2554Y2090D01*
X20Y2089D02*
X20Y2089D01*
X2554Y2089D02*
X2555Y2089D01*
X19Y2088D02*
X19Y2088D01*
X2555Y2088D02*
X2556Y2088D01*
X18Y2087D02*
X18Y2087D01*
X2556Y2087D02*
X2557Y2087D01*
X18Y2086D02*
X18Y2086D01*
X2557Y2086D02*
X2558Y2086D01*
X17Y2085D02*
X17Y2085D01*
X2558Y2085D02*
X2559Y2085D01*
X16Y2084D02*
X16Y2084D01*
X2559Y2084D02*
X2560Y2084D01*
X16Y2083D02*
X16Y2083D01*
X2560Y2083D02*
X2561Y2083D01*
X15Y2082D02*
X15Y2082D01*
X2561Y2082D02*
X2562Y2082D01*
X14Y2081D02*
X15Y2081D01*
X2562Y2081D02*
X2563Y2081D01*
X14Y2080D02*
X14Y2080D01*
X2563Y2080D02*
X2564Y2080D01*
X14Y2079D02*
X14Y2079D01*
X2564Y2079D02*
X2565Y2079D01*
X13Y2078D02*
X13Y2078D01*
X2565Y2078D02*
X2566Y2078D01*
X13Y2077D02*
X13Y2077D01*
X2566Y2077D02*
X2567Y2077D01*
X12Y2076D02*
X12Y2076D01*
X2567Y2076D02*
X2568Y2076D01*
X12Y2075D02*
X12Y2075D01*
X2568Y2075D02*
X2569Y2075D01*
X12Y2074D02*
X12Y2074D01*
X2569Y2074D02*
X2570Y2074D01*
X12Y2073D02*
X12Y2073D01*
X2570Y2073D02*
X2571Y2073D01*
X11Y2072D02*
X11Y2072D01*
X2571Y2072D02*
X2572Y2072D01*
X11Y2071D02*
X11Y2071D01*
X2572Y2071D02*
X2573Y2071D01*
X11Y2070D02*
X11Y2070D01*
X2573Y2070D02*
X2574Y2070D01*
X11Y2069D02*
X11Y2069D01*
X2574Y2069D02*
X2575Y2069D01*
X11Y2068D02*
X11Y2068D01*
X2575Y2068D02*
X2576Y2068D01*
X11Y2067D02*
X11Y2067D01*
X2576Y2067D02*
X2577Y2067D01*
X11Y2066D02*
X11Y2066D01*
X2577Y2066D02*
X2578Y2066D01*
X11Y2065D02*
X11Y2065D01*
X2578Y2065D02*
X2579Y2065D01*
X11Y2064D02*
X11Y2064D01*
X2579Y2064D02*
X2580Y2064D01*
X11Y2063D02*
X11Y2063D01*
X2580Y2063D02*
X2581Y2063D01*
X11Y2062D02*
X11Y2062D01*
X2581Y2062D02*
X2582Y2062D01*
X11Y2061D02*
X11Y2061D01*
X2582Y2061D02*
X2583Y2061D01*
X11Y2060D02*
X11Y2060D01*
X2583Y2060D02*
X2584Y2060D01*
X11Y2059D02*
X11Y2059D01*
X2584Y2059D02*
X2585Y2059D01*
X11Y2058D02*
X11Y2058D01*
X2585Y2058D02*
X2586Y2058D01*
X11Y2057D02*
X11Y2057D01*
X2586Y2057D02*
X2587Y2057D01*
X11Y2056D02*
X11Y2056D01*
X2587Y2056D02*
X2588Y2056D01*
X11Y2055D02*
X11Y2055D01*
X2588Y2055D02*
X2589Y2055D01*
X11Y2054D02*
X11Y2054D01*
X2589Y2054D02*
X2590Y2054D01*
X11Y2053D02*
X11Y2053D01*
X2590Y2053D02*
X2591Y2053D01*
X11Y2052D02*
X11Y2052D01*
X2591Y2052D02*
X2592Y2052D01*
X11Y2051D02*
X11Y2051D01*
X2592Y2051D02*
X2593Y2051D01*
X11Y2050D02*
X11Y2050D01*
X2593Y2050D02*
X2594Y2050D01*
X11Y2049D02*
X11Y2049D01*
X2594Y2049D02*
X2595Y2049D01*
X11Y2048D02*
X11Y2048D01*
X2595Y2048D02*
X2596Y2048D01*
X11Y2047D02*
X11Y2047D01*
X2596Y2047D02*
X2597Y2047D01*
X11Y2046D02*
X11Y2046D01*
X2597Y2046D02*
X2598Y2046D01*
X11Y2045D02*
X11Y2045D01*
X2598Y2045D02*
X2599Y2045D01*
X11Y2044D02*
X11Y2044D01*
X2599Y2044D02*
X2600Y2044D01*
X11Y2043D02*
X11Y2043D01*
X2600Y2043D02*
X2601Y2043D01*
X11Y2042D02*
X11Y2042D01*
X2601Y2042D02*
X2602Y2042D01*
X11Y2041D02*
X11Y2041D01*
X2602Y2041D02*
X2603Y2041D01*
X11Y2040D02*
X11Y2040D01*
X2603Y2040D02*
X2603Y2040D01*
X11Y2039D02*
X11Y2039D01*
X2603Y2039D02*
X2603Y2039D01*
X11Y2038D02*
X11Y2038D01*
X2603Y2038D02*
X2603Y2038D01*
X11Y2037D02*
X11Y2037D01*
X2603Y2037D02*
X2603Y2037D01*
X11Y2036D02*
X11Y2036D01*
X2603Y2036D02*
X2603Y2036D01*
X11Y2035D02*
X11Y2035D01*
X2603Y2035D02*
X2603Y2035D01*
X11Y2034D02*
X11Y2034D01*
X2603Y2034D02*
X2603Y2034D01*
X11Y2033D02*
X11Y2033D01*
X2603Y2033D02*
X2603Y2033D01*
X11Y2032D02*
X11Y2032D01*
X2603Y2032D02*
X2603Y2032D01*
X11Y2031D02*
X11Y2031D01*
X2603Y2031D02*
X2603Y2031D01*
X11Y2030D02*
X11Y2030D01*
X2603Y2030D02*
X2603Y2030D01*
X11Y2029D02*
X11Y2029D01*
X2603Y2029D02*
X2603Y2029D01*
X11Y2028D02*
X11Y2028D01*
X2603Y2028D02*
X2603Y2028D01*
X11Y2027D02*
X11Y2027D01*
X2603Y2027D02*
X2603Y2027D01*
X11Y2026D02*
X11Y2026D01*
X2603Y2026D02*
X2603Y2026D01*
X11Y2025D02*
X11Y2025D01*
X2603Y2025D02*
X2603Y2025D01*
X11Y2024D02*
X11Y2024D01*
X2603Y2024D02*
X2603Y2024D01*
X11Y2023D02*
X11Y2023D01*
X2603Y2023D02*
X2603Y2023D01*
X11Y2022D02*
X11Y2022D01*
X2603Y2022D02*
X2603Y2022D01*
X11Y2021D02*
X11Y2021D01*
X2603Y2021D02*
X2603Y2021D01*
X11Y2020D02*
X11Y2020D01*
X2603Y2020D02*
X2603Y2020D01*
X11Y2019D02*
X11Y2019D01*
X2603Y2019D02*
X2603Y2019D01*
X11Y2018D02*
X11Y2018D01*
X2603Y2018D02*
X2603Y2018D01*
X11Y2017D02*
X11Y2017D01*
X2603Y2017D02*
X2603Y2017D01*
X11Y2016D02*
X11Y2016D01*
X2603Y2016D02*
X2603Y2016D01*
X11Y2015D02*
X11Y2015D01*
X2603Y2015D02*
X2603Y2015D01*
X11Y2014D02*
X11Y2014D01*
X2603Y2014D02*
X2603Y2014D01*
X11Y2013D02*
X11Y2013D01*
X2603Y2013D02*
X2603Y2013D01*
X11Y2012D02*
X11Y2012D01*
X2603Y2012D02*
X2603Y2012D01*
X11Y2011D02*
X11Y2011D01*
X2603Y2011D02*
X2603Y2011D01*
X11Y2010D02*
X11Y2010D01*
X2603Y2010D02*
X2603Y2010D01*
X11Y2009D02*
X11Y2009D01*
X2603Y2009D02*
X2603Y2009D01*
X11Y2008D02*
X11Y2008D01*
X2603Y2008D02*
X2603Y2008D01*
X11Y2007D02*
X11Y2007D01*
X2603Y2007D02*
X2603Y2007D01*
X11Y2006D02*
X11Y2006D01*
X2603Y2006D02*
X2603Y2006D01*
X11Y2005D02*
X11Y2005D01*
X2603Y2005D02*
X2603Y2005D01*
X11Y2004D02*
X11Y2004D01*
X2603Y2004D02*
X2603Y2004D01*
X11Y2003D02*
X11Y2003D01*
X2603Y2003D02*
X2603Y2003D01*
X11Y2002D02*
X11Y2002D01*
X2603Y2002D02*
X2603Y2002D01*
X11Y2001D02*
X11Y2001D01*
X2603Y2001D02*
X2603Y2001D01*
X11Y2000D02*
X11Y2000D01*
X2603Y2000D02*
X2603Y2000D01*
X11Y1999D02*
X11Y1999D01*
X2603Y1999D02*
X2603Y1999D01*
X11Y1998D02*
X11Y1998D01*
X2603Y1998D02*
X2603Y1998D01*
X11Y1997D02*
X11Y1997D01*
X2603Y1997D02*
X2603Y1997D01*
X11Y1996D02*
X11Y1996D01*
X2603Y1996D02*
X2603Y1996D01*
X11Y1995D02*
X11Y1995D01*
X2603Y1995D02*
X2603Y1995D01*
X11Y1994D02*
X11Y1994D01*
X2603Y1994D02*
X2603Y1994D01*
X11Y1993D02*
X11Y1993D01*
X2603Y1993D02*
X2603Y1993D01*
X11Y1992D02*
X11Y1992D01*
X2603Y1992D02*
X2603Y1992D01*
X11Y1991D02*
X11Y1991D01*
X2603Y1991D02*
X2603Y1991D01*
X11Y1990D02*
X11Y1990D01*
X2603Y1990D02*
X2603Y1990D01*
X11Y1989D02*
X11Y1989D01*
X2603Y1989D02*
X2603Y1989D01*
X11Y1988D02*
X11Y1988D01*
X2603Y1988D02*
X2603Y1988D01*
X11Y1987D02*
X11Y1987D01*
X2603Y1987D02*
X2603Y1987D01*
X11Y1986D02*
X11Y1986D01*
X2603Y1986D02*
X2603Y1986D01*
X11Y1985D02*
X11Y1985D01*
X2603Y1985D02*
X2603Y1985D01*
X11Y1984D02*
X11Y1984D01*
X2603Y1984D02*
X2603Y1984D01*
X11Y1983D02*
X11Y1983D01*
X2603Y1983D02*
X2603Y1983D01*
X11Y1982D02*
X11Y1982D01*
X2603Y1982D02*
X2603Y1982D01*
X11Y1981D02*
X11Y1981D01*
X2603Y1981D02*
X2603Y1981D01*
X11Y1980D02*
X11Y1980D01*
X2603Y1980D02*
X2603Y1980D01*
X11Y1979D02*
X11Y1979D01*
X2603Y1979D02*
X2603Y1979D01*
X11Y1978D02*
X11Y1978D01*
X2603Y1978D02*
X2603Y1978D01*
X11Y1977D02*
X11Y1977D01*
X2603Y1977D02*
X2603Y1977D01*
X11Y1976D02*
X11Y1976D01*
X2603Y1976D02*
X2603Y1976D01*
X11Y1975D02*
X11Y1975D01*
X2603Y1975D02*
X2603Y1975D01*
X11Y1974D02*
X11Y1974D01*
X2603Y1974D02*
X2603Y1974D01*
X11Y1973D02*
X11Y1973D01*
X2603Y1973D02*
X2603Y1973D01*
X11Y1972D02*
X11Y1972D01*
X2603Y1972D02*
X2603Y1972D01*
X11Y1971D02*
X11Y1971D01*
X2603Y1971D02*
X2603Y1971D01*
X11Y1970D02*
X11Y1970D01*
X2603Y1970D02*
X2603Y1970D01*
X11Y1969D02*
X11Y1969D01*
X2603Y1969D02*
X2603Y1969D01*
X11Y1968D02*
X11Y1968D01*
X2603Y1968D02*
X2603Y1968D01*
X11Y1967D02*
X11Y1967D01*
X2603Y1967D02*
X2603Y1967D01*
X11Y1966D02*
X11Y1966D01*
X2603Y1966D02*
X2603Y1966D01*
X11Y1965D02*
X11Y1965D01*
X2603Y1965D02*
X2603Y1965D01*
X11Y1964D02*
X11Y1964D01*
X2603Y1964D02*
X2603Y1964D01*
X11Y1963D02*
X11Y1963D01*
X2603Y1963D02*
X2603Y1963D01*
X11Y1962D02*
X11Y1962D01*
X2603Y1962D02*
X2603Y1962D01*
X11Y1961D02*
X11Y1961D01*
X2603Y1961D02*
X2603Y1961D01*
X11Y1960D02*
X11Y1960D01*
X2603Y1960D02*
X2603Y1960D01*
X11Y1959D02*
X11Y1959D01*
X2603Y1959D02*
X2603Y1959D01*
X11Y1958D02*
X11Y1958D01*
X2603Y1958D02*
X2603Y1958D01*
X11Y1957D02*
X11Y1957D01*
X2603Y1957D02*
X2603Y1957D01*
X11Y1956D02*
X11Y1956D01*
X2603Y1956D02*
X2603Y1956D01*
X11Y1955D02*
X11Y1955D01*
X2603Y1955D02*
X2603Y1955D01*
X11Y1954D02*
X11Y1954D01*
X2603Y1954D02*
X2603Y1954D01*
X11Y1953D02*
X11Y1953D01*
X2603Y1953D02*
X2603Y1953D01*
X11Y1952D02*
X11Y1952D01*
X2603Y1952D02*
X2603Y1952D01*
X11Y1951D02*
X11Y1951D01*
X2603Y1951D02*
X2603Y1951D01*
X11Y1950D02*
X11Y1950D01*
X2603Y1950D02*
X2603Y1950D01*
X11Y1949D02*
X11Y1949D01*
X2603Y1949D02*
X2603Y1949D01*
X11Y1948D02*
X11Y1948D01*
X2603Y1948D02*
X2603Y1948D01*
X11Y1947D02*
X11Y1947D01*
X2603Y1947D02*
X2603Y1947D01*
X11Y1946D02*
X11Y1946D01*
X2603Y1946D02*
X2603Y1946D01*
X11Y1945D02*
X11Y1945D01*
X2603Y1945D02*
X2603Y1945D01*
X11Y1944D02*
X11Y1944D01*
X2603Y1944D02*
X2603Y1944D01*
X11Y1943D02*
X11Y1943D01*
X2603Y1943D02*
X2603Y1943D01*
X11Y1942D02*
X11Y1942D01*
X2603Y1942D02*
X2603Y1942D01*
X11Y1941D02*
X11Y1941D01*
X2603Y1941D02*
X2603Y1941D01*
X11Y1940D02*
X11Y1940D01*
X2603Y1940D02*
X2603Y1940D01*
X11Y1939D02*
X11Y1939D01*
X2603Y1939D02*
X2603Y1939D01*
X11Y1938D02*
X11Y1938D01*
X2603Y1938D02*
X2603Y1938D01*
X11Y1937D02*
X11Y1937D01*
X2603Y1937D02*
X2603Y1937D01*
X11Y1936D02*
X11Y1936D01*
X2603Y1936D02*
X2603Y1936D01*
X11Y1935D02*
X11Y1935D01*
X2603Y1935D02*
X2603Y1935D01*
X11Y1934D02*
X11Y1934D01*
X2603Y1934D02*
X2603Y1934D01*
X11Y1933D02*
X11Y1933D01*
X2603Y1933D02*
X2603Y1933D01*
X11Y1932D02*
X11Y1932D01*
X2603Y1932D02*
X2603Y1932D01*
X11Y1931D02*
X11Y1931D01*
X2603Y1931D02*
X2603Y1931D01*
X11Y1930D02*
X11Y1930D01*
X2603Y1930D02*
X2603Y1930D01*
X11Y1929D02*
X11Y1929D01*
X2603Y1929D02*
X2603Y1929D01*
X11Y1928D02*
X11Y1928D01*
X2603Y1928D02*
X2603Y1928D01*
X11Y1927D02*
X11Y1927D01*
X2603Y1927D02*
X2603Y1927D01*
X11Y1926D02*
X11Y1926D01*
X2603Y1926D02*
X2603Y1926D01*
X11Y1925D02*
X11Y1925D01*
X2603Y1925D02*
X2603Y1925D01*
X11Y1924D02*
X11Y1924D01*
X2603Y1924D02*
X2603Y1924D01*
X11Y1923D02*
X11Y1923D01*
X2603Y1923D02*
X2603Y1923D01*
X11Y1922D02*
X11Y1922D01*
X2603Y1922D02*
X2603Y1922D01*
X11Y1921D02*
X11Y1921D01*
X2603Y1921D02*
X2603Y1921D01*
X11Y1920D02*
X11Y1920D01*
X2603Y1920D02*
X2603Y1920D01*
X11Y1919D02*
X11Y1919D01*
X2603Y1919D02*
X2603Y1919D01*
X11Y1918D02*
X11Y1918D01*
X2603Y1918D02*
X2603Y1918D01*
X11Y1917D02*
X11Y1917D01*
X2603Y1917D02*
X2603Y1917D01*
X11Y1916D02*
X11Y1916D01*
X2603Y1916D02*
X2603Y1916D01*
X11Y1915D02*
X11Y1915D01*
X2603Y1915D02*
X2603Y1915D01*
X11Y1914D02*
X11Y1914D01*
X2603Y1914D02*
X2603Y1914D01*
X11Y1913D02*
X11Y1913D01*
X2603Y1913D02*
X2603Y1913D01*
X11Y1912D02*
X11Y1912D01*
X2603Y1912D02*
X2603Y1912D01*
X11Y1911D02*
X11Y1911D01*
X2603Y1911D02*
X2603Y1911D01*
X11Y1910D02*
X11Y1910D01*
X2603Y1910D02*
X2603Y1910D01*
X11Y1909D02*
X11Y1909D01*
X2603Y1909D02*
X2603Y1909D01*
X11Y1908D02*
X11Y1908D01*
X2603Y1908D02*
X2603Y1908D01*
X11Y1907D02*
X11Y1907D01*
X2603Y1907D02*
X2603Y1907D01*
X11Y1906D02*
X11Y1906D01*
X2603Y1906D02*
X2603Y1906D01*
X11Y1905D02*
X11Y1905D01*
X2603Y1905D02*
X2603Y1905D01*
X11Y1904D02*
X11Y1904D01*
X2603Y1904D02*
X2603Y1904D01*
X11Y1903D02*
X11Y1903D01*
X2603Y1903D02*
X2603Y1903D01*
X11Y1902D02*
X11Y1902D01*
X2603Y1902D02*
X2603Y1902D01*
X11Y1901D02*
X11Y1901D01*
X2603Y1901D02*
X2603Y1901D01*
X11Y1900D02*
X11Y1900D01*
X2603Y1900D02*
X2603Y1900D01*
X11Y1899D02*
X11Y1899D01*
X2603Y1899D02*
X2603Y1899D01*
X11Y1898D02*
X11Y1898D01*
X2603Y1898D02*
X2603Y1898D01*
X11Y1897D02*
X11Y1897D01*
X2603Y1897D02*
X2603Y1897D01*
X11Y1896D02*
X11Y1896D01*
X2603Y1896D02*
X2603Y1896D01*
X11Y1895D02*
X11Y1895D01*
X2603Y1895D02*
X2603Y1895D01*
X11Y1894D02*
X11Y1894D01*
X2603Y1894D02*
X2603Y1894D01*
X11Y1893D02*
X11Y1893D01*
X2603Y1893D02*
X2603Y1893D01*
X11Y1892D02*
X11Y1892D01*
X2603Y1892D02*
X2603Y1892D01*
X11Y1891D02*
X11Y1891D01*
X2603Y1891D02*
X2603Y1891D01*
X11Y1890D02*
X11Y1890D01*
X2603Y1890D02*
X2603Y1890D01*
X11Y1889D02*
X11Y1889D01*
X2603Y1889D02*
X2603Y1889D01*
X11Y1888D02*
X11Y1888D01*
X2603Y1888D02*
X2603Y1888D01*
X11Y1887D02*
X11Y1887D01*
X2603Y1887D02*
X2603Y1887D01*
X11Y1886D02*
X11Y1886D01*
X2603Y1886D02*
X2603Y1886D01*
X11Y1885D02*
X11Y1885D01*
X2603Y1885D02*
X2603Y1885D01*
X11Y1884D02*
X11Y1884D01*
X2603Y1884D02*
X2603Y1884D01*
X11Y1883D02*
X11Y1883D01*
X2603Y1883D02*
X2603Y1883D01*
X11Y1882D02*
X11Y1882D01*
X2603Y1882D02*
X2603Y1882D01*
X11Y1881D02*
X11Y1881D01*
X2603Y1881D02*
X2603Y1881D01*
X11Y1880D02*
X11Y1880D01*
X2603Y1880D02*
X2603Y1880D01*
X11Y1879D02*
X11Y1879D01*
X2603Y1879D02*
X2603Y1879D01*
X11Y1878D02*
X11Y1878D01*
X2603Y1878D02*
X2603Y1878D01*
X11Y1877D02*
X11Y1877D01*
X2603Y1877D02*
X2603Y1877D01*
X11Y1876D02*
X11Y1876D01*
X2603Y1876D02*
X2603Y1876D01*
X11Y1875D02*
X11Y1875D01*
X2603Y1875D02*
X2603Y1875D01*
X11Y1874D02*
X11Y1874D01*
X2603Y1874D02*
X2603Y1874D01*
X11Y1873D02*
X11Y1873D01*
X2603Y1873D02*
X2603Y1873D01*
X11Y1872D02*
X11Y1872D01*
X2603Y1872D02*
X2603Y1872D01*
X11Y1871D02*
X11Y1871D01*
X2603Y1871D02*
X2603Y1871D01*
X11Y1870D02*
X11Y1870D01*
X2603Y1870D02*
X2603Y1870D01*
X11Y1869D02*
X11Y1869D01*
X2603Y1869D02*
X2603Y1869D01*
X11Y1868D02*
X11Y1868D01*
X2603Y1868D02*
X2603Y1868D01*
X11Y1867D02*
X11Y1867D01*
X2603Y1867D02*
X2603Y1867D01*
X11Y1866D02*
X11Y1866D01*
X2603Y1866D02*
X2603Y1866D01*
X11Y1865D02*
X11Y1865D01*
X2603Y1865D02*
X2603Y1865D01*
X11Y1864D02*
X11Y1864D01*
X2603Y1864D02*
X2603Y1864D01*
X11Y1863D02*
X11Y1863D01*
X2603Y1863D02*
X2603Y1863D01*
X11Y1862D02*
X11Y1862D01*
X2603Y1862D02*
X2603Y1862D01*
X11Y1861D02*
X11Y1861D01*
X2603Y1861D02*
X2603Y1861D01*
X11Y1860D02*
X11Y1860D01*
X2603Y1860D02*
X2603Y1860D01*
X11Y1859D02*
X11Y1859D01*
X2603Y1859D02*
X2603Y1859D01*
X11Y1858D02*
X11Y1858D01*
X2603Y1858D02*
X2603Y1858D01*
X11Y1857D02*
X11Y1857D01*
X2603Y1857D02*
X2603Y1857D01*
X11Y1856D02*
X11Y1856D01*
X2603Y1856D02*
X2603Y1856D01*
X11Y1855D02*
X11Y1855D01*
X2603Y1855D02*
X2603Y1855D01*
X11Y1854D02*
X11Y1854D01*
X2603Y1854D02*
X2603Y1854D01*
X11Y1853D02*
X11Y1853D01*
X2603Y1853D02*
X2603Y1853D01*
X11Y1852D02*
X11Y1852D01*
X2603Y1852D02*
X2603Y1852D01*
X11Y1851D02*
X11Y1851D01*
X2603Y1851D02*
X2603Y1851D01*
X11Y1850D02*
X11Y1850D01*
X2603Y1850D02*
X2603Y1850D01*
X11Y1849D02*
X11Y1849D01*
X2603Y1849D02*
X2603Y1849D01*
X11Y1848D02*
X11Y1848D01*
X2603Y1848D02*
X2603Y1848D01*
X11Y1847D02*
X11Y1847D01*
X2603Y1847D02*
X2603Y1847D01*
X11Y1846D02*
X11Y1846D01*
X2603Y1846D02*
X2603Y1846D01*
X11Y1845D02*
X11Y1845D01*
X2603Y1845D02*
X2603Y1845D01*
X11Y1844D02*
X11Y1844D01*
X2603Y1844D02*
X2603Y1844D01*
X11Y1843D02*
X11Y1843D01*
X2603Y1843D02*
X2603Y1843D01*
X11Y1842D02*
X11Y1842D01*
X2603Y1842D02*
X2603Y1842D01*
X11Y1841D02*
X11Y1841D01*
X2603Y1841D02*
X2603Y1841D01*
X11Y1840D02*
X11Y1840D01*
X2603Y1840D02*
X2603Y1840D01*
X11Y1839D02*
X11Y1839D01*
X2603Y1839D02*
X2603Y1839D01*
X11Y1838D02*
X11Y1838D01*
X2603Y1838D02*
X2603Y1838D01*
X11Y1837D02*
X11Y1837D01*
X2603Y1837D02*
X2603Y1837D01*
X11Y1836D02*
X11Y1836D01*
X2603Y1836D02*
X2603Y1836D01*
X11Y1835D02*
X11Y1835D01*
X2603Y1835D02*
X2603Y1835D01*
X11Y1834D02*
X11Y1834D01*
X2603Y1834D02*
X2603Y1834D01*
X11Y1833D02*
X11Y1833D01*
X2603Y1833D02*
X2603Y1833D01*
X11Y1832D02*
X11Y1832D01*
X2603Y1832D02*
X2603Y1832D01*
X11Y1831D02*
X11Y1831D01*
X2603Y1831D02*
X2603Y1831D01*
X11Y1830D02*
X11Y1830D01*
X2603Y1830D02*
X2603Y1830D01*
X11Y1829D02*
X11Y1829D01*
X2603Y1829D02*
X2603Y1829D01*
X11Y1828D02*
X11Y1828D01*
X2603Y1828D02*
X2603Y1828D01*
X11Y1827D02*
X11Y1827D01*
X2603Y1827D02*
X2603Y1827D01*
X11Y1826D02*
X11Y1826D01*
X2603Y1826D02*
X2603Y1826D01*
X11Y1825D02*
X11Y1825D01*
X2603Y1825D02*
X2603Y1825D01*
X11Y1824D02*
X11Y1824D01*
X2603Y1824D02*
X2603Y1824D01*
X11Y1823D02*
X11Y1823D01*
X2603Y1823D02*
X2603Y1823D01*
X11Y1822D02*
X11Y1822D01*
X2603Y1822D02*
X2603Y1822D01*
X11Y1821D02*
X11Y1821D01*
X2603Y1821D02*
X2603Y1821D01*
X11Y1820D02*
X11Y1820D01*
X2603Y1820D02*
X2603Y1820D01*
X11Y1819D02*
X11Y1819D01*
X2603Y1819D02*
X2603Y1819D01*
X11Y1818D02*
X11Y1818D01*
X2603Y1818D02*
X2603Y1818D01*
X11Y1817D02*
X11Y1817D01*
X2603Y1817D02*
X2603Y1817D01*
X11Y1816D02*
X11Y1816D01*
X2603Y1816D02*
X2603Y1816D01*
X11Y1815D02*
X11Y1815D01*
X2603Y1815D02*
X2603Y1815D01*
X11Y1814D02*
X11Y1814D01*
X2603Y1814D02*
X2603Y1814D01*
X11Y1813D02*
X11Y1813D01*
X2603Y1813D02*
X2603Y1813D01*
X11Y1812D02*
X11Y1812D01*
X2603Y1812D02*
X2603Y1812D01*
X11Y1811D02*
X11Y1811D01*
X2603Y1811D02*
X2603Y1811D01*
X11Y1810D02*
X11Y1810D01*
X2603Y1810D02*
X2603Y1810D01*
X11Y1809D02*
X11Y1809D01*
X2603Y1809D02*
X2603Y1809D01*
X11Y1808D02*
X11Y1808D01*
X2603Y1808D02*
X2603Y1808D01*
X11Y1807D02*
X11Y1807D01*
X2603Y1807D02*
X2603Y1807D01*
X11Y1806D02*
X11Y1806D01*
X2603Y1806D02*
X2603Y1806D01*
X11Y1805D02*
X11Y1805D01*
X2603Y1805D02*
X2603Y1805D01*
X11Y1804D02*
X11Y1804D01*
X2603Y1804D02*
X2603Y1804D01*
X11Y1803D02*
X11Y1803D01*
X2603Y1803D02*
X2603Y1803D01*
X11Y1802D02*
X11Y1802D01*
X2603Y1802D02*
X2603Y1802D01*
X11Y1801D02*
X11Y1801D01*
X2603Y1801D02*
X2603Y1801D01*
X11Y1800D02*
X11Y1800D01*
X2603Y1800D02*
X2603Y1800D01*
X11Y1799D02*
X11Y1799D01*
X2603Y1799D02*
X2603Y1799D01*
X11Y1798D02*
X11Y1798D01*
X2603Y1798D02*
X2603Y1798D01*
X11Y1797D02*
X11Y1797D01*
X2603Y1797D02*
X2603Y1797D01*
X11Y1796D02*
X11Y1796D01*
X2603Y1796D02*
X2603Y1796D01*
X11Y1795D02*
X11Y1795D01*
X2603Y1795D02*
X2603Y1795D01*
X11Y1794D02*
X11Y1794D01*
X2603Y1794D02*
X2603Y1794D01*
X11Y1793D02*
X11Y1793D01*
X2603Y1793D02*
X2603Y1793D01*
X11Y1792D02*
X11Y1792D01*
X2603Y1792D02*
X2603Y1792D01*
X11Y1791D02*
X11Y1791D01*
X2603Y1791D02*
X2603Y1791D01*
X11Y1790D02*
X11Y1790D01*
X2603Y1790D02*
X2603Y1790D01*
X11Y1789D02*
X11Y1789D01*
X2603Y1789D02*
X2603Y1789D01*
X11Y1788D02*
X11Y1788D01*
X2603Y1788D02*
X2603Y1788D01*
X11Y1787D02*
X11Y1787D01*
X2603Y1787D02*
X2603Y1787D01*
X11Y1786D02*
X11Y1786D01*
X2603Y1786D02*
X2603Y1786D01*
X11Y1785D02*
X11Y1785D01*
X2603Y1785D02*
X2603Y1785D01*
X11Y1784D02*
X11Y1784D01*
X2603Y1784D02*
X2603Y1784D01*
X11Y1783D02*
X11Y1783D01*
X2603Y1783D02*
X2603Y1783D01*
X11Y1782D02*
X11Y1782D01*
X2603Y1782D02*
X2603Y1782D01*
X11Y1781D02*
X11Y1781D01*
X2603Y1781D02*
X2603Y1781D01*
X11Y1780D02*
X11Y1780D01*
X2603Y1780D02*
X2603Y1780D01*
X11Y1779D02*
X11Y1779D01*
X2603Y1779D02*
X2603Y1779D01*
X11Y1778D02*
X11Y1778D01*
X2603Y1778D02*
X2603Y1778D01*
X11Y1777D02*
X11Y1777D01*
X2603Y1777D02*
X2603Y1777D01*
X11Y1776D02*
X11Y1776D01*
X2603Y1776D02*
X2603Y1776D01*
X11Y1775D02*
X11Y1775D01*
X2603Y1775D02*
X2603Y1775D01*
X11Y1774D02*
X11Y1774D01*
X2603Y1774D02*
X2603Y1774D01*
X11Y1773D02*
X11Y1773D01*
X2603Y1773D02*
X2603Y1773D01*
X11Y1772D02*
X11Y1772D01*
X2603Y1772D02*
X2603Y1772D01*
X11Y1771D02*
X11Y1771D01*
X2603Y1771D02*
X2603Y1771D01*
X11Y1770D02*
X11Y1770D01*
X2603Y1770D02*
X2603Y1770D01*
X11Y1769D02*
X11Y1769D01*
X2603Y1769D02*
X2603Y1769D01*
X11Y1768D02*
X11Y1768D01*
X2603Y1768D02*
X2603Y1768D01*
X11Y1767D02*
X11Y1767D01*
X2603Y1767D02*
X2603Y1767D01*
X11Y1766D02*
X11Y1766D01*
X2603Y1766D02*
X2603Y1766D01*
X11Y1765D02*
X11Y1765D01*
X2603Y1765D02*
X2603Y1765D01*
X11Y1764D02*
X11Y1764D01*
X2603Y1764D02*
X2603Y1764D01*
X11Y1763D02*
X11Y1763D01*
X2603Y1763D02*
X2603Y1763D01*
X11Y1762D02*
X11Y1762D01*
X2603Y1762D02*
X2603Y1762D01*
X11Y1761D02*
X11Y1761D01*
X2603Y1761D02*
X2603Y1761D01*
X11Y1760D02*
X11Y1760D01*
X2603Y1760D02*
X2603Y1760D01*
X11Y1759D02*
X11Y1759D01*
X2603Y1759D02*
X2603Y1759D01*
X11Y1758D02*
X11Y1758D01*
X2603Y1758D02*
X2603Y1758D01*
X11Y1757D02*
X11Y1757D01*
X2603Y1757D02*
X2603Y1757D01*
X11Y1756D02*
X11Y1756D01*
X2603Y1756D02*
X2603Y1756D01*
X11Y1755D02*
X11Y1755D01*
X2603Y1755D02*
X2603Y1755D01*
X11Y1754D02*
X11Y1754D01*
X2603Y1754D02*
X2603Y1754D01*
X11Y1753D02*
X11Y1753D01*
X2603Y1753D02*
X2603Y1753D01*
X11Y1752D02*
X11Y1752D01*
X2603Y1752D02*
X2603Y1752D01*
X11Y1751D02*
X11Y1751D01*
X2603Y1751D02*
X2603Y1751D01*
X11Y1750D02*
X11Y1750D01*
X2603Y1750D02*
X2603Y1750D01*
X11Y1749D02*
X11Y1749D01*
X2603Y1749D02*
X2603Y1749D01*
X11Y1748D02*
X11Y1748D01*
X2603Y1748D02*
X2603Y1748D01*
X11Y1747D02*
X11Y1747D01*
X2603Y1747D02*
X2603Y1747D01*
X11Y1746D02*
X11Y1746D01*
X2603Y1746D02*
X2603Y1746D01*
X11Y1745D02*
X11Y1745D01*
X2603Y1745D02*
X2603Y1745D01*
X11Y1744D02*
X11Y1744D01*
X2603Y1744D02*
X2603Y1744D01*
X11Y1743D02*
X11Y1743D01*
X2603Y1743D02*
X2603Y1743D01*
X11Y1742D02*
X11Y1742D01*
X2603Y1742D02*
X2603Y1742D01*
X11Y1741D02*
X11Y1741D01*
X2603Y1741D02*
X2603Y1741D01*
X11Y1740D02*
X11Y1740D01*
X2603Y1740D02*
X2603Y1740D01*
X11Y1739D02*
X11Y1739D01*
X2603Y1739D02*
X2603Y1739D01*
X11Y1738D02*
X11Y1738D01*
X2603Y1738D02*
X2603Y1738D01*
X11Y1737D02*
X11Y1737D01*
X2603Y1737D02*
X2603Y1737D01*
X11Y1736D02*
X11Y1736D01*
X2603Y1736D02*
X2603Y1736D01*
X11Y1735D02*
X11Y1735D01*
X2603Y1735D02*
X2603Y1735D01*
X11Y1734D02*
X11Y1734D01*
X2603Y1734D02*
X2603Y1734D01*
X11Y1733D02*
X11Y1733D01*
X2603Y1733D02*
X2603Y1733D01*
X11Y1732D02*
X11Y1732D01*
X2603Y1732D02*
X2603Y1732D01*
X11Y1731D02*
X11Y1731D01*
X2603Y1731D02*
X2603Y1731D01*
X11Y1730D02*
X11Y1730D01*
X2603Y1730D02*
X2603Y1730D01*
X11Y1729D02*
X11Y1729D01*
X2603Y1729D02*
X2603Y1729D01*
X11Y1728D02*
X11Y1728D01*
X2603Y1728D02*
X2603Y1728D01*
X11Y1727D02*
X11Y1727D01*
X2603Y1727D02*
X2603Y1727D01*
X11Y1726D02*
X11Y1726D01*
X2603Y1726D02*
X2603Y1726D01*
X11Y1725D02*
X11Y1725D01*
X2603Y1725D02*
X2603Y1725D01*
X11Y1724D02*
X11Y1724D01*
X2603Y1724D02*
X2603Y1724D01*
X11Y1723D02*
X11Y1723D01*
X2603Y1723D02*
X2603Y1723D01*
X11Y1722D02*
X11Y1722D01*
X2603Y1722D02*
X2603Y1722D01*
X11Y1721D02*
X11Y1721D01*
X2603Y1721D02*
X2603Y1721D01*
X11Y1720D02*
X11Y1720D01*
X2603Y1720D02*
X2603Y1720D01*
X11Y1719D02*
X11Y1719D01*
X2603Y1719D02*
X2603Y1719D01*
X11Y1718D02*
X11Y1718D01*
X2603Y1718D02*
X2603Y1718D01*
X11Y1717D02*
X11Y1717D01*
X2603Y1717D02*
X2603Y1717D01*
X11Y1716D02*
X11Y1716D01*
X2603Y1716D02*
X2603Y1716D01*
X11Y1715D02*
X11Y1715D01*
X2603Y1715D02*
X2603Y1715D01*
X11Y1714D02*
X11Y1714D01*
X2603Y1714D02*
X2603Y1714D01*
X11Y1713D02*
X11Y1713D01*
X2603Y1713D02*
X2603Y1713D01*
X11Y1712D02*
X11Y1712D01*
X2603Y1712D02*
X2603Y1712D01*
X11Y1711D02*
X11Y1711D01*
X2603Y1711D02*
X2603Y1711D01*
X11Y1710D02*
X11Y1710D01*
X2603Y1710D02*
X2603Y1710D01*
X11Y1709D02*
X11Y1709D01*
X2603Y1709D02*
X2603Y1709D01*
X11Y1708D02*
X11Y1708D01*
X2603Y1708D02*
X2603Y1708D01*
X11Y1707D02*
X11Y1707D01*
X2603Y1707D02*
X2603Y1707D01*
X11Y1706D02*
X11Y1706D01*
X2603Y1706D02*
X2603Y1706D01*
X11Y1705D02*
X11Y1705D01*
X2603Y1705D02*
X2603Y1705D01*
X11Y1704D02*
X11Y1704D01*
X2603Y1704D02*
X2603Y1704D01*
X11Y1703D02*
X11Y1703D01*
X2603Y1703D02*
X2603Y1703D01*
X11Y1702D02*
X11Y1702D01*
X2603Y1702D02*
X2603Y1702D01*
X11Y1701D02*
X11Y1701D01*
X2603Y1701D02*
X2603Y1701D01*
X11Y1700D02*
X11Y1700D01*
X2603Y1700D02*
X2603Y1700D01*
X11Y1699D02*
X11Y1699D01*
X2603Y1699D02*
X2603Y1699D01*
X11Y1698D02*
X11Y1698D01*
X2603Y1698D02*
X2603Y1698D01*
X11Y1697D02*
X11Y1697D01*
X2603Y1697D02*
X2603Y1697D01*
X11Y1696D02*
X11Y1696D01*
X2603Y1696D02*
X2603Y1696D01*
X11Y1695D02*
X11Y1695D01*
X2603Y1695D02*
X2603Y1695D01*
X11Y1694D02*
X11Y1694D01*
X2603Y1694D02*
X2603Y1694D01*
X11Y1693D02*
X11Y1693D01*
X2603Y1693D02*
X2603Y1693D01*
X11Y1692D02*
X11Y1692D01*
X2603Y1692D02*
X2603Y1692D01*
X11Y1691D02*
X11Y1691D01*
X2603Y1691D02*
X2603Y1691D01*
X11Y1690D02*
X11Y1690D01*
X2603Y1690D02*
X2603Y1690D01*
X11Y1689D02*
X11Y1689D01*
X2603Y1689D02*
X2603Y1689D01*
X11Y1688D02*
X11Y1688D01*
X2603Y1688D02*
X2603Y1688D01*
X11Y1687D02*
X11Y1687D01*
X2603Y1687D02*
X2603Y1687D01*
X11Y1686D02*
X11Y1686D01*
X2603Y1686D02*
X2603Y1686D01*
X11Y1685D02*
X11Y1685D01*
X2603Y1685D02*
X2603Y1685D01*
X11Y1684D02*
X11Y1684D01*
X2603Y1684D02*
X2603Y1684D01*
X11Y1683D02*
X11Y1683D01*
X2603Y1683D02*
X2603Y1683D01*
X11Y1682D02*
X11Y1682D01*
X2603Y1682D02*
X2603Y1682D01*
X11Y1681D02*
X11Y1681D01*
X2603Y1681D02*
X2603Y1681D01*
X11Y1680D02*
X11Y1680D01*
X2603Y1680D02*
X2603Y1680D01*
X11Y1679D02*
X11Y1679D01*
X2603Y1679D02*
X2603Y1679D01*
X11Y1678D02*
X11Y1678D01*
X2603Y1678D02*
X2603Y1678D01*
X11Y1677D02*
X11Y1677D01*
X2603Y1677D02*
X2603Y1677D01*
X11Y1676D02*
X11Y1676D01*
X2603Y1676D02*
X2603Y1676D01*
X11Y1675D02*
X11Y1675D01*
X2603Y1675D02*
X2603Y1675D01*
X11Y1674D02*
X11Y1674D01*
X2603Y1674D02*
X2603Y1674D01*
X11Y1673D02*
X11Y1673D01*
X2603Y1673D02*
X2603Y1673D01*
X11Y1672D02*
X11Y1672D01*
X2603Y1672D02*
X2603Y1672D01*
X11Y1671D02*
X11Y1671D01*
X2603Y1671D02*
X2603Y1671D01*
X11Y1670D02*
X11Y1670D01*
X2603Y1670D02*
X2603Y1670D01*
X11Y1669D02*
X11Y1669D01*
X2603Y1669D02*
X2603Y1669D01*
X11Y1668D02*
X11Y1668D01*
X2603Y1668D02*
X2603Y1668D01*
X11Y1667D02*
X11Y1667D01*
X2603Y1667D02*
X2603Y1667D01*
X11Y1666D02*
X11Y1666D01*
X2603Y1666D02*
X2603Y1666D01*
X11Y1665D02*
X11Y1665D01*
X2603Y1665D02*
X2603Y1665D01*
X11Y1664D02*
X11Y1664D01*
X2603Y1664D02*
X2603Y1664D01*
X11Y1663D02*
X11Y1663D01*
X2603Y1663D02*
X2603Y1663D01*
X11Y1662D02*
X11Y1662D01*
X2603Y1662D02*
X2603Y1662D01*
X11Y1661D02*
X11Y1661D01*
X2603Y1661D02*
X2603Y1661D01*
X11Y1660D02*
X11Y1660D01*
X2603Y1660D02*
X2603Y1660D01*
X11Y1659D02*
X11Y1659D01*
X2603Y1659D02*
X2603Y1659D01*
X11Y1658D02*
X11Y1658D01*
X2603Y1658D02*
X2603Y1658D01*
X11Y1657D02*
X11Y1657D01*
X2603Y1657D02*
X2603Y1657D01*
X11Y1656D02*
X11Y1656D01*
X2603Y1656D02*
X2603Y1656D01*
X11Y1655D02*
X11Y1655D01*
X2603Y1655D02*
X2603Y1655D01*
X11Y1654D02*
X11Y1654D01*
X2603Y1654D02*
X2603Y1654D01*
X11Y1653D02*
X11Y1653D01*
X2603Y1653D02*
X2603Y1653D01*
X11Y1652D02*
X11Y1652D01*
X2603Y1652D02*
X2603Y1652D01*
X11Y1651D02*
X11Y1651D01*
X2603Y1651D02*
X2603Y1651D01*
X11Y1650D02*
X11Y1650D01*
X2603Y1650D02*
X2603Y1650D01*
X11Y1649D02*
X11Y1649D01*
X2603Y1649D02*
X2603Y1649D01*
X11Y1648D02*
X11Y1648D01*
X2603Y1648D02*
X2603Y1648D01*
X11Y1647D02*
X11Y1647D01*
X2603Y1647D02*
X2603Y1647D01*
X11Y1646D02*
X11Y1646D01*
X2603Y1646D02*
X2603Y1646D01*
X11Y1645D02*
X11Y1645D01*
X2603Y1645D02*
X2603Y1645D01*
X11Y1644D02*
X11Y1644D01*
X2603Y1644D02*
X2603Y1644D01*
X11Y1643D02*
X11Y1643D01*
X2603Y1643D02*
X2603Y1643D01*
X11Y1642D02*
X11Y1642D01*
X2603Y1642D02*
X2603Y1642D01*
X11Y1641D02*
X11Y1641D01*
X2603Y1641D02*
X2603Y1641D01*
X11Y1640D02*
X11Y1640D01*
X2603Y1640D02*
X2603Y1640D01*
X11Y1639D02*
X11Y1639D01*
X2603Y1639D02*
X2603Y1639D01*
X11Y1638D02*
X11Y1638D01*
X2603Y1638D02*
X2603Y1638D01*
X11Y1637D02*
X11Y1637D01*
X2603Y1637D02*
X2603Y1637D01*
X11Y1636D02*
X11Y1636D01*
X2603Y1636D02*
X2603Y1636D01*
X11Y1635D02*
X11Y1635D01*
X2603Y1635D02*
X2603Y1635D01*
X11Y1634D02*
X11Y1634D01*
X2603Y1634D02*
X2603Y1634D01*
X11Y1633D02*
X11Y1633D01*
X2603Y1633D02*
X2603Y1633D01*
X11Y1632D02*
X11Y1632D01*
X2603Y1632D02*
X2603Y1632D01*
X11Y1631D02*
X11Y1631D01*
X2603Y1631D02*
X2603Y1631D01*
X11Y1630D02*
X11Y1630D01*
X2603Y1630D02*
X2603Y1630D01*
X11Y1629D02*
X11Y1629D01*
X2603Y1629D02*
X2603Y1629D01*
X11Y1628D02*
X11Y1628D01*
X2603Y1628D02*
X2603Y1628D01*
X11Y1627D02*
X11Y1627D01*
X2603Y1627D02*
X2603Y1627D01*
X11Y1626D02*
X11Y1626D01*
X2603Y1626D02*
X2603Y1626D01*
X11Y1625D02*
X11Y1625D01*
X2603Y1625D02*
X2603Y1625D01*
X11Y1624D02*
X11Y1624D01*
X2603Y1624D02*
X2603Y1624D01*
X11Y1623D02*
X11Y1623D01*
X2603Y1623D02*
X2603Y1623D01*
X11Y1622D02*
X11Y1622D01*
X2603Y1622D02*
X2603Y1622D01*
X11Y1621D02*
X11Y1621D01*
X2603Y1621D02*
X2603Y1621D01*
X11Y1620D02*
X11Y1620D01*
X2603Y1620D02*
X2603Y1620D01*
X11Y1619D02*
X11Y1619D01*
X2603Y1619D02*
X2603Y1619D01*
X11Y1618D02*
X11Y1618D01*
X2603Y1618D02*
X2603Y1618D01*
X11Y1617D02*
X11Y1617D01*
X2603Y1617D02*
X2603Y1617D01*
X11Y1616D02*
X11Y1616D01*
X2603Y1616D02*
X2603Y1616D01*
X11Y1615D02*
X11Y1615D01*
X2603Y1615D02*
X2603Y1615D01*
X11Y1614D02*
X11Y1614D01*
X2603Y1614D02*
X2603Y1614D01*
X11Y1613D02*
X11Y1613D01*
X2603Y1613D02*
X2603Y1613D01*
X11Y1612D02*
X11Y1612D01*
X2603Y1612D02*
X2603Y1612D01*
X11Y1611D02*
X11Y1611D01*
X2603Y1611D02*
X2603Y1611D01*
X11Y1610D02*
X11Y1610D01*
X2603Y1610D02*
X2603Y1610D01*
X11Y1609D02*
X11Y1609D01*
X2603Y1609D02*
X2603Y1609D01*
X11Y1608D02*
X11Y1608D01*
X2603Y1608D02*
X2603Y1608D01*
X11Y1607D02*
X11Y1607D01*
X2603Y1607D02*
X2603Y1607D01*
X11Y1606D02*
X11Y1606D01*
X2603Y1606D02*
X2603Y1606D01*
X11Y1605D02*
X11Y1605D01*
X2603Y1605D02*
X2603Y1605D01*
X11Y1604D02*
X11Y1604D01*
X2603Y1604D02*
X2603Y1604D01*
X11Y1603D02*
X11Y1603D01*
X2603Y1603D02*
X2603Y1603D01*
X11Y1602D02*
X11Y1602D01*
X2603Y1602D02*
X2603Y1602D01*
X11Y1601D02*
X11Y1601D01*
X2603Y1601D02*
X2603Y1601D01*
X11Y1600D02*
X11Y1600D01*
X2603Y1600D02*
X2603Y1600D01*
X11Y1599D02*
X11Y1599D01*
X2603Y1599D02*
X2603Y1599D01*
X11Y1598D02*
X11Y1598D01*
X2603Y1598D02*
X2603Y1598D01*
X11Y1597D02*
X11Y1597D01*
X2603Y1597D02*
X2603Y1597D01*
X11Y1596D02*
X11Y1596D01*
X2603Y1596D02*
X2603Y1596D01*
X11Y1595D02*
X11Y1595D01*
X2603Y1595D02*
X2603Y1595D01*
X11Y1594D02*
X11Y1594D01*
X2603Y1594D02*
X2603Y1594D01*
X11Y1593D02*
X11Y1593D01*
X2603Y1593D02*
X2603Y1593D01*
X11Y1592D02*
X11Y1592D01*
X2603Y1592D02*
X2603Y1592D01*
X11Y1591D02*
X11Y1591D01*
X2604Y1591D02*
X2604Y1591D01*
X11Y1590D02*
X11Y1590D01*
X2605Y1590D02*
X2605Y1590D01*
X11Y1589D02*
X11Y1589D01*
X2606Y1589D02*
X2606Y1589D01*
X11Y1588D02*
X11Y1588D01*
X2607Y1588D02*
X2607Y1588D01*
X11Y1587D02*
X11Y1587D01*
X2608Y1587D02*
X2608Y1587D01*
X11Y1586D02*
X11Y1586D01*
X2609Y1586D02*
X2609Y1586D01*
X11Y1585D02*
X11Y1585D01*
X2610Y1585D02*
X2610Y1585D01*
X11Y1584D02*
X11Y1584D01*
X2611Y1584D02*
X2611Y1584D01*
X11Y1583D02*
X11Y1583D01*
X2612Y1583D02*
X2612Y1583D01*
X11Y1582D02*
X11Y1582D01*
X2613Y1582D02*
X2613Y1582D01*
X11Y1581D02*
X11Y1581D01*
X2614Y1581D02*
X2614Y1581D01*
X11Y1580D02*
X11Y1580D01*
X2615Y1580D02*
X2615Y1580D01*
X11Y1579D02*
X11Y1579D01*
X2616Y1579D02*
X2616Y1579D01*
X11Y1578D02*
X11Y1578D01*
X2617Y1578D02*
X2617Y1578D01*
X11Y1577D02*
X11Y1577D01*
X2618Y1577D02*
X2618Y1577D01*
X11Y1576D02*
X11Y1576D01*
X2619Y1576D02*
X2619Y1576D01*
X11Y1575D02*
X11Y1575D01*
X2620Y1575D02*
X2620Y1575D01*
X11Y1574D02*
X11Y1574D01*
X2621Y1574D02*
X2621Y1574D01*
X11Y1573D02*
X11Y1573D01*
X2622Y1573D02*
X2622Y1573D01*
X11Y1572D02*
X11Y1572D01*
X2623Y1572D02*
X2623Y1572D01*
X11Y1571D02*
X11Y1571D01*
X2624Y1571D02*
X2624Y1571D01*
X11Y1570D02*
X11Y1570D01*
X2625Y1570D02*
X2625Y1570D01*
X11Y1569D02*
X11Y1569D01*
X2626Y1569D02*
X2626Y1569D01*
X11Y1568D02*
X11Y1568D01*
X2627Y1568D02*
X2627Y1568D01*
X11Y1567D02*
X11Y1567D01*
X2628Y1567D02*
X2628Y1567D01*
X11Y1566D02*
X11Y1566D01*
X2629Y1566D02*
X2629Y1566D01*
X11Y1565D02*
X11Y1565D01*
X2630Y1565D02*
X2630Y1565D01*
X11Y1564D02*
X11Y1564D01*
X2631Y1564D02*
X2631Y1564D01*
X11Y1563D02*
X11Y1563D01*
X2632Y1563D02*
X2632Y1563D01*
X11Y1562D02*
X11Y1562D01*
X2633Y1562D02*
X2633Y1562D01*
X11Y1561D02*
X11Y1561D01*
X2634Y1561D02*
X2634Y1561D01*
X11Y1560D02*
X11Y1560D01*
X2635Y1560D02*
X2635Y1560D01*
X11Y1559D02*
X11Y1559D01*
X2636Y1559D02*
X2636Y1559D01*
X11Y1558D02*
X11Y1558D01*
X2637Y1558D02*
X2637Y1558D01*
X11Y1557D02*
X11Y1557D01*
X2638Y1557D02*
X2638Y1557D01*
X11Y1556D02*
X11Y1556D01*
X2639Y1556D02*
X2639Y1556D01*
X11Y1555D02*
X11Y1555D01*
X2640Y1555D02*
X2640Y1555D01*
X11Y1554D02*
X11Y1554D01*
X2641Y1554D02*
X2641Y1554D01*
X11Y1553D02*
X11Y1553D01*
X2642Y1553D02*
X2643Y1553D01*
X11Y1552D02*
X11Y1552D01*
X2643Y1552D02*
X2644Y1552D01*
X11Y1551D02*
X11Y1551D01*
X2644Y1551D02*
X2645Y1551D01*
X11Y1550D02*
X11Y1550D01*
X2645Y1550D02*
X2646Y1550D01*
X11Y1549D02*
X11Y1549D01*
X2646Y1549D02*
X2647Y1549D01*
X11Y1548D02*
X11Y1548D01*
X2647Y1548D02*
X2648Y1548D01*
X11Y1547D02*
X11Y1547D01*
X2648Y1547D02*
X2649Y1547D01*
X11Y1546D02*
X11Y1546D01*
X2649Y1546D02*
X2650Y1546D01*
X11Y1545D02*
X11Y1545D01*
X2650Y1545D02*
X2651Y1545D01*
X11Y1544D02*
X11Y1544D01*
X2651Y1544D02*
X2652Y1544D01*
X11Y1543D02*
X11Y1543D01*
X2652Y1543D02*
X2653Y1543D01*
X11Y1542D02*
X11Y1542D01*
X2653Y1542D02*
X2654Y1542D01*
X11Y1541D02*
X11Y1541D01*
X2654Y1541D02*
X2655Y1541D01*
X11Y1540D02*
X11Y1540D01*
X2655Y1540D02*
X2656Y1540D01*
X11Y1539D02*
X11Y1539D01*
X2656Y1539D02*
X2657Y1539D01*
X11Y1538D02*
X11Y1538D01*
X2657Y1538D02*
X2658Y1538D01*
X11Y1537D02*
X11Y1537D01*
X2658Y1537D02*
X2659Y1537D01*
X11Y1536D02*
X11Y1536D01*
X2659Y1536D02*
X2660Y1536D01*
X11Y1535D02*
X11Y1535D01*
X2660Y1535D02*
X2661Y1535D01*
X11Y1534D02*
X11Y1534D01*
X2661Y1534D02*
X2662Y1534D01*
X11Y1533D02*
X11Y1533D01*
X2662Y1533D02*
X2663Y1533D01*
X11Y1532D02*
X11Y1532D01*
X2663Y1532D02*
X2664Y1532D01*
X11Y1531D02*
X11Y1531D01*
X2664Y1531D02*
X2665Y1531D01*
X11Y1530D02*
X11Y1530D01*
X2665Y1530D02*
X2666Y1530D01*
X11Y1529D02*
X11Y1529D01*
X2666Y1529D02*
X2667Y1529D01*
X11Y1528D02*
X11Y1528D01*
X2667Y1528D02*
X2668Y1528D01*
X11Y1527D02*
X11Y1527D01*
X2668Y1527D02*
X2669Y1527D01*
X11Y1526D02*
X11Y1526D01*
X2669Y1526D02*
X2670Y1526D01*
X11Y1525D02*
X11Y1525D01*
X2670Y1525D02*
X2671Y1525D01*
X11Y1524D02*
X11Y1524D01*
X2671Y1524D02*
X2672Y1524D01*
X11Y1523D02*
X11Y1523D01*
X2672Y1523D02*
X2673Y1523D01*
X11Y1522D02*
X11Y1522D01*
X2673Y1522D02*
X2674Y1522D01*
X11Y1521D02*
X11Y1521D01*
X2674Y1521D02*
X2675Y1521D01*
X11Y1520D02*
X11Y1520D01*
X2675Y1520D02*
X2676Y1520D01*
X11Y1519D02*
X11Y1519D01*
X2676Y1519D02*
X2677Y1519D01*
X11Y1518D02*
X11Y1518D01*
X2677Y1518D02*
X2678Y1518D01*
X11Y1517D02*
X11Y1517D01*
X2678Y1517D02*
X2679Y1517D01*
X11Y1516D02*
X11Y1516D01*
X2679Y1516D02*
X2680Y1516D01*
X11Y1515D02*
X11Y1515D01*
X2680Y1515D02*
X2681Y1515D01*
X11Y1514D02*
X11Y1514D01*
X2681Y1514D02*
X2682Y1514D01*
X11Y1513D02*
X11Y1513D01*
X2682Y1513D02*
X2683Y1513D01*
X11Y1512D02*
X11Y1512D01*
X2683Y1512D02*
X2684Y1512D01*
X11Y1511D02*
X11Y1511D01*
X2684Y1511D02*
X2685Y1511D01*
X11Y1510D02*
X11Y1510D01*
X2685Y1510D02*
X2686Y1510D01*
X11Y1509D02*
X11Y1509D01*
X2686Y1509D02*
X2687Y1509D01*
X11Y1508D02*
X11Y1508D01*
X2687Y1508D02*
X2688Y1508D01*
X11Y1507D02*
X11Y1507D01*
X2688Y1507D02*
X2689Y1507D01*
X11Y1506D02*
X11Y1506D01*
X2689Y1506D02*
X2690Y1506D01*
X11Y1505D02*
X11Y1505D01*
X2690Y1505D02*
X2691Y1505D01*
X11Y1504D02*
X11Y1504D01*
X2691Y1504D02*
X2692Y1504D01*
X11Y1503D02*
X11Y1503D01*
X2692Y1503D02*
X2693Y1503D01*
X11Y1502D02*
X11Y1502D01*
X2693Y1502D02*
X2694Y1502D01*
X11Y1501D02*
X11Y1501D01*
X2694Y1501D02*
X2695Y1501D01*
X11Y1500D02*
X11Y1500D01*
X2695Y1500D02*
X2696Y1500D01*
X11Y1499D02*
X11Y1499D01*
X2696Y1499D02*
X2697Y1499D01*
X11Y1498D02*
X11Y1498D01*
X2697Y1498D02*
X2698Y1498D01*
X11Y1497D02*
X11Y1497D01*
X2698Y1497D02*
X2699Y1497D01*
X11Y1496D02*
X11Y1496D01*
X2699Y1496D02*
X2700Y1496D01*
X11Y1495D02*
X11Y1495D01*
X2700Y1495D02*
X2701Y1495D01*
X11Y1494D02*
X11Y1494D01*
X2701Y1494D02*
X2702Y1494D01*
X11Y1493D02*
X11Y1493D01*
X2702Y1493D02*
X2703Y1493D01*
X11Y1492D02*
X11Y1492D01*
X2703Y1492D02*
X2703Y1492D01*
X11Y1491D02*
X11Y1491D01*
X2703Y1491D02*
X2703Y1491D01*
X11Y1490D02*
X11Y1490D01*
X2703Y1490D02*
X2703Y1490D01*
X11Y1489D02*
X11Y1489D01*
X2703Y1489D02*
X2703Y1489D01*
X11Y1488D02*
X11Y1488D01*
X2703Y1488D02*
X2703Y1488D01*
X11Y1487D02*
X11Y1487D01*
X2703Y1487D02*
X2703Y1487D01*
X11Y1486D02*
X11Y1486D01*
X2703Y1486D02*
X2703Y1486D01*
X11Y1485D02*
X11Y1485D01*
X2703Y1485D02*
X2703Y1485D01*
X11Y1484D02*
X11Y1484D01*
X2703Y1484D02*
X2703Y1484D01*
X11Y1483D02*
X11Y1483D01*
X2703Y1483D02*
X2703Y1483D01*
X11Y1482D02*
X11Y1482D01*
X2703Y1482D02*
X2703Y1482D01*
X11Y1481D02*
X11Y1481D01*
X2703Y1481D02*
X2703Y1481D01*
X11Y1480D02*
X11Y1480D01*
X2703Y1480D02*
X2703Y1480D01*
X11Y1479D02*
X11Y1479D01*
X2703Y1479D02*
X2703Y1479D01*
X11Y1478D02*
X11Y1478D01*
X2703Y1478D02*
X2703Y1478D01*
X11Y1477D02*
X11Y1477D01*
X2703Y1477D02*
X2703Y1477D01*
X11Y1476D02*
X11Y1476D01*
X2703Y1476D02*
X2703Y1476D01*
X11Y1475D02*
X11Y1475D01*
X2703Y1475D02*
X2703Y1475D01*
X11Y1474D02*
X11Y1474D01*
X2703Y1474D02*
X2703Y1474D01*
X11Y1473D02*
X11Y1473D01*
X2703Y1473D02*
X2703Y1473D01*
X11Y1472D02*
X11Y1472D01*
X2703Y1472D02*
X2703Y1472D01*
X11Y1471D02*
X11Y1471D01*
X2703Y1471D02*
X2703Y1471D01*
X11Y1470D02*
X11Y1470D01*
X2703Y1470D02*
X2703Y1470D01*
X11Y1469D02*
X11Y1469D01*
X2703Y1469D02*
X2703Y1469D01*
X11Y1468D02*
X11Y1468D01*
X2703Y1468D02*
X2703Y1468D01*
X11Y1467D02*
X11Y1467D01*
X2703Y1467D02*
X2703Y1467D01*
X11Y1466D02*
X11Y1466D01*
X2703Y1466D02*
X2703Y1466D01*
X11Y1465D02*
X11Y1465D01*
X2703Y1465D02*
X2703Y1465D01*
X11Y1464D02*
X11Y1464D01*
X2703Y1464D02*
X2703Y1464D01*
X11Y1463D02*
X11Y1463D01*
X2703Y1463D02*
X2703Y1463D01*
X11Y1462D02*
X11Y1462D01*
X2703Y1462D02*
X2703Y1462D01*
X11Y1461D02*
X11Y1461D01*
X2703Y1461D02*
X2703Y1461D01*
X11Y1460D02*
X11Y1460D01*
X2703Y1460D02*
X2703Y1460D01*
X11Y1459D02*
X11Y1459D01*
X2703Y1459D02*
X2703Y1459D01*
X11Y1458D02*
X11Y1458D01*
X2703Y1458D02*
X2703Y1458D01*
X11Y1457D02*
X11Y1457D01*
X2703Y1457D02*
X2703Y1457D01*
X11Y1456D02*
X11Y1456D01*
X2703Y1456D02*
X2703Y1456D01*
X11Y1455D02*
X11Y1455D01*
X2703Y1455D02*
X2703Y1455D01*
X11Y1454D02*
X11Y1454D01*
X2703Y1454D02*
X2703Y1454D01*
X11Y1453D02*
X11Y1453D01*
X2703Y1453D02*
X2703Y1453D01*
X11Y1452D02*
X11Y1452D01*
X2703Y1452D02*
X2703Y1452D01*
X11Y1451D02*
X11Y1451D01*
X2703Y1451D02*
X2703Y1451D01*
X11Y1450D02*
X11Y1450D01*
X2703Y1450D02*
X2703Y1450D01*
X11Y1449D02*
X11Y1449D01*
X2703Y1449D02*
X2703Y1449D01*
X11Y1448D02*
X11Y1448D01*
X2703Y1448D02*
X2703Y1448D01*
X11Y1447D02*
X11Y1447D01*
X2703Y1447D02*
X2703Y1447D01*
X11Y1446D02*
X11Y1446D01*
X2703Y1446D02*
X2703Y1446D01*
X11Y1445D02*
X11Y1445D01*
X2703Y1445D02*
X2703Y1445D01*
X11Y1444D02*
X11Y1444D01*
X2703Y1444D02*
X2703Y1444D01*
X11Y1443D02*
X11Y1443D01*
X2703Y1443D02*
X2703Y1443D01*
X11Y1442D02*
X11Y1442D01*
X2703Y1442D02*
X2703Y1442D01*
X11Y1441D02*
X11Y1441D01*
X2703Y1441D02*
X2703Y1441D01*
X11Y1440D02*
X11Y1440D01*
X2703Y1440D02*
X2703Y1440D01*
X11Y1439D02*
X11Y1439D01*
X2703Y1439D02*
X2703Y1439D01*
X11Y1438D02*
X11Y1438D01*
X2703Y1438D02*
X2703Y1438D01*
X11Y1437D02*
X11Y1437D01*
X2703Y1437D02*
X2703Y1437D01*
X11Y1436D02*
X11Y1436D01*
X2703Y1436D02*
X2703Y1436D01*
X11Y1435D02*
X11Y1435D01*
X2703Y1435D02*
X2703Y1435D01*
X11Y1434D02*
X11Y1434D01*
X2703Y1434D02*
X2703Y1434D01*
X11Y1433D02*
X11Y1433D01*
X2703Y1433D02*
X2703Y1433D01*
X11Y1432D02*
X11Y1432D01*
X2703Y1432D02*
X2703Y1432D01*
X11Y1431D02*
X11Y1431D01*
X2703Y1431D02*
X2703Y1431D01*
X11Y1430D02*
X11Y1430D01*
X2703Y1430D02*
X2703Y1430D01*
X11Y1429D02*
X11Y1429D01*
X2703Y1429D02*
X2703Y1429D01*
X11Y1428D02*
X11Y1428D01*
X2703Y1428D02*
X2703Y1428D01*
X11Y1427D02*
X11Y1427D01*
X2703Y1427D02*
X2703Y1427D01*
X11Y1426D02*
X11Y1426D01*
X2703Y1426D02*
X2703Y1426D01*
X11Y1425D02*
X11Y1425D01*
X2703Y1425D02*
X2703Y1425D01*
X11Y1424D02*
X11Y1424D01*
X2703Y1424D02*
X2703Y1424D01*
X11Y1423D02*
X11Y1423D01*
X2703Y1423D02*
X2703Y1423D01*
X11Y1422D02*
X11Y1422D01*
X2703Y1422D02*
X2703Y1422D01*
X11Y1421D02*
X11Y1421D01*
X2703Y1421D02*
X2703Y1421D01*
X11Y1420D02*
X11Y1420D01*
X2703Y1420D02*
X2703Y1420D01*
X11Y1419D02*
X11Y1419D01*
X2703Y1419D02*
X2703Y1419D01*
X11Y1418D02*
X11Y1418D01*
X2703Y1418D02*
X2703Y1418D01*
X11Y1417D02*
X11Y1417D01*
X2703Y1417D02*
X2703Y1417D01*
X11Y1416D02*
X11Y1416D01*
X2703Y1416D02*
X2703Y1416D01*
X11Y1415D02*
X11Y1415D01*
X2703Y1415D02*
X2703Y1415D01*
X11Y1414D02*
X11Y1414D01*
X2703Y1414D02*
X2703Y1414D01*
X11Y1413D02*
X11Y1413D01*
X2703Y1413D02*
X2703Y1413D01*
X11Y1412D02*
X11Y1412D01*
X2703Y1412D02*
X2703Y1412D01*
X11Y1411D02*
X11Y1411D01*
X2703Y1411D02*
X2703Y1411D01*
X11Y1410D02*
X11Y1410D01*
X2703Y1410D02*
X2703Y1410D01*
X11Y1409D02*
X11Y1409D01*
X2703Y1409D02*
X2703Y1409D01*
X11Y1408D02*
X11Y1408D01*
X2703Y1408D02*
X2703Y1408D01*
X11Y1407D02*
X11Y1407D01*
X2703Y1407D02*
X2703Y1407D01*
X11Y1406D02*
X11Y1406D01*
X2703Y1406D02*
X2703Y1406D01*
X11Y1405D02*
X11Y1405D01*
X2703Y1405D02*
X2703Y1405D01*
X11Y1404D02*
X11Y1404D01*
X2703Y1404D02*
X2703Y1404D01*
X11Y1403D02*
X11Y1403D01*
X2703Y1403D02*
X2703Y1403D01*
X11Y1402D02*
X11Y1402D01*
X2703Y1402D02*
X2703Y1402D01*
X11Y1401D02*
X11Y1401D01*
X2703Y1401D02*
X2703Y1401D01*
X11Y1400D02*
X11Y1400D01*
X2703Y1400D02*
X2703Y1400D01*
X11Y1399D02*
X11Y1399D01*
X2703Y1399D02*
X2703Y1399D01*
X11Y1398D02*
X11Y1398D01*
X2703Y1398D02*
X2703Y1398D01*
X11Y1397D02*
X11Y1397D01*
X2703Y1397D02*
X2703Y1397D01*
X11Y1396D02*
X11Y1396D01*
X2703Y1396D02*
X2703Y1396D01*
X11Y1395D02*
X11Y1395D01*
X2703Y1395D02*
X2703Y1395D01*
X11Y1394D02*
X11Y1394D01*
X2703Y1394D02*
X2703Y1394D01*
X11Y1393D02*
X11Y1393D01*
X2703Y1393D02*
X2703Y1393D01*
X11Y1392D02*
X11Y1392D01*
X2703Y1392D02*
X2703Y1392D01*
X11Y1391D02*
X11Y1391D01*
X2703Y1391D02*
X2703Y1391D01*
X11Y1390D02*
X11Y1390D01*
X2703Y1390D02*
X2703Y1390D01*
X11Y1389D02*
X11Y1389D01*
X2703Y1389D02*
X2703Y1389D01*
X11Y1388D02*
X11Y1388D01*
X2703Y1388D02*
X2703Y1388D01*
X11Y1387D02*
X11Y1387D01*
X2703Y1387D02*
X2703Y1387D01*
X11Y1386D02*
X11Y1386D01*
X2703Y1386D02*
X2703Y1386D01*
X11Y1385D02*
X11Y1385D01*
X2703Y1385D02*
X2703Y1385D01*
X11Y1384D02*
X11Y1384D01*
X2703Y1384D02*
X2703Y1384D01*
X11Y1383D02*
X11Y1383D01*
X2703Y1383D02*
X2703Y1383D01*
X11Y1382D02*
X11Y1382D01*
X2703Y1382D02*
X2703Y1382D01*
X11Y1381D02*
X11Y1381D01*
X2703Y1381D02*
X2703Y1381D01*
X11Y1380D02*
X11Y1380D01*
X2703Y1380D02*
X2703Y1380D01*
X11Y1379D02*
X11Y1379D01*
X2703Y1379D02*
X2703Y1379D01*
X11Y1378D02*
X11Y1378D01*
X2703Y1378D02*
X2703Y1378D01*
X11Y1377D02*
X11Y1377D01*
X2703Y1377D02*
X2703Y1377D01*
X11Y1376D02*
X11Y1376D01*
X2703Y1376D02*
X2703Y1376D01*
X11Y1375D02*
X11Y1375D01*
X2703Y1375D02*
X2703Y1375D01*
X11Y1374D02*
X11Y1374D01*
X2703Y1374D02*
X2703Y1374D01*
X11Y1373D02*
X11Y1373D01*
X2703Y1373D02*
X2703Y1373D01*
X11Y1372D02*
X11Y1372D01*
X2703Y1372D02*
X2703Y1372D01*
X11Y1371D02*
X11Y1371D01*
X2703Y1371D02*
X2703Y1371D01*
X11Y1370D02*
X11Y1370D01*
X2703Y1370D02*
X2703Y1370D01*
X11Y1369D02*
X11Y1369D01*
X2703Y1369D02*
X2703Y1369D01*
X11Y1368D02*
X11Y1368D01*
X2703Y1368D02*
X2703Y1368D01*
X11Y1367D02*
X11Y1367D01*
X2703Y1367D02*
X2703Y1367D01*
X11Y1366D02*
X11Y1366D01*
X2703Y1366D02*
X2703Y1366D01*
X11Y1365D02*
X11Y1365D01*
X2703Y1365D02*
X2703Y1365D01*
X11Y1364D02*
X11Y1364D01*
X2703Y1364D02*
X2703Y1364D01*
X11Y1363D02*
X11Y1363D01*
X2703Y1363D02*
X2703Y1363D01*
X11Y1362D02*
X11Y1362D01*
X2703Y1362D02*
X2703Y1362D01*
X11Y1361D02*
X11Y1361D01*
X2703Y1361D02*
X2703Y1361D01*
X11Y1360D02*
X11Y1360D01*
X2703Y1360D02*
X2703Y1360D01*
X11Y1359D02*
X11Y1359D01*
X2703Y1359D02*
X2703Y1359D01*
X11Y1358D02*
X11Y1358D01*
X2703Y1358D02*
X2703Y1358D01*
X11Y1357D02*
X11Y1357D01*
X2703Y1357D02*
X2703Y1357D01*
X11Y1356D02*
X11Y1356D01*
X2703Y1356D02*
X2703Y1356D01*
X11Y1355D02*
X11Y1355D01*
X2703Y1355D02*
X2703Y1355D01*
X11Y1354D02*
X11Y1354D01*
X2703Y1354D02*
X2703Y1354D01*
X11Y1353D02*
X11Y1353D01*
X2703Y1353D02*
X2703Y1353D01*
X11Y1352D02*
X11Y1352D01*
X2703Y1352D02*
X2703Y1352D01*
X11Y1351D02*
X11Y1351D01*
X2703Y1351D02*
X2703Y1351D01*
X11Y1350D02*
X11Y1350D01*
X2703Y1350D02*
X2703Y1350D01*
X11Y1349D02*
X11Y1349D01*
X2703Y1349D02*
X2703Y1349D01*
X11Y1348D02*
X11Y1348D01*
X2703Y1348D02*
X2703Y1348D01*
X11Y1347D02*
X11Y1347D01*
X2703Y1347D02*
X2703Y1347D01*
X11Y1346D02*
X11Y1346D01*
X2703Y1346D02*
X2703Y1346D01*
X11Y1345D02*
X11Y1345D01*
X2703Y1345D02*
X2703Y1345D01*
X11Y1344D02*
X11Y1344D01*
X2703Y1344D02*
X2703Y1344D01*
X11Y1343D02*
X11Y1343D01*
X2703Y1343D02*
X2703Y1343D01*
X11Y1342D02*
X11Y1342D01*
X2703Y1342D02*
X2703Y1342D01*
X11Y1341D02*
X11Y1341D01*
X2703Y1341D02*
X2703Y1341D01*
X11Y1340D02*
X11Y1340D01*
X2703Y1340D02*
X2703Y1340D01*
X11Y1339D02*
X11Y1339D01*
X2703Y1339D02*
X2703Y1339D01*
X11Y1338D02*
X11Y1338D01*
X2703Y1338D02*
X2703Y1338D01*
X11Y1337D02*
X11Y1337D01*
X2703Y1337D02*
X2703Y1337D01*
X11Y1336D02*
X11Y1336D01*
X2703Y1336D02*
X2703Y1336D01*
X11Y1335D02*
X11Y1335D01*
X2703Y1335D02*
X2703Y1335D01*
X11Y1334D02*
X11Y1334D01*
X2703Y1334D02*
X2703Y1334D01*
X11Y1333D02*
X11Y1333D01*
X2703Y1333D02*
X2703Y1333D01*
X11Y1332D02*
X11Y1332D01*
X2703Y1332D02*
X2703Y1332D01*
X11Y1331D02*
X11Y1331D01*
X2703Y1331D02*
X2703Y1331D01*
X11Y1330D02*
X11Y1330D01*
X2703Y1330D02*
X2703Y1330D01*
X11Y1329D02*
X11Y1329D01*
X2703Y1329D02*
X2703Y1329D01*
X11Y1328D02*
X11Y1328D01*
X2703Y1328D02*
X2703Y1328D01*
X11Y1327D02*
X11Y1327D01*
X2703Y1327D02*
X2703Y1327D01*
X11Y1326D02*
X11Y1326D01*
X2703Y1326D02*
X2703Y1326D01*
X11Y1325D02*
X11Y1325D01*
X2703Y1325D02*
X2703Y1325D01*
X11Y1324D02*
X11Y1324D01*
X2703Y1324D02*
X2703Y1324D01*
X11Y1323D02*
X11Y1323D01*
X2703Y1323D02*
X2703Y1323D01*
X11Y1322D02*
X11Y1322D01*
X2703Y1322D02*
X2703Y1322D01*
X11Y1321D02*
X11Y1321D01*
X2703Y1321D02*
X2703Y1321D01*
X11Y1320D02*
X11Y1320D01*
X2703Y1320D02*
X2703Y1320D01*
X11Y1319D02*
X11Y1319D01*
X2703Y1319D02*
X2703Y1319D01*
X11Y1318D02*
X11Y1318D01*
X2703Y1318D02*
X2703Y1318D01*
X11Y1317D02*
X11Y1317D01*
X2703Y1317D02*
X2703Y1317D01*
X11Y1316D02*
X11Y1316D01*
X2703Y1316D02*
X2703Y1316D01*
X11Y1315D02*
X11Y1315D01*
X2703Y1315D02*
X2703Y1315D01*
X11Y1314D02*
X11Y1314D01*
X2703Y1314D02*
X2703Y1314D01*
X11Y1313D02*
X11Y1313D01*
X2703Y1313D02*
X2703Y1313D01*
X11Y1312D02*
X11Y1312D01*
X2703Y1312D02*
X2703Y1312D01*
X11Y1311D02*
X11Y1311D01*
X2703Y1311D02*
X2703Y1311D01*
X11Y1310D02*
X11Y1310D01*
X2703Y1310D02*
X2703Y1310D01*
X11Y1309D02*
X11Y1309D01*
X2703Y1309D02*
X2703Y1309D01*
X11Y1308D02*
X11Y1308D01*
X2703Y1308D02*
X2703Y1308D01*
X11Y1307D02*
X11Y1307D01*
X2703Y1307D02*
X2703Y1307D01*
X11Y1306D02*
X11Y1306D01*
X2703Y1306D02*
X2703Y1306D01*
X11Y1305D02*
X11Y1305D01*
X2703Y1305D02*
X2703Y1305D01*
X11Y1304D02*
X11Y1304D01*
X2703Y1304D02*
X2703Y1304D01*
X11Y1303D02*
X11Y1303D01*
X2703Y1303D02*
X2703Y1303D01*
X11Y1302D02*
X11Y1302D01*
X2703Y1302D02*
X2703Y1302D01*
X11Y1301D02*
X11Y1301D01*
X2703Y1301D02*
X2703Y1301D01*
X11Y1300D02*
X11Y1300D01*
X2703Y1300D02*
X2703Y1300D01*
X11Y1299D02*
X11Y1299D01*
X2703Y1299D02*
X2703Y1299D01*
X11Y1298D02*
X11Y1298D01*
X2703Y1298D02*
X2703Y1298D01*
X11Y1297D02*
X11Y1297D01*
X2703Y1297D02*
X2703Y1297D01*
X11Y1296D02*
X11Y1296D01*
X2703Y1296D02*
X2703Y1296D01*
X11Y1295D02*
X11Y1295D01*
X2703Y1295D02*
X2703Y1295D01*
X11Y1294D02*
X11Y1294D01*
X2703Y1294D02*
X2703Y1294D01*
X11Y1293D02*
X11Y1293D01*
X2703Y1293D02*
X2703Y1293D01*
X11Y1292D02*
X11Y1292D01*
X2703Y1292D02*
X2703Y1292D01*
X11Y1291D02*
X11Y1291D01*
X2703Y1291D02*
X2703Y1291D01*
X11Y1290D02*
X11Y1290D01*
X2703Y1290D02*
X2703Y1290D01*
X11Y1289D02*
X11Y1289D01*
X2703Y1289D02*
X2703Y1289D01*
X11Y1288D02*
X11Y1288D01*
X2703Y1288D02*
X2703Y1288D01*
X11Y1287D02*
X11Y1287D01*
X2703Y1287D02*
X2703Y1287D01*
X11Y1286D02*
X11Y1286D01*
X2703Y1286D02*
X2703Y1286D01*
X11Y1285D02*
X11Y1285D01*
X2703Y1285D02*
X2703Y1285D01*
X11Y1284D02*
X11Y1284D01*
X2703Y1284D02*
X2703Y1284D01*
X11Y1283D02*
X11Y1283D01*
X2703Y1283D02*
X2703Y1283D01*
X11Y1282D02*
X11Y1282D01*
X2703Y1282D02*
X2703Y1282D01*
X11Y1281D02*
X11Y1281D01*
X2703Y1281D02*
X2703Y1281D01*
X11Y1280D02*
X11Y1280D01*
X2703Y1280D02*
X2703Y1280D01*
X11Y1279D02*
X11Y1279D01*
X2703Y1279D02*
X2703Y1279D01*
X11Y1278D02*
X11Y1278D01*
X2703Y1278D02*
X2703Y1278D01*
X11Y1277D02*
X11Y1277D01*
X2703Y1277D02*
X2703Y1277D01*
X11Y1276D02*
X11Y1276D01*
X2703Y1276D02*
X2703Y1276D01*
X11Y1275D02*
X11Y1275D01*
X2703Y1275D02*
X2703Y1275D01*
X11Y1274D02*
X11Y1274D01*
X2703Y1274D02*
X2703Y1274D01*
X11Y1273D02*
X11Y1273D01*
X2703Y1273D02*
X2703Y1273D01*
X11Y1272D02*
X11Y1272D01*
X2703Y1272D02*
X2703Y1272D01*
X11Y1271D02*
X11Y1271D01*
X2703Y1271D02*
X2703Y1271D01*
X11Y1270D02*
X11Y1270D01*
X2703Y1270D02*
X2703Y1270D01*
X11Y1269D02*
X11Y1269D01*
X2703Y1269D02*
X2703Y1269D01*
X11Y1268D02*
X11Y1268D01*
X2703Y1268D02*
X2703Y1268D01*
X11Y1267D02*
X11Y1267D01*
X2703Y1267D02*
X2703Y1267D01*
X11Y1266D02*
X11Y1266D01*
X2703Y1266D02*
X2703Y1266D01*
X11Y1265D02*
X11Y1265D01*
X2703Y1265D02*
X2703Y1265D01*
X11Y1264D02*
X11Y1264D01*
X2703Y1264D02*
X2703Y1264D01*
X11Y1263D02*
X11Y1263D01*
X2703Y1263D02*
X2703Y1263D01*
X11Y1262D02*
X11Y1262D01*
X2703Y1262D02*
X2703Y1262D01*
X11Y1261D02*
X11Y1261D01*
X2703Y1261D02*
X2703Y1261D01*
X11Y1260D02*
X11Y1260D01*
X2703Y1260D02*
X2703Y1260D01*
X11Y1259D02*
X11Y1259D01*
X2703Y1259D02*
X2703Y1259D01*
X11Y1258D02*
X11Y1258D01*
X2703Y1258D02*
X2703Y1258D01*
X11Y1257D02*
X11Y1257D01*
X2703Y1257D02*
X2703Y1257D01*
X11Y1256D02*
X11Y1256D01*
X2703Y1256D02*
X2703Y1256D01*
X11Y1255D02*
X11Y1255D01*
X2703Y1255D02*
X2703Y1255D01*
X11Y1254D02*
X11Y1254D01*
X2703Y1254D02*
X2703Y1254D01*
X11Y1253D02*
X11Y1253D01*
X2703Y1253D02*
X2703Y1253D01*
X11Y1252D02*
X11Y1252D01*
X2703Y1252D02*
X2703Y1252D01*
X11Y1251D02*
X11Y1251D01*
X2703Y1251D02*
X2703Y1251D01*
X11Y1250D02*
X11Y1250D01*
X2703Y1250D02*
X2703Y1250D01*
X11Y1249D02*
X11Y1249D01*
X2703Y1249D02*
X2703Y1249D01*
X11Y1248D02*
X11Y1248D01*
X2703Y1248D02*
X2703Y1248D01*
X11Y1247D02*
X11Y1247D01*
X2703Y1247D02*
X2703Y1247D01*
X11Y1246D02*
X11Y1246D01*
X2703Y1246D02*
X2703Y1246D01*
X11Y1245D02*
X11Y1245D01*
X2703Y1245D02*
X2703Y1245D01*
X11Y1244D02*
X11Y1244D01*
X2703Y1244D02*
X2703Y1244D01*
X11Y1243D02*
X11Y1243D01*
X2703Y1243D02*
X2703Y1243D01*
X11Y1242D02*
X11Y1242D01*
X2703Y1242D02*
X2703Y1242D01*
X11Y1241D02*
X11Y1241D01*
X2703Y1241D02*
X2703Y1241D01*
X11Y1240D02*
X11Y1240D01*
X2703Y1240D02*
X2703Y1240D01*
X11Y1239D02*
X11Y1239D01*
X2703Y1239D02*
X2703Y1239D01*
X11Y1238D02*
X11Y1238D01*
X2703Y1238D02*
X2703Y1238D01*
X11Y1237D02*
X11Y1237D01*
X2703Y1237D02*
X2703Y1237D01*
X11Y1236D02*
X11Y1236D01*
X2703Y1236D02*
X2703Y1236D01*
X11Y1235D02*
X11Y1235D01*
X2703Y1235D02*
X2703Y1235D01*
X11Y1234D02*
X11Y1234D01*
X2703Y1234D02*
X2703Y1234D01*
X11Y1233D02*
X11Y1233D01*
X2703Y1233D02*
X2703Y1233D01*
X11Y1232D02*
X11Y1232D01*
X2703Y1232D02*
X2703Y1232D01*
X11Y1231D02*
X11Y1231D01*
X2703Y1231D02*
X2703Y1231D01*
X11Y1230D02*
X11Y1230D01*
X2703Y1230D02*
X2703Y1230D01*
X11Y1229D02*
X11Y1229D01*
X2703Y1229D02*
X2703Y1229D01*
X11Y1228D02*
X11Y1228D01*
X2703Y1228D02*
X2703Y1228D01*
X11Y1227D02*
X11Y1227D01*
X2703Y1227D02*
X2703Y1227D01*
X11Y1226D02*
X11Y1226D01*
X2703Y1226D02*
X2703Y1226D01*
X11Y1225D02*
X11Y1225D01*
X2703Y1225D02*
X2703Y1225D01*
X11Y1224D02*
X11Y1224D01*
X2703Y1224D02*
X2703Y1224D01*
X11Y1223D02*
X11Y1223D01*
X2703Y1223D02*
X2703Y1223D01*
X11Y1222D02*
X11Y1222D01*
X2703Y1222D02*
X2703Y1222D01*
X11Y1221D02*
X11Y1221D01*
X2703Y1221D02*
X2703Y1221D01*
X11Y1220D02*
X11Y1220D01*
X2703Y1220D02*
X2703Y1220D01*
X11Y1219D02*
X11Y1219D01*
X2703Y1219D02*
X2703Y1219D01*
X11Y1218D02*
X11Y1218D01*
X2703Y1218D02*
X2703Y1218D01*
X11Y1217D02*
X11Y1217D01*
X2703Y1217D02*
X2703Y1217D01*
X11Y1216D02*
X11Y1216D01*
X2703Y1216D02*
X2703Y1216D01*
X11Y1215D02*
X11Y1215D01*
X2703Y1215D02*
X2703Y1215D01*
X11Y1214D02*
X11Y1214D01*
X2703Y1214D02*
X2703Y1214D01*
X11Y1213D02*
X11Y1213D01*
X2703Y1213D02*
X2703Y1213D01*
X11Y1212D02*
X11Y1212D01*
X2703Y1212D02*
X2703Y1212D01*
X11Y1211D02*
X11Y1211D01*
X2703Y1211D02*
X2703Y1211D01*
X11Y1210D02*
X11Y1210D01*
X2703Y1210D02*
X2703Y1210D01*
X11Y1209D02*
X11Y1209D01*
X2703Y1209D02*
X2703Y1209D01*
X11Y1208D02*
X11Y1208D01*
X2703Y1208D02*
X2703Y1208D01*
X11Y1207D02*
X11Y1207D01*
X2703Y1207D02*
X2703Y1207D01*
X11Y1206D02*
X11Y1206D01*
X2703Y1206D02*
X2703Y1206D01*
X11Y1205D02*
X11Y1205D01*
X2703Y1205D02*
X2703Y1205D01*
X11Y1204D02*
X11Y1204D01*
X2703Y1204D02*
X2703Y1204D01*
X11Y1203D02*
X11Y1203D01*
X2703Y1203D02*
X2703Y1203D01*
X11Y1202D02*
X11Y1202D01*
X2703Y1202D02*
X2703Y1202D01*
X11Y1201D02*
X11Y1201D01*
X2703Y1201D02*
X2703Y1201D01*
X11Y1200D02*
X11Y1200D01*
X2703Y1200D02*
X2703Y1200D01*
X11Y1199D02*
X11Y1199D01*
X2703Y1199D02*
X2703Y1199D01*
X11Y1198D02*
X11Y1198D01*
X2703Y1198D02*
X2703Y1198D01*
X11Y1197D02*
X11Y1197D01*
X2703Y1197D02*
X2703Y1197D01*
X11Y1196D02*
X11Y1196D01*
X2703Y1196D02*
X2703Y1196D01*
X11Y1195D02*
X11Y1195D01*
X2703Y1195D02*
X2703Y1195D01*
X11Y1194D02*
X11Y1194D01*
X2703Y1194D02*
X2703Y1194D01*
X11Y1193D02*
X11Y1193D01*
X2703Y1193D02*
X2703Y1193D01*
X11Y1192D02*
X11Y1192D01*
X2703Y1192D02*
X2703Y1192D01*
X11Y1191D02*
X11Y1191D01*
X2703Y1191D02*
X2703Y1191D01*
X11Y1190D02*
X11Y1190D01*
X2703Y1190D02*
X2703Y1190D01*
X11Y1189D02*
X11Y1189D01*
X2703Y1189D02*
X2703Y1189D01*
X11Y1188D02*
X11Y1188D01*
X2703Y1188D02*
X2703Y1188D01*
X11Y1187D02*
X11Y1187D01*
X2703Y1187D02*
X2703Y1187D01*
X11Y1186D02*
X11Y1186D01*
X2703Y1186D02*
X2703Y1186D01*
X11Y1185D02*
X11Y1185D01*
X2703Y1185D02*
X2703Y1185D01*
X11Y1184D02*
X11Y1184D01*
X2703Y1184D02*
X2703Y1184D01*
X11Y1183D02*
X11Y1183D01*
X2703Y1183D02*
X2703Y1183D01*
X11Y1182D02*
X11Y1182D01*
X2703Y1182D02*
X2703Y1182D01*
X11Y1181D02*
X11Y1181D01*
X2703Y1181D02*
X2703Y1181D01*
X11Y1180D02*
X11Y1180D01*
X2703Y1180D02*
X2703Y1180D01*
X11Y1179D02*
X11Y1179D01*
X2703Y1179D02*
X2703Y1179D01*
X11Y1178D02*
X11Y1178D01*
X2703Y1178D02*
X2703Y1178D01*
X11Y1177D02*
X11Y1177D01*
X2703Y1177D02*
X2703Y1177D01*
X11Y1176D02*
X11Y1176D01*
X2703Y1176D02*
X2703Y1176D01*
X11Y1175D02*
X11Y1175D01*
X2703Y1175D02*
X2703Y1175D01*
X11Y1174D02*
X11Y1174D01*
X2703Y1174D02*
X2703Y1174D01*
X11Y1173D02*
X11Y1173D01*
X2703Y1173D02*
X2703Y1173D01*
X11Y1172D02*
X11Y1172D01*
X2703Y1172D02*
X2703Y1172D01*
X11Y1171D02*
X11Y1171D01*
X2703Y1171D02*
X2703Y1171D01*
X11Y1170D02*
X11Y1170D01*
X2703Y1170D02*
X2703Y1170D01*
X11Y1169D02*
X11Y1169D01*
X2703Y1169D02*
X2703Y1169D01*
X11Y1168D02*
X11Y1168D01*
X2703Y1168D02*
X2703Y1168D01*
X11Y1167D02*
X11Y1167D01*
X2703Y1167D02*
X2703Y1167D01*
X11Y1166D02*
X11Y1166D01*
X2703Y1166D02*
X2703Y1166D01*
X11Y1165D02*
X11Y1165D01*
X2703Y1165D02*
X2703Y1165D01*
X11Y1164D02*
X11Y1164D01*
X2703Y1164D02*
X2703Y1164D01*
X11Y1163D02*
X11Y1163D01*
X2703Y1163D02*
X2703Y1163D01*
X11Y1162D02*
X11Y1162D01*
X2703Y1162D02*
X2703Y1162D01*
X11Y1161D02*
X11Y1161D01*
X2703Y1161D02*
X2703Y1161D01*
X11Y1160D02*
X11Y1160D01*
X2703Y1160D02*
X2703Y1160D01*
X11Y1159D02*
X11Y1159D01*
X2703Y1159D02*
X2703Y1159D01*
X11Y1158D02*
X11Y1158D01*
X2703Y1158D02*
X2703Y1158D01*
X11Y1157D02*
X11Y1157D01*
X2703Y1157D02*
X2703Y1157D01*
X11Y1156D02*
X11Y1156D01*
X2703Y1156D02*
X2703Y1156D01*
X11Y1155D02*
X11Y1155D01*
X2703Y1155D02*
X2703Y1155D01*
X11Y1154D02*
X11Y1154D01*
X2703Y1154D02*
X2703Y1154D01*
X11Y1153D02*
X11Y1153D01*
X2703Y1153D02*
X2703Y1153D01*
X11Y1152D02*
X11Y1152D01*
X2703Y1152D02*
X2703Y1152D01*
X11Y1151D02*
X11Y1151D01*
X2703Y1151D02*
X2703Y1151D01*
X11Y1150D02*
X11Y1150D01*
X2703Y1150D02*
X2703Y1150D01*
X11Y1149D02*
X11Y1149D01*
X2703Y1149D02*
X2703Y1149D01*
X11Y1148D02*
X11Y1148D01*
X2703Y1148D02*
X2703Y1148D01*
X11Y1147D02*
X11Y1147D01*
X2703Y1147D02*
X2703Y1147D01*
X11Y1146D02*
X11Y1146D01*
X2703Y1146D02*
X2703Y1146D01*
X11Y1145D02*
X11Y1145D01*
X2703Y1145D02*
X2703Y1145D01*
X11Y1144D02*
X11Y1144D01*
X2703Y1144D02*
X2703Y1144D01*
X11Y1143D02*
X11Y1143D01*
X2703Y1143D02*
X2703Y1143D01*
X11Y1142D02*
X11Y1142D01*
X2703Y1142D02*
X2703Y1142D01*
X11Y1141D02*
X11Y1141D01*
X2703Y1141D02*
X2703Y1141D01*
X11Y1140D02*
X11Y1140D01*
X2703Y1140D02*
X2703Y1140D01*
X11Y1139D02*
X11Y1139D01*
X2703Y1139D02*
X2703Y1139D01*
X11Y1138D02*
X11Y1138D01*
X2703Y1138D02*
X2703Y1138D01*
X11Y1137D02*
X11Y1137D01*
X2703Y1137D02*
X2703Y1137D01*
X11Y1136D02*
X11Y1136D01*
X2703Y1136D02*
X2703Y1136D01*
X11Y1135D02*
X11Y1135D01*
X2703Y1135D02*
X2703Y1135D01*
X11Y1134D02*
X11Y1134D01*
X2703Y1134D02*
X2703Y1134D01*
X11Y1133D02*
X11Y1133D01*
X2703Y1133D02*
X2703Y1133D01*
X11Y1132D02*
X11Y1132D01*
X2703Y1132D02*
X2703Y1132D01*
X11Y1131D02*
X11Y1131D01*
X2703Y1131D02*
X2703Y1131D01*
X11Y1130D02*
X11Y1130D01*
X2703Y1130D02*
X2703Y1130D01*
X11Y1129D02*
X11Y1129D01*
X2703Y1129D02*
X2703Y1129D01*
X11Y1128D02*
X11Y1128D01*
X2703Y1128D02*
X2703Y1128D01*
X11Y1127D02*
X11Y1127D01*
X2703Y1127D02*
X2703Y1127D01*
X11Y1126D02*
X11Y1126D01*
X2703Y1126D02*
X2703Y1126D01*
X11Y1125D02*
X11Y1125D01*
X2703Y1125D02*
X2703Y1125D01*
X11Y1124D02*
X11Y1124D01*
X2703Y1124D02*
X2703Y1124D01*
X11Y1123D02*
X11Y1123D01*
X2703Y1123D02*
X2703Y1123D01*
X11Y1122D02*
X11Y1122D01*
X2703Y1122D02*
X2703Y1122D01*
X11Y1121D02*
X11Y1121D01*
X2703Y1121D02*
X2703Y1121D01*
X11Y1120D02*
X11Y1120D01*
X2703Y1120D02*
X2703Y1120D01*
X11Y1119D02*
X11Y1119D01*
X2703Y1119D02*
X2703Y1119D01*
X11Y1118D02*
X11Y1118D01*
X2703Y1118D02*
X2703Y1118D01*
X11Y1117D02*
X11Y1117D01*
X2703Y1117D02*
X2703Y1117D01*
X11Y1116D02*
X11Y1116D01*
X2703Y1116D02*
X2703Y1116D01*
X11Y1115D02*
X11Y1115D01*
X2703Y1115D02*
X2703Y1115D01*
X11Y1114D02*
X11Y1114D01*
X2703Y1114D02*
X2703Y1114D01*
X11Y1113D02*
X11Y1113D01*
X2703Y1113D02*
X2703Y1113D01*
X11Y1112D02*
X11Y1112D01*
X2703Y1112D02*
X2703Y1112D01*
X11Y1111D02*
X11Y1111D01*
X2703Y1111D02*
X2703Y1111D01*
X11Y1110D02*
X11Y1110D01*
X2703Y1110D02*
X2703Y1110D01*
X11Y1109D02*
X11Y1109D01*
X2703Y1109D02*
X2703Y1109D01*
X11Y1108D02*
X11Y1108D01*
X2703Y1108D02*
X2703Y1108D01*
X11Y1107D02*
X11Y1107D01*
X2703Y1107D02*
X2703Y1107D01*
X11Y1106D02*
X11Y1106D01*
X2703Y1106D02*
X2703Y1106D01*
X11Y1105D02*
X11Y1105D01*
X2703Y1105D02*
X2703Y1105D01*
X11Y1104D02*
X11Y1104D01*
X2703Y1104D02*
X2703Y1104D01*
X11Y1103D02*
X11Y1103D01*
X2703Y1103D02*
X2703Y1103D01*
X11Y1102D02*
X11Y1102D01*
X2703Y1102D02*
X2703Y1102D01*
X11Y1101D02*
X11Y1101D01*
X2703Y1101D02*
X2703Y1101D01*
X11Y1100D02*
X11Y1100D01*
X2703Y1100D02*
X2703Y1100D01*
X11Y1099D02*
X11Y1099D01*
X2703Y1099D02*
X2703Y1099D01*
X11Y1098D02*
X11Y1098D01*
X2703Y1098D02*
X2703Y1098D01*
X11Y1097D02*
X11Y1097D01*
X2703Y1097D02*
X2703Y1097D01*
X11Y1096D02*
X11Y1096D01*
X2703Y1096D02*
X2703Y1096D01*
X11Y1095D02*
X11Y1095D01*
X2703Y1095D02*
X2703Y1095D01*
X11Y1094D02*
X11Y1094D01*
X2703Y1094D02*
X2703Y1094D01*
X11Y1093D02*
X11Y1093D01*
X2703Y1093D02*
X2703Y1093D01*
X11Y1092D02*
X11Y1092D01*
X2703Y1092D02*
X2703Y1092D01*
X11Y1091D02*
X11Y1091D01*
X2703Y1091D02*
X2703Y1091D01*
X11Y1090D02*
X11Y1090D01*
X2703Y1090D02*
X2703Y1090D01*
X11Y1089D02*
X11Y1089D01*
X2703Y1089D02*
X2703Y1089D01*
X11Y1088D02*
X11Y1088D01*
X2703Y1088D02*
X2703Y1088D01*
X11Y1087D02*
X11Y1087D01*
X2703Y1087D02*
X2703Y1087D01*
X11Y1086D02*
X11Y1086D01*
X2703Y1086D02*
X2703Y1086D01*
X11Y1085D02*
X11Y1085D01*
X2703Y1085D02*
X2703Y1085D01*
X11Y1084D02*
X11Y1084D01*
X2703Y1084D02*
X2703Y1084D01*
X11Y1083D02*
X11Y1083D01*
X2703Y1083D02*
X2703Y1083D01*
X11Y1082D02*
X11Y1082D01*
X2703Y1082D02*
X2703Y1082D01*
X11Y1081D02*
X11Y1081D01*
X2703Y1081D02*
X2703Y1081D01*
X11Y1080D02*
X11Y1080D01*
X2703Y1080D02*
X2703Y1080D01*
X11Y1079D02*
X11Y1079D01*
X2703Y1079D02*
X2703Y1079D01*
X11Y1078D02*
X11Y1078D01*
X2703Y1078D02*
X2703Y1078D01*
X11Y1077D02*
X11Y1077D01*
X2703Y1077D02*
X2703Y1077D01*
X11Y1076D02*
X11Y1076D01*
X2703Y1076D02*
X2703Y1076D01*
X11Y1075D02*
X11Y1075D01*
X2703Y1075D02*
X2703Y1075D01*
X11Y1074D02*
X11Y1074D01*
X2703Y1074D02*
X2703Y1074D01*
X11Y1073D02*
X11Y1073D01*
X2703Y1073D02*
X2703Y1073D01*
X11Y1072D02*
X11Y1072D01*
X2703Y1072D02*
X2703Y1072D01*
X11Y1071D02*
X11Y1071D01*
X2703Y1071D02*
X2703Y1071D01*
X11Y1070D02*
X11Y1070D01*
X2703Y1070D02*
X2703Y1070D01*
X11Y1069D02*
X11Y1069D01*
X2703Y1069D02*
X2703Y1069D01*
X11Y1068D02*
X11Y1068D01*
X2703Y1068D02*
X2703Y1068D01*
X11Y1067D02*
X11Y1067D01*
X2703Y1067D02*
X2703Y1067D01*
X11Y1066D02*
X11Y1066D01*
X2703Y1066D02*
X2703Y1066D01*
X11Y1065D02*
X11Y1065D01*
X2703Y1065D02*
X2703Y1065D01*
X11Y1064D02*
X11Y1064D01*
X2703Y1064D02*
X2703Y1064D01*
X11Y1063D02*
X11Y1063D01*
X2703Y1063D02*
X2703Y1063D01*
X11Y1062D02*
X11Y1062D01*
X2703Y1062D02*
X2703Y1062D01*
X11Y1061D02*
X11Y1061D01*
X2703Y1061D02*
X2703Y1061D01*
X11Y1060D02*
X11Y1060D01*
X2703Y1060D02*
X2703Y1060D01*
X11Y1059D02*
X11Y1059D01*
X2703Y1059D02*
X2703Y1059D01*
X11Y1058D02*
X11Y1058D01*
X2703Y1058D02*
X2703Y1058D01*
X11Y1057D02*
X11Y1057D01*
X2703Y1057D02*
X2703Y1057D01*
X11Y1056D02*
X11Y1056D01*
X2703Y1056D02*
X2703Y1056D01*
X11Y1055D02*
X11Y1055D01*
X2703Y1055D02*
X2703Y1055D01*
X11Y1054D02*
X11Y1054D01*
X2703Y1054D02*
X2703Y1054D01*
X11Y1053D02*
X11Y1053D01*
X2703Y1053D02*
X2703Y1053D01*
X11Y1052D02*
X11Y1052D01*
X2703Y1052D02*
X2703Y1052D01*
X11Y1051D02*
X11Y1051D01*
X2703Y1051D02*
X2703Y1051D01*
X11Y1050D02*
X11Y1050D01*
X2703Y1050D02*
X2703Y1050D01*
X11Y1049D02*
X11Y1049D01*
X2703Y1049D02*
X2703Y1049D01*
X11Y1048D02*
X11Y1048D01*
X2703Y1048D02*
X2703Y1048D01*
X11Y1047D02*
X11Y1047D01*
X2703Y1047D02*
X2703Y1047D01*
X11Y1046D02*
X11Y1046D01*
X2703Y1046D02*
X2703Y1046D01*
X11Y1045D02*
X11Y1045D01*
X2703Y1045D02*
X2703Y1045D01*
X11Y1044D02*
X11Y1044D01*
X2703Y1044D02*
X2703Y1044D01*
X11Y1043D02*
X11Y1043D01*
X2703Y1043D02*
X2703Y1043D01*
X11Y1042D02*
X11Y1042D01*
X2703Y1042D02*
X2703Y1042D01*
X11Y1041D02*
X11Y1041D01*
X2703Y1041D02*
X2703Y1041D01*
X11Y1040D02*
X11Y1040D01*
X2703Y1040D02*
X2703Y1040D01*
X11Y1039D02*
X11Y1039D01*
X2703Y1039D02*
X2703Y1039D01*
X11Y1038D02*
X11Y1038D01*
X2703Y1038D02*
X2703Y1038D01*
X11Y1037D02*
X11Y1037D01*
X2703Y1037D02*
X2703Y1037D01*
X11Y1036D02*
X11Y1036D01*
X2703Y1036D02*
X2703Y1036D01*
X11Y1035D02*
X11Y1035D01*
X2703Y1035D02*
X2703Y1035D01*
X11Y1034D02*
X11Y1034D01*
X2703Y1034D02*
X2703Y1034D01*
X11Y1033D02*
X11Y1033D01*
X2703Y1033D02*
X2703Y1033D01*
X11Y1032D02*
X11Y1032D01*
X2703Y1032D02*
X2703Y1032D01*
X11Y1031D02*
X11Y1031D01*
X2703Y1031D02*
X2703Y1031D01*
X11Y1030D02*
X11Y1030D01*
X2703Y1030D02*
X2703Y1030D01*
X11Y1029D02*
X11Y1029D01*
X2703Y1029D02*
X2703Y1029D01*
X11Y1028D02*
X11Y1028D01*
X2703Y1028D02*
X2703Y1028D01*
X11Y1027D02*
X11Y1027D01*
X2703Y1027D02*
X2703Y1027D01*
X11Y1026D02*
X11Y1026D01*
X2703Y1026D02*
X2703Y1026D01*
X11Y1025D02*
X11Y1025D01*
X2703Y1025D02*
X2703Y1025D01*
X11Y1024D02*
X11Y1024D01*
X2703Y1024D02*
X2703Y1024D01*
X11Y1023D02*
X11Y1023D01*
X2703Y1023D02*
X2703Y1023D01*
X11Y1022D02*
X11Y1022D01*
X2703Y1022D02*
X2703Y1022D01*
X11Y1021D02*
X11Y1021D01*
X2703Y1021D02*
X2703Y1021D01*
X11Y1020D02*
X11Y1020D01*
X2703Y1020D02*
X2703Y1020D01*
X11Y1019D02*
X11Y1019D01*
X2703Y1019D02*
X2703Y1019D01*
X11Y1018D02*
X11Y1018D01*
X2703Y1018D02*
X2703Y1018D01*
X11Y1017D02*
X11Y1017D01*
X2703Y1017D02*
X2703Y1017D01*
X11Y1016D02*
X11Y1016D01*
X2703Y1016D02*
X2703Y1016D01*
X11Y1015D02*
X11Y1015D01*
X2703Y1015D02*
X2703Y1015D01*
X11Y1014D02*
X11Y1014D01*
X2703Y1014D02*
X2703Y1014D01*
X11Y1013D02*
X11Y1013D01*
X2703Y1013D02*
X2703Y1013D01*
X11Y1012D02*
X11Y1012D01*
X2703Y1012D02*
X2703Y1012D01*
X11Y1011D02*
X11Y1011D01*
X2703Y1011D02*
X2703Y1011D01*
X11Y1010D02*
X11Y1010D01*
X2703Y1010D02*
X2703Y1010D01*
X11Y1009D02*
X11Y1009D01*
X2703Y1009D02*
X2703Y1009D01*
X11Y1008D02*
X11Y1008D01*
X2703Y1008D02*
X2703Y1008D01*
X11Y1007D02*
X11Y1007D01*
X2703Y1007D02*
X2703Y1007D01*
X11Y1006D02*
X11Y1006D01*
X2703Y1006D02*
X2703Y1006D01*
X11Y1005D02*
X11Y1005D01*
X2703Y1005D02*
X2703Y1005D01*
X11Y1004D02*
X11Y1004D01*
X2703Y1004D02*
X2703Y1004D01*
X11Y1003D02*
X11Y1003D01*
X2703Y1003D02*
X2703Y1003D01*
X11Y1002D02*
X11Y1002D01*
X2703Y1002D02*
X2703Y1002D01*
X11Y1001D02*
X11Y1001D01*
X2703Y1001D02*
X2703Y1001D01*
X11Y1000D02*
X11Y1000D01*
X2703Y1000D02*
X2703Y1000D01*
X11Y999D02*
X11Y999D01*
X2703Y999D02*
X2703Y999D01*
X11Y998D02*
X11Y998D01*
X2703Y998D02*
X2703Y998D01*
X11Y997D02*
X11Y997D01*
X2703Y997D02*
X2703Y997D01*
X11Y996D02*
X11Y996D01*
X2703Y996D02*
X2703Y996D01*
X11Y995D02*
X11Y995D01*
X2703Y995D02*
X2703Y995D01*
X11Y994D02*
X11Y994D01*
X2703Y994D02*
X2703Y994D01*
X11Y993D02*
X11Y993D01*
X2703Y993D02*
X2703Y993D01*
X11Y992D02*
X11Y992D01*
X2703Y992D02*
X2703Y992D01*
X11Y991D02*
X11Y991D01*
X2703Y991D02*
X2703Y991D01*
X11Y990D02*
X11Y990D01*
X2703Y990D02*
X2703Y990D01*
X11Y989D02*
X11Y989D01*
X2703Y989D02*
X2703Y989D01*
X11Y988D02*
X11Y988D01*
X2703Y988D02*
X2703Y988D01*
X11Y987D02*
X11Y987D01*
X2703Y987D02*
X2703Y987D01*
X11Y986D02*
X11Y986D01*
X2703Y986D02*
X2703Y986D01*
X11Y985D02*
X11Y985D01*
X2703Y985D02*
X2703Y985D01*
X11Y984D02*
X11Y984D01*
X2703Y984D02*
X2703Y984D01*
X11Y983D02*
X11Y983D01*
X2703Y983D02*
X2703Y983D01*
X11Y982D02*
X11Y982D01*
X2703Y982D02*
X2703Y982D01*
X11Y981D02*
X11Y981D01*
X2703Y981D02*
X2703Y981D01*
X11Y980D02*
X11Y980D01*
X2703Y980D02*
X2703Y980D01*
X11Y979D02*
X11Y979D01*
X2703Y979D02*
X2703Y979D01*
X11Y978D02*
X11Y978D01*
X2703Y978D02*
X2703Y978D01*
X11Y977D02*
X11Y977D01*
X2703Y977D02*
X2703Y977D01*
X11Y976D02*
X11Y976D01*
X2703Y976D02*
X2703Y976D01*
X11Y975D02*
X11Y975D01*
X2703Y975D02*
X2703Y975D01*
X11Y974D02*
X11Y974D01*
X2703Y974D02*
X2703Y974D01*
X11Y973D02*
X11Y973D01*
X2703Y973D02*
X2703Y973D01*
X11Y972D02*
X11Y972D01*
X2703Y972D02*
X2703Y972D01*
X11Y971D02*
X11Y971D01*
X2703Y971D02*
X2703Y971D01*
X11Y970D02*
X11Y970D01*
X2703Y970D02*
X2703Y970D01*
X11Y969D02*
X11Y969D01*
X2703Y969D02*
X2703Y969D01*
X11Y968D02*
X11Y968D01*
X2703Y968D02*
X2703Y968D01*
X11Y967D02*
X11Y967D01*
X2703Y967D02*
X2703Y967D01*
X11Y966D02*
X11Y966D01*
X2703Y966D02*
X2703Y966D01*
X11Y965D02*
X11Y965D01*
X2703Y965D02*
X2703Y965D01*
X11Y964D02*
X11Y964D01*
X2703Y964D02*
X2703Y964D01*
X11Y963D02*
X11Y963D01*
X2703Y963D02*
X2703Y963D01*
X11Y962D02*
X11Y962D01*
X2703Y962D02*
X2703Y962D01*
X11Y961D02*
X11Y961D01*
X2703Y961D02*
X2703Y961D01*
X11Y960D02*
X11Y960D01*
X2703Y960D02*
X2703Y960D01*
X11Y959D02*
X11Y959D01*
X2703Y959D02*
X2703Y959D01*
X11Y958D02*
X11Y958D01*
X2703Y958D02*
X2703Y958D01*
X11Y957D02*
X11Y957D01*
X2703Y957D02*
X2703Y957D01*
X11Y956D02*
X11Y956D01*
X2703Y956D02*
X2703Y956D01*
X11Y955D02*
X11Y955D01*
X2703Y955D02*
X2703Y955D01*
X11Y954D02*
X11Y954D01*
X2703Y954D02*
X2703Y954D01*
X11Y953D02*
X11Y953D01*
X2703Y953D02*
X2703Y953D01*
X11Y952D02*
X11Y952D01*
X2703Y952D02*
X2703Y952D01*
X11Y951D02*
X11Y951D01*
X2703Y951D02*
X2703Y951D01*
X11Y950D02*
X11Y950D01*
X2703Y950D02*
X2703Y950D01*
X11Y949D02*
X11Y949D01*
X2703Y949D02*
X2703Y949D01*
X11Y948D02*
X11Y948D01*
X2703Y948D02*
X2703Y948D01*
X11Y947D02*
X11Y947D01*
X2703Y947D02*
X2703Y947D01*
X11Y946D02*
X11Y946D01*
X2703Y946D02*
X2703Y946D01*
X11Y945D02*
X11Y945D01*
X2703Y945D02*
X2703Y945D01*
X11Y944D02*
X11Y944D01*
X2703Y944D02*
X2703Y944D01*
X11Y943D02*
X11Y943D01*
X2703Y943D02*
X2703Y943D01*
X11Y942D02*
X11Y942D01*
X2703Y942D02*
X2703Y942D01*
X11Y941D02*
X11Y941D01*
X2703Y941D02*
X2703Y941D01*
X11Y940D02*
X11Y940D01*
X2703Y940D02*
X2703Y940D01*
X11Y939D02*
X11Y939D01*
X2703Y939D02*
X2703Y939D01*
X11Y938D02*
X11Y938D01*
X2703Y938D02*
X2703Y938D01*
X11Y937D02*
X11Y937D01*
X2703Y937D02*
X2703Y937D01*
X11Y936D02*
X11Y936D01*
X2703Y936D02*
X2703Y936D01*
X11Y935D02*
X11Y935D01*
X2703Y935D02*
X2703Y935D01*
X11Y934D02*
X11Y934D01*
X2703Y934D02*
X2703Y934D01*
X11Y933D02*
X11Y933D01*
X2703Y933D02*
X2703Y933D01*
X11Y932D02*
X11Y932D01*
X2703Y932D02*
X2703Y932D01*
X11Y931D02*
X11Y931D01*
X2703Y931D02*
X2703Y931D01*
X11Y930D02*
X11Y930D01*
X2703Y930D02*
X2703Y930D01*
X11Y929D02*
X11Y929D01*
X2703Y929D02*
X2703Y929D01*
X11Y928D02*
X11Y928D01*
X2703Y928D02*
X2703Y928D01*
X11Y927D02*
X11Y927D01*
X2703Y927D02*
X2703Y927D01*
X11Y926D02*
X11Y926D01*
X2703Y926D02*
X2703Y926D01*
X11Y925D02*
X11Y925D01*
X2703Y925D02*
X2703Y925D01*
X11Y924D02*
X11Y924D01*
X2703Y924D02*
X2703Y924D01*
X11Y923D02*
X11Y923D01*
X2703Y923D02*
X2703Y923D01*
X11Y922D02*
X11Y922D01*
X2703Y922D02*
X2703Y922D01*
X11Y921D02*
X11Y921D01*
X2703Y921D02*
X2703Y921D01*
X11Y920D02*
X11Y920D01*
X2703Y920D02*
X2703Y920D01*
X11Y919D02*
X11Y919D01*
X2703Y919D02*
X2703Y919D01*
X11Y918D02*
X11Y918D01*
X2703Y918D02*
X2703Y918D01*
X11Y917D02*
X11Y917D01*
X2703Y917D02*
X2703Y917D01*
X11Y916D02*
X11Y916D01*
X2703Y916D02*
X2703Y916D01*
X11Y915D02*
X11Y915D01*
X2703Y915D02*
X2703Y915D01*
X11Y914D02*
X11Y914D01*
X2703Y914D02*
X2703Y914D01*
X11Y913D02*
X11Y913D01*
X2703Y913D02*
X2703Y913D01*
X11Y912D02*
X11Y912D01*
X2703Y912D02*
X2703Y912D01*
X11Y911D02*
X11Y911D01*
X2703Y911D02*
X2703Y911D01*
X11Y910D02*
X11Y910D01*
X2703Y910D02*
X2703Y910D01*
X11Y909D02*
X11Y909D01*
X2703Y909D02*
X2703Y909D01*
X11Y908D02*
X11Y908D01*
X2703Y908D02*
X2703Y908D01*
X11Y907D02*
X11Y907D01*
X2703Y907D02*
X2703Y907D01*
X11Y906D02*
X11Y906D01*
X2703Y906D02*
X2703Y906D01*
X11Y905D02*
X11Y905D01*
X2703Y905D02*
X2703Y905D01*
X11Y904D02*
X11Y904D01*
X2703Y904D02*
X2703Y904D01*
X11Y903D02*
X11Y903D01*
X2703Y903D02*
X2703Y903D01*
X11Y902D02*
X11Y902D01*
X2703Y902D02*
X2703Y902D01*
X11Y901D02*
X11Y901D01*
X2703Y901D02*
X2703Y901D01*
X11Y900D02*
X11Y900D01*
X2703Y900D02*
X2703Y900D01*
X11Y899D02*
X11Y899D01*
X2703Y899D02*
X2703Y899D01*
X11Y898D02*
X11Y898D01*
X2703Y898D02*
X2703Y898D01*
X11Y897D02*
X11Y897D01*
X2703Y897D02*
X2703Y897D01*
X11Y896D02*
X11Y896D01*
X2703Y896D02*
X2703Y896D01*
X11Y895D02*
X11Y895D01*
X2703Y895D02*
X2703Y895D01*
X11Y894D02*
X11Y894D01*
X2703Y894D02*
X2703Y894D01*
X11Y893D02*
X11Y893D01*
X2703Y893D02*
X2703Y893D01*
X11Y892D02*
X11Y892D01*
X2703Y892D02*
X2703Y892D01*
X11Y891D02*
X11Y891D01*
X2703Y891D02*
X2703Y891D01*
X11Y890D02*
X11Y890D01*
X2703Y890D02*
X2703Y890D01*
X11Y889D02*
X11Y889D01*
X2703Y889D02*
X2703Y889D01*
X11Y888D02*
X11Y888D01*
X2703Y888D02*
X2703Y888D01*
X11Y887D02*
X11Y887D01*
X2703Y887D02*
X2703Y887D01*
X11Y886D02*
X11Y886D01*
X2703Y886D02*
X2703Y886D01*
X11Y885D02*
X11Y885D01*
X2703Y885D02*
X2703Y885D01*
X11Y884D02*
X11Y884D01*
X2703Y884D02*
X2703Y884D01*
X11Y883D02*
X11Y883D01*
X2703Y883D02*
X2703Y883D01*
X11Y882D02*
X11Y882D01*
X2703Y882D02*
X2703Y882D01*
X11Y881D02*
X11Y881D01*
X2703Y881D02*
X2703Y881D01*
X11Y880D02*
X11Y880D01*
X2703Y880D02*
X2703Y880D01*
X11Y879D02*
X11Y879D01*
X2703Y879D02*
X2703Y879D01*
X11Y878D02*
X11Y878D01*
X2703Y878D02*
X2703Y878D01*
X11Y877D02*
X11Y877D01*
X2703Y877D02*
X2703Y877D01*
X11Y876D02*
X11Y876D01*
X2703Y876D02*
X2703Y876D01*
X11Y875D02*
X11Y875D01*
X2703Y875D02*
X2703Y875D01*
X11Y874D02*
X11Y874D01*
X2703Y874D02*
X2703Y874D01*
X11Y873D02*
X11Y873D01*
X2703Y873D02*
X2703Y873D01*
X11Y872D02*
X11Y872D01*
X2703Y872D02*
X2703Y872D01*
X11Y871D02*
X11Y871D01*
X2703Y871D02*
X2703Y871D01*
X11Y870D02*
X11Y870D01*
X2703Y870D02*
X2703Y870D01*
X11Y869D02*
X11Y869D01*
X2703Y869D02*
X2703Y869D01*
X11Y868D02*
X11Y868D01*
X2703Y868D02*
X2703Y868D01*
X11Y867D02*
X11Y867D01*
X2703Y867D02*
X2703Y867D01*
X11Y866D02*
X11Y866D01*
X2703Y866D02*
X2703Y866D01*
X11Y865D02*
X11Y865D01*
X2703Y865D02*
X2703Y865D01*
X11Y864D02*
X11Y864D01*
X2703Y864D02*
X2703Y864D01*
X11Y863D02*
X11Y863D01*
X2703Y863D02*
X2703Y863D01*
X11Y862D02*
X11Y862D01*
X2703Y862D02*
X2703Y862D01*
X11Y861D02*
X11Y861D01*
X2703Y861D02*
X2703Y861D01*
X11Y860D02*
X11Y860D01*
X2703Y860D02*
X2703Y860D01*
X11Y859D02*
X11Y859D01*
X2703Y859D02*
X2703Y859D01*
X11Y858D02*
X11Y858D01*
X2703Y858D02*
X2703Y858D01*
X11Y857D02*
X11Y857D01*
X2703Y857D02*
X2703Y857D01*
X11Y856D02*
X11Y856D01*
X2703Y856D02*
X2703Y856D01*
X11Y855D02*
X11Y855D01*
X2703Y855D02*
X2703Y855D01*
X11Y854D02*
X11Y854D01*
X2703Y854D02*
X2703Y854D01*
X11Y853D02*
X11Y853D01*
X2703Y853D02*
X2703Y853D01*
X11Y852D02*
X11Y852D01*
X2703Y852D02*
X2703Y852D01*
X11Y851D02*
X11Y851D01*
X2703Y851D02*
X2703Y851D01*
X11Y850D02*
X11Y850D01*
X2703Y850D02*
X2703Y850D01*
X11Y849D02*
X11Y849D01*
X2703Y849D02*
X2703Y849D01*
X11Y848D02*
X11Y848D01*
X2703Y848D02*
X2703Y848D01*
X11Y847D02*
X11Y847D01*
X2703Y847D02*
X2703Y847D01*
X11Y846D02*
X11Y846D01*
X2703Y846D02*
X2703Y846D01*
X11Y845D02*
X11Y845D01*
X2703Y845D02*
X2703Y845D01*
X11Y844D02*
X11Y844D01*
X2703Y844D02*
X2703Y844D01*
X11Y843D02*
X11Y843D01*
X2703Y843D02*
X2703Y843D01*
X11Y842D02*
X11Y842D01*
X2703Y842D02*
X2703Y842D01*
X11Y841D02*
X11Y841D01*
X2703Y841D02*
X2703Y841D01*
X11Y840D02*
X11Y840D01*
X2703Y840D02*
X2703Y840D01*
X11Y839D02*
X11Y839D01*
X2703Y839D02*
X2703Y839D01*
X11Y838D02*
X11Y838D01*
X2703Y838D02*
X2703Y838D01*
X11Y837D02*
X11Y837D01*
X2703Y837D02*
X2703Y837D01*
X11Y836D02*
X11Y836D01*
X2703Y836D02*
X2703Y836D01*
X11Y835D02*
X11Y835D01*
X2703Y835D02*
X2703Y835D01*
X11Y834D02*
X11Y834D01*
X2703Y834D02*
X2703Y834D01*
X11Y833D02*
X11Y833D01*
X2703Y833D02*
X2703Y833D01*
X11Y832D02*
X11Y832D01*
X2703Y832D02*
X2703Y832D01*
X11Y831D02*
X11Y831D01*
X2703Y831D02*
X2703Y831D01*
X11Y830D02*
X11Y830D01*
X2703Y830D02*
X2703Y830D01*
X11Y829D02*
X11Y829D01*
X2703Y829D02*
X2703Y829D01*
X11Y828D02*
X11Y828D01*
X2703Y828D02*
X2703Y828D01*
X11Y827D02*
X11Y827D01*
X2703Y827D02*
X2703Y827D01*
X11Y826D02*
X11Y826D01*
X2703Y826D02*
X2703Y826D01*
X11Y825D02*
X11Y825D01*
X2703Y825D02*
X2703Y825D01*
X11Y824D02*
X11Y824D01*
X2703Y824D02*
X2703Y824D01*
X11Y823D02*
X11Y823D01*
X2703Y823D02*
X2703Y823D01*
X11Y822D02*
X11Y822D01*
X2703Y822D02*
X2703Y822D01*
X11Y821D02*
X11Y821D01*
X2703Y821D02*
X2703Y821D01*
X11Y820D02*
X11Y820D01*
X2703Y820D02*
X2703Y820D01*
X11Y819D02*
X11Y819D01*
X2703Y819D02*
X2703Y819D01*
X11Y818D02*
X11Y818D01*
X2703Y818D02*
X2703Y818D01*
X11Y817D02*
X11Y817D01*
X2703Y817D02*
X2703Y817D01*
X11Y816D02*
X11Y816D01*
X2703Y816D02*
X2703Y816D01*
X11Y815D02*
X11Y815D01*
X2703Y815D02*
X2703Y815D01*
X11Y814D02*
X11Y814D01*
X2703Y814D02*
X2703Y814D01*
X11Y813D02*
X11Y813D01*
X2703Y813D02*
X2703Y813D01*
X11Y812D02*
X11Y812D01*
X2703Y812D02*
X2703Y812D01*
X11Y811D02*
X11Y811D01*
X2703Y811D02*
X2703Y811D01*
X11Y810D02*
X11Y810D01*
X2703Y810D02*
X2703Y810D01*
X11Y809D02*
X11Y809D01*
X2703Y809D02*
X2703Y809D01*
X11Y808D02*
X11Y808D01*
X2703Y808D02*
X2703Y808D01*
X11Y807D02*
X11Y807D01*
X2703Y807D02*
X2703Y807D01*
X11Y806D02*
X11Y806D01*
X2703Y806D02*
X2703Y806D01*
X11Y805D02*
X11Y805D01*
X2703Y805D02*
X2703Y805D01*
X11Y804D02*
X11Y804D01*
X2703Y804D02*
X2703Y804D01*
X11Y803D02*
X11Y803D01*
X2703Y803D02*
X2703Y803D01*
X11Y802D02*
X11Y802D01*
X2703Y802D02*
X2703Y802D01*
X11Y801D02*
X11Y801D01*
X2703Y801D02*
X2703Y801D01*
X11Y800D02*
X11Y800D01*
X2703Y800D02*
X2703Y800D01*
X11Y799D02*
X11Y799D01*
X2703Y799D02*
X2703Y799D01*
X11Y798D02*
X11Y798D01*
X2703Y798D02*
X2703Y798D01*
X11Y797D02*
X11Y797D01*
X2703Y797D02*
X2703Y797D01*
X11Y796D02*
X11Y796D01*
X2703Y796D02*
X2703Y796D01*
X11Y795D02*
X11Y795D01*
X2703Y795D02*
X2703Y795D01*
X11Y794D02*
X11Y794D01*
X2703Y794D02*
X2703Y794D01*
X11Y793D02*
X11Y793D01*
X2703Y793D02*
X2703Y793D01*
X11Y792D02*
X11Y792D01*
X2703Y792D02*
X2703Y792D01*
X11Y791D02*
X11Y791D01*
X2703Y791D02*
X2703Y791D01*
X11Y790D02*
X11Y790D01*
X2703Y790D02*
X2703Y790D01*
X11Y789D02*
X11Y789D01*
X2703Y789D02*
X2703Y789D01*
X11Y788D02*
X11Y788D01*
X2703Y788D02*
X2703Y788D01*
X11Y787D02*
X11Y787D01*
X2703Y787D02*
X2703Y787D01*
X11Y786D02*
X11Y786D01*
X2703Y786D02*
X2703Y786D01*
X11Y785D02*
X11Y785D01*
X2703Y785D02*
X2703Y785D01*
X11Y784D02*
X11Y784D01*
X2703Y784D02*
X2703Y784D01*
X11Y783D02*
X11Y783D01*
X2703Y783D02*
X2703Y783D01*
X11Y782D02*
X11Y782D01*
X2703Y782D02*
X2703Y782D01*
X11Y781D02*
X11Y781D01*
X2703Y781D02*
X2703Y781D01*
X11Y780D02*
X11Y780D01*
X2703Y780D02*
X2703Y780D01*
X11Y779D02*
X11Y779D01*
X2703Y779D02*
X2703Y779D01*
X11Y778D02*
X11Y778D01*
X2703Y778D02*
X2703Y778D01*
X11Y777D02*
X11Y777D01*
X2703Y777D02*
X2703Y777D01*
X11Y776D02*
X11Y776D01*
X2703Y776D02*
X2703Y776D01*
X11Y775D02*
X11Y775D01*
X2703Y775D02*
X2703Y775D01*
X11Y774D02*
X11Y774D01*
X2703Y774D02*
X2703Y774D01*
X11Y773D02*
X11Y773D01*
X2703Y773D02*
X2703Y773D01*
X11Y772D02*
X11Y772D01*
X2703Y772D02*
X2703Y772D01*
X11Y771D02*
X11Y771D01*
X2703Y771D02*
X2703Y771D01*
X11Y770D02*
X11Y770D01*
X2703Y770D02*
X2703Y770D01*
X11Y769D02*
X11Y769D01*
X2703Y769D02*
X2703Y769D01*
X11Y768D02*
X11Y768D01*
X2703Y768D02*
X2703Y768D01*
X11Y767D02*
X11Y767D01*
X2703Y767D02*
X2703Y767D01*
X11Y766D02*
X11Y766D01*
X2703Y766D02*
X2703Y766D01*
X11Y765D02*
X11Y765D01*
X2703Y765D02*
X2703Y765D01*
X11Y764D02*
X11Y764D01*
X2703Y764D02*
X2703Y764D01*
X11Y763D02*
X11Y763D01*
X2703Y763D02*
X2703Y763D01*
X11Y762D02*
X11Y762D01*
X2703Y762D02*
X2703Y762D01*
X11Y761D02*
X11Y761D01*
X2703Y761D02*
X2703Y761D01*
X11Y760D02*
X11Y760D01*
X2703Y760D02*
X2703Y760D01*
X11Y759D02*
X11Y759D01*
X2703Y759D02*
X2703Y759D01*
X11Y758D02*
X11Y758D01*
X2703Y758D02*
X2703Y758D01*
X11Y757D02*
X11Y757D01*
X2703Y757D02*
X2703Y757D01*
X11Y756D02*
X11Y756D01*
X2703Y756D02*
X2703Y756D01*
X11Y755D02*
X11Y755D01*
X2703Y755D02*
X2703Y755D01*
X11Y754D02*
X11Y754D01*
X2703Y754D02*
X2703Y754D01*
X11Y753D02*
X11Y753D01*
X2703Y753D02*
X2703Y753D01*
X11Y752D02*
X11Y752D01*
X2703Y752D02*
X2703Y752D01*
X11Y751D02*
X11Y751D01*
X2703Y751D02*
X2703Y751D01*
X11Y750D02*
X11Y750D01*
X2703Y750D02*
X2703Y750D01*
X11Y749D02*
X11Y749D01*
X2703Y749D02*
X2703Y749D01*
X11Y748D02*
X11Y748D01*
X2703Y748D02*
X2703Y748D01*
X11Y747D02*
X11Y747D01*
X2703Y747D02*
X2703Y747D01*
X11Y746D02*
X11Y746D01*
X2703Y746D02*
X2703Y746D01*
X11Y745D02*
X11Y745D01*
X2703Y745D02*
X2703Y745D01*
X11Y744D02*
X11Y744D01*
X2703Y744D02*
X2703Y744D01*
X11Y743D02*
X11Y743D01*
X2703Y743D02*
X2703Y743D01*
X11Y742D02*
X11Y742D01*
X2703Y742D02*
X2703Y742D01*
X11Y741D02*
X11Y741D01*
X2703Y741D02*
X2703Y741D01*
X11Y740D02*
X11Y740D01*
X2703Y740D02*
X2703Y740D01*
X11Y739D02*
X11Y739D01*
X2703Y739D02*
X2703Y739D01*
X11Y738D02*
X11Y738D01*
X2703Y738D02*
X2703Y738D01*
X11Y737D02*
X11Y737D01*
X2703Y737D02*
X2703Y737D01*
X11Y736D02*
X11Y736D01*
X2703Y736D02*
X2703Y736D01*
X11Y735D02*
X11Y735D01*
X2703Y735D02*
X2703Y735D01*
X11Y734D02*
X11Y734D01*
X2703Y734D02*
X2703Y734D01*
X11Y733D02*
X11Y733D01*
X2703Y733D02*
X2703Y733D01*
X11Y732D02*
X11Y732D01*
X2703Y732D02*
X2703Y732D01*
X11Y731D02*
X11Y731D01*
X2703Y731D02*
X2703Y731D01*
X11Y730D02*
X11Y730D01*
X2703Y730D02*
X2703Y730D01*
X11Y729D02*
X11Y729D01*
X2703Y729D02*
X2703Y729D01*
X11Y728D02*
X11Y728D01*
X2703Y728D02*
X2703Y728D01*
X11Y727D02*
X11Y727D01*
X2703Y727D02*
X2703Y727D01*
X11Y726D02*
X11Y726D01*
X2703Y726D02*
X2703Y726D01*
X11Y725D02*
X11Y725D01*
X2703Y725D02*
X2703Y725D01*
X11Y724D02*
X11Y724D01*
X2703Y724D02*
X2703Y724D01*
X11Y723D02*
X11Y723D01*
X2703Y723D02*
X2703Y723D01*
X11Y722D02*
X11Y722D01*
X2703Y722D02*
X2703Y722D01*
X11Y721D02*
X11Y721D01*
X2703Y721D02*
X2703Y721D01*
X11Y720D02*
X11Y720D01*
X2703Y720D02*
X2703Y720D01*
X11Y719D02*
X11Y719D01*
X2703Y719D02*
X2703Y719D01*
X11Y718D02*
X11Y718D01*
X2703Y718D02*
X2703Y718D01*
X11Y717D02*
X11Y717D01*
X2703Y717D02*
X2703Y717D01*
X11Y716D02*
X11Y716D01*
X2703Y716D02*
X2703Y716D01*
X11Y715D02*
X11Y715D01*
X2703Y715D02*
X2703Y715D01*
X11Y714D02*
X11Y714D01*
X2703Y714D02*
X2703Y714D01*
X11Y713D02*
X11Y713D01*
X2703Y713D02*
X2703Y713D01*
X11Y712D02*
X11Y712D01*
X2703Y712D02*
X2703Y712D01*
X11Y711D02*
X11Y711D01*
X2703Y711D02*
X2703Y711D01*
X11Y710D02*
X11Y710D01*
X2703Y710D02*
X2703Y710D01*
X11Y709D02*
X11Y709D01*
X2703Y709D02*
X2703Y709D01*
X11Y708D02*
X11Y708D01*
X2703Y708D02*
X2703Y708D01*
X11Y707D02*
X11Y707D01*
X2703Y707D02*
X2703Y707D01*
X11Y706D02*
X11Y706D01*
X2703Y706D02*
X2703Y706D01*
X11Y705D02*
X11Y705D01*
X2703Y705D02*
X2703Y705D01*
X11Y704D02*
X11Y704D01*
X2703Y704D02*
X2703Y704D01*
X11Y703D02*
X11Y703D01*
X2703Y703D02*
X2703Y703D01*
X11Y702D02*
X11Y702D01*
X2703Y702D02*
X2703Y702D01*
X11Y701D02*
X11Y701D01*
X2703Y701D02*
X2703Y701D01*
X11Y700D02*
X11Y700D01*
X2703Y700D02*
X2703Y700D01*
X11Y699D02*
X11Y699D01*
X2703Y699D02*
X2703Y699D01*
X11Y698D02*
X11Y698D01*
X2703Y698D02*
X2703Y698D01*
X11Y697D02*
X11Y697D01*
X2703Y697D02*
X2703Y697D01*
X11Y696D02*
X11Y696D01*
X2703Y696D02*
X2703Y696D01*
X11Y695D02*
X11Y695D01*
X2703Y695D02*
X2703Y695D01*
X11Y694D02*
X11Y694D01*
X2703Y694D02*
X2703Y694D01*
X11Y693D02*
X11Y693D01*
X2703Y693D02*
X2703Y693D01*
X11Y692D02*
X11Y692D01*
X2703Y692D02*
X2703Y692D01*
X11Y691D02*
X11Y691D01*
X2703Y691D02*
X2703Y691D01*
X11Y690D02*
X11Y690D01*
X2703Y690D02*
X2703Y690D01*
X11Y689D02*
X11Y689D01*
X2703Y689D02*
X2703Y689D01*
X11Y688D02*
X11Y688D01*
X2703Y688D02*
X2703Y688D01*
X11Y687D02*
X11Y687D01*
X2703Y687D02*
X2703Y687D01*
X11Y686D02*
X11Y686D01*
X2703Y686D02*
X2703Y686D01*
X11Y685D02*
X11Y685D01*
X2703Y685D02*
X2703Y685D01*
X11Y684D02*
X11Y684D01*
X2703Y684D02*
X2703Y684D01*
X11Y683D02*
X11Y683D01*
X2703Y683D02*
X2703Y683D01*
X11Y682D02*
X11Y682D01*
X2703Y682D02*
X2703Y682D01*
X11Y681D02*
X11Y681D01*
X2703Y681D02*
X2703Y681D01*
X11Y680D02*
X11Y680D01*
X2703Y680D02*
X2703Y680D01*
X11Y679D02*
X11Y679D01*
X2703Y679D02*
X2703Y679D01*
X11Y678D02*
X11Y678D01*
X2703Y678D02*
X2703Y678D01*
X11Y677D02*
X11Y677D01*
X2703Y677D02*
X2703Y677D01*
X11Y676D02*
X11Y676D01*
X2703Y676D02*
X2703Y676D01*
X11Y675D02*
X11Y675D01*
X2703Y675D02*
X2703Y675D01*
X11Y674D02*
X11Y674D01*
X2703Y674D02*
X2703Y674D01*
X11Y673D02*
X11Y673D01*
X2703Y673D02*
X2703Y673D01*
X11Y672D02*
X11Y672D01*
X2703Y672D02*
X2703Y672D01*
X11Y671D02*
X11Y671D01*
X2703Y671D02*
X2703Y671D01*
X11Y670D02*
X11Y670D01*
X2703Y670D02*
X2703Y670D01*
X11Y669D02*
X11Y669D01*
X2703Y669D02*
X2703Y669D01*
X11Y668D02*
X11Y668D01*
X2703Y668D02*
X2703Y668D01*
X11Y667D02*
X11Y667D01*
X2703Y667D02*
X2703Y667D01*
X11Y666D02*
X11Y666D01*
X2703Y666D02*
X2703Y666D01*
X11Y665D02*
X11Y665D01*
X2703Y665D02*
X2703Y665D01*
X11Y664D02*
X11Y664D01*
X2703Y664D02*
X2703Y664D01*
X11Y663D02*
X11Y663D01*
X2703Y663D02*
X2703Y663D01*
X11Y662D02*
X11Y662D01*
X2703Y662D02*
X2703Y662D01*
X11Y661D02*
X11Y661D01*
X2703Y661D02*
X2703Y661D01*
X11Y660D02*
X11Y660D01*
X2703Y660D02*
X2703Y660D01*
X11Y659D02*
X11Y659D01*
X2703Y659D02*
X2703Y659D01*
X11Y658D02*
X11Y658D01*
X2703Y658D02*
X2703Y658D01*
X11Y657D02*
X11Y657D01*
X2703Y657D02*
X2703Y657D01*
X11Y656D02*
X11Y656D01*
X2703Y656D02*
X2703Y656D01*
X11Y655D02*
X11Y655D01*
X2703Y655D02*
X2703Y655D01*
X11Y654D02*
X11Y654D01*
X2703Y654D02*
X2703Y654D01*
X11Y653D02*
X11Y653D01*
X2703Y653D02*
X2703Y653D01*
X11Y652D02*
X11Y652D01*
X2703Y652D02*
X2703Y652D01*
X11Y651D02*
X11Y651D01*
X2703Y651D02*
X2703Y651D01*
X11Y650D02*
X11Y650D01*
X2703Y650D02*
X2703Y650D01*
X11Y649D02*
X11Y649D01*
X2703Y649D02*
X2703Y649D01*
X11Y648D02*
X11Y648D01*
X2703Y648D02*
X2703Y648D01*
X11Y647D02*
X11Y647D01*
X2703Y647D02*
X2703Y647D01*
X11Y646D02*
X11Y646D01*
X2703Y646D02*
X2703Y646D01*
X11Y645D02*
X11Y645D01*
X2703Y645D02*
X2703Y645D01*
X11Y644D02*
X11Y644D01*
X2703Y644D02*
X2703Y644D01*
X11Y643D02*
X11Y643D01*
X2703Y643D02*
X2703Y643D01*
X11Y642D02*
X11Y642D01*
X2703Y642D02*
X2703Y642D01*
X11Y641D02*
X11Y641D01*
X2703Y641D02*
X2703Y641D01*
X11Y640D02*
X11Y640D01*
X2703Y640D02*
X2703Y640D01*
X11Y639D02*
X11Y639D01*
X2703Y639D02*
X2703Y639D01*
X11Y638D02*
X11Y638D01*
X2703Y638D02*
X2703Y638D01*
X11Y637D02*
X11Y637D01*
X2703Y637D02*
X2703Y637D01*
X11Y636D02*
X11Y636D01*
X2703Y636D02*
X2703Y636D01*
X11Y635D02*
X11Y635D01*
X2703Y635D02*
X2703Y635D01*
X11Y634D02*
X11Y634D01*
X2703Y634D02*
X2703Y634D01*
X11Y633D02*
X11Y633D01*
X2703Y633D02*
X2703Y633D01*
X11Y632D02*
X11Y632D01*
X2703Y632D02*
X2703Y632D01*
X11Y631D02*
X11Y631D01*
X2703Y631D02*
X2703Y631D01*
X11Y630D02*
X11Y630D01*
X2703Y630D02*
X2703Y630D01*
X11Y629D02*
X11Y629D01*
X2703Y629D02*
X2703Y629D01*
X11Y628D02*
X11Y628D01*
X2703Y628D02*
X2703Y628D01*
X11Y627D02*
X11Y627D01*
X2703Y627D02*
X2703Y627D01*
X11Y626D02*
X11Y626D01*
X2703Y626D02*
X2703Y626D01*
X11Y625D02*
X11Y625D01*
X2703Y625D02*
X2703Y625D01*
X11Y624D02*
X11Y624D01*
X2703Y624D02*
X2703Y624D01*
X11Y623D02*
X11Y623D01*
X2703Y623D02*
X2703Y623D01*
X11Y622D02*
X11Y622D01*
X2703Y622D02*
X2703Y622D01*
X11Y621D02*
X11Y621D01*
X2703Y621D02*
X2703Y621D01*
X11Y620D02*
X11Y620D01*
X2703Y620D02*
X2703Y620D01*
X11Y619D02*
X11Y619D01*
X2703Y619D02*
X2703Y619D01*
X11Y618D02*
X11Y618D01*
X2703Y618D02*
X2703Y618D01*
X11Y617D02*
X11Y617D01*
X2703Y617D02*
X2703Y617D01*
X11Y616D02*
X11Y616D01*
X2703Y616D02*
X2703Y616D01*
X11Y615D02*
X11Y615D01*
X2703Y615D02*
X2703Y615D01*
X11Y614D02*
X11Y614D01*
X2703Y614D02*
X2703Y614D01*
X11Y613D02*
X11Y613D01*
X2703Y613D02*
X2703Y613D01*
X11Y612D02*
X11Y612D01*
X2703Y612D02*
X2703Y612D01*
X11Y611D02*
X11Y611D01*
X2703Y611D02*
X2703Y611D01*
X11Y610D02*
X11Y610D01*
X2703Y610D02*
X2703Y610D01*
X11Y609D02*
X11Y609D01*
X2703Y609D02*
X2703Y609D01*
X11Y608D02*
X11Y608D01*
X2703Y608D02*
X2703Y608D01*
X11Y607D02*
X11Y607D01*
X2703Y607D02*
X2703Y607D01*
X11Y606D02*
X11Y606D01*
X2703Y606D02*
X2703Y606D01*
X11Y605D02*
X11Y605D01*
X2703Y605D02*
X2703Y605D01*
X11Y604D02*
X11Y604D01*
X2703Y604D02*
X2703Y604D01*
X11Y603D02*
X11Y603D01*
X2703Y603D02*
X2703Y603D01*
X11Y602D02*
X11Y602D01*
X2703Y602D02*
X2703Y602D01*
X11Y601D02*
X11Y601D01*
X2703Y601D02*
X2703Y601D01*
X11Y600D02*
X11Y600D01*
X2703Y600D02*
X2703Y600D01*
X11Y599D02*
X11Y599D01*
X2703Y599D02*
X2703Y599D01*
X11Y598D02*
X11Y598D01*
X2703Y598D02*
X2703Y598D01*
X11Y597D02*
X11Y597D01*
X2703Y597D02*
X2703Y597D01*
X11Y596D02*
X11Y596D01*
X2703Y596D02*
X2703Y596D01*
X11Y595D02*
X11Y595D01*
X2703Y595D02*
X2703Y595D01*
X11Y594D02*
X11Y594D01*
X2703Y594D02*
X2703Y594D01*
X11Y593D02*
X11Y593D01*
X2703Y593D02*
X2703Y593D01*
X11Y592D02*
X11Y592D01*
X2703Y592D02*
X2703Y592D01*
X11Y591D02*
X11Y591D01*
X2703Y591D02*
X2703Y591D01*
X11Y590D02*
X11Y590D01*
X2703Y590D02*
X2703Y590D01*
X11Y589D02*
X11Y589D01*
X2703Y589D02*
X2703Y589D01*
X11Y588D02*
X11Y588D01*
X2703Y588D02*
X2703Y588D01*
X11Y587D02*
X11Y587D01*
X2703Y587D02*
X2703Y587D01*
X11Y586D02*
X11Y586D01*
X2703Y586D02*
X2703Y586D01*
X11Y585D02*
X11Y585D01*
X2703Y585D02*
X2703Y585D01*
X11Y584D02*
X11Y584D01*
X2703Y584D02*
X2703Y584D01*
X11Y583D02*
X11Y583D01*
X2703Y583D02*
X2703Y583D01*
X11Y582D02*
X11Y582D01*
X2703Y582D02*
X2703Y582D01*
X11Y581D02*
X11Y581D01*
X2703Y581D02*
X2703Y581D01*
X11Y580D02*
X11Y580D01*
X2703Y580D02*
X2703Y580D01*
X11Y579D02*
X11Y579D01*
X2703Y579D02*
X2703Y579D01*
X11Y578D02*
X11Y578D01*
X2703Y578D02*
X2703Y578D01*
X11Y577D02*
X11Y577D01*
X2703Y577D02*
X2703Y577D01*
X11Y576D02*
X11Y576D01*
X2703Y576D02*
X2703Y576D01*
X11Y575D02*
X11Y575D01*
X2703Y575D02*
X2703Y575D01*
X11Y574D02*
X11Y574D01*
X2703Y574D02*
X2703Y574D01*
X11Y573D02*
X11Y573D01*
X2703Y573D02*
X2703Y573D01*
X11Y572D02*
X11Y572D01*
X2703Y572D02*
X2703Y572D01*
X11Y571D02*
X11Y571D01*
X2703Y571D02*
X2703Y571D01*
X11Y570D02*
X11Y570D01*
X2703Y570D02*
X2703Y570D01*
X11Y569D02*
X11Y569D01*
X2703Y569D02*
X2703Y569D01*
X11Y568D02*
X11Y568D01*
X2703Y568D02*
X2703Y568D01*
X11Y567D02*
X11Y567D01*
X2703Y567D02*
X2703Y567D01*
X11Y566D02*
X11Y566D01*
X2703Y566D02*
X2703Y566D01*
X11Y565D02*
X11Y565D01*
X2703Y565D02*
X2703Y565D01*
X11Y564D02*
X11Y564D01*
X2703Y564D02*
X2703Y564D01*
X11Y563D02*
X11Y563D01*
X2703Y563D02*
X2703Y563D01*
X11Y562D02*
X11Y562D01*
X2703Y562D02*
X2703Y562D01*
X11Y561D02*
X11Y561D01*
X2703Y561D02*
X2703Y561D01*
X11Y560D02*
X11Y560D01*
X2703Y560D02*
X2703Y560D01*
X11Y559D02*
X11Y559D01*
X2703Y559D02*
X2703Y559D01*
X11Y558D02*
X11Y558D01*
X2703Y558D02*
X2703Y558D01*
X11Y557D02*
X11Y557D01*
X2703Y557D02*
X2703Y557D01*
X11Y556D02*
X11Y556D01*
X2703Y556D02*
X2703Y556D01*
X11Y555D02*
X11Y555D01*
X2703Y555D02*
X2703Y555D01*
X11Y554D02*
X11Y554D01*
X2703Y554D02*
X2703Y554D01*
X11Y553D02*
X11Y553D01*
X2703Y553D02*
X2703Y553D01*
X11Y552D02*
X11Y552D01*
X2703Y552D02*
X2703Y552D01*
X11Y551D02*
X11Y551D01*
X2703Y551D02*
X2703Y551D01*
X11Y550D02*
X11Y550D01*
X2703Y550D02*
X2703Y550D01*
X11Y549D02*
X11Y549D01*
X2703Y549D02*
X2703Y549D01*
X11Y548D02*
X11Y548D01*
X2703Y548D02*
X2703Y548D01*
X11Y547D02*
X11Y547D01*
X2703Y547D02*
X2703Y547D01*
X11Y546D02*
X11Y546D01*
X2703Y546D02*
X2703Y546D01*
X11Y545D02*
X11Y545D01*
X2703Y545D02*
X2703Y545D01*
X11Y544D02*
X11Y544D01*
X2703Y544D02*
X2703Y544D01*
X11Y543D02*
X11Y543D01*
X2703Y543D02*
X2703Y543D01*
X11Y542D02*
X11Y542D01*
X2703Y542D02*
X2703Y542D01*
X11Y541D02*
X11Y541D01*
X2703Y541D02*
X2703Y541D01*
X11Y540D02*
X11Y540D01*
X2703Y540D02*
X2703Y540D01*
X11Y539D02*
X11Y539D01*
X2703Y539D02*
X2703Y539D01*
X11Y538D02*
X11Y538D01*
X2703Y538D02*
X2703Y538D01*
X11Y537D02*
X11Y537D01*
X2703Y537D02*
X2703Y537D01*
X11Y536D02*
X11Y536D01*
X2703Y536D02*
X2703Y536D01*
X11Y535D02*
X11Y535D01*
X2703Y535D02*
X2703Y535D01*
X11Y534D02*
X11Y534D01*
X2703Y534D02*
X2703Y534D01*
X11Y533D02*
X11Y533D01*
X2703Y533D02*
X2703Y533D01*
X11Y532D02*
X11Y532D01*
X2703Y532D02*
X2703Y532D01*
X11Y531D02*
X11Y531D01*
X2703Y531D02*
X2703Y531D01*
X11Y530D02*
X11Y530D01*
X2703Y530D02*
X2703Y530D01*
X11Y529D02*
X11Y529D01*
X2703Y529D02*
X2703Y529D01*
X11Y528D02*
X11Y528D01*
X2703Y528D02*
X2703Y528D01*
X11Y527D02*
X11Y527D01*
X2703Y527D02*
X2703Y527D01*
X11Y526D02*
X11Y526D01*
X2703Y526D02*
X2703Y526D01*
X11Y525D02*
X11Y525D01*
X2703Y525D02*
X2703Y525D01*
X11Y524D02*
X11Y524D01*
X2703Y524D02*
X2703Y524D01*
X11Y523D02*
X11Y523D01*
X2703Y523D02*
X2703Y523D01*
X11Y522D02*
X11Y522D01*
X2703Y522D02*
X2703Y522D01*
X11Y521D02*
X11Y521D01*
X2703Y521D02*
X2703Y521D01*
X11Y520D02*
X11Y520D01*
X2703Y520D02*
X2703Y520D01*
X11Y519D02*
X11Y519D01*
X2703Y519D02*
X2703Y519D01*
X11Y518D02*
X11Y518D01*
X2703Y518D02*
X2703Y518D01*
X11Y517D02*
X11Y517D01*
X2703Y517D02*
X2703Y517D01*
X11Y516D02*
X11Y516D01*
X2703Y516D02*
X2703Y516D01*
X11Y515D02*
X11Y515D01*
X2703Y515D02*
X2703Y515D01*
X11Y514D02*
X11Y514D01*
X2703Y514D02*
X2703Y514D01*
X11Y513D02*
X11Y513D01*
X2703Y513D02*
X2703Y513D01*
X11Y512D02*
X11Y512D01*
X2703Y512D02*
X2703Y512D01*
X11Y511D02*
X11Y511D01*
X2703Y511D02*
X2703Y511D01*
X11Y510D02*
X11Y510D01*
X2703Y510D02*
X2703Y510D01*
X11Y509D02*
X11Y509D01*
X2703Y509D02*
X2703Y509D01*
X11Y508D02*
X11Y508D01*
X2703Y508D02*
X2703Y508D01*
X11Y507D02*
X11Y507D01*
X2703Y507D02*
X2703Y507D01*
X11Y506D02*
X11Y506D01*
X2703Y506D02*
X2703Y506D01*
X11Y505D02*
X11Y505D01*
X2703Y505D02*
X2703Y505D01*
X11Y504D02*
X11Y504D01*
X2703Y504D02*
X2703Y504D01*
X11Y503D02*
X11Y503D01*
X2703Y503D02*
X2703Y503D01*
X11Y502D02*
X11Y502D01*
X2703Y502D02*
X2703Y502D01*
X11Y501D02*
X11Y501D01*
X2703Y501D02*
X2703Y501D01*
X11Y500D02*
X11Y500D01*
X2703Y500D02*
X2703Y500D01*
X11Y499D02*
X11Y499D01*
X2703Y499D02*
X2703Y499D01*
X11Y498D02*
X11Y498D01*
X2703Y498D02*
X2703Y498D01*
X11Y497D02*
X11Y497D01*
X2703Y497D02*
X2703Y497D01*
X11Y496D02*
X11Y496D01*
X2703Y496D02*
X2703Y496D01*
X11Y495D02*
X11Y495D01*
X2703Y495D02*
X2703Y495D01*
X11Y494D02*
X11Y494D01*
X2703Y494D02*
X2703Y494D01*
X11Y493D02*
X11Y493D01*
X2703Y493D02*
X2703Y493D01*
X11Y492D02*
X11Y492D01*
X2703Y492D02*
X2703Y492D01*
X11Y491D02*
X11Y491D01*
X2703Y491D02*
X2703Y491D01*
X11Y490D02*
X11Y490D01*
X2703Y490D02*
X2703Y490D01*
X11Y489D02*
X11Y489D01*
X2703Y489D02*
X2703Y489D01*
X11Y488D02*
X11Y488D01*
X2703Y488D02*
X2703Y488D01*
X11Y487D02*
X11Y487D01*
X2703Y487D02*
X2703Y487D01*
X11Y486D02*
X11Y486D01*
X2703Y486D02*
X2703Y486D01*
X11Y485D02*
X11Y485D01*
X2703Y485D02*
X2703Y485D01*
X11Y484D02*
X11Y484D01*
X2703Y484D02*
X2703Y484D01*
X11Y483D02*
X11Y483D01*
X2703Y483D02*
X2703Y483D01*
X11Y482D02*
X11Y482D01*
X2703Y482D02*
X2703Y482D01*
X11Y481D02*
X11Y481D01*
X2703Y481D02*
X2703Y481D01*
X11Y480D02*
X11Y480D01*
X2703Y480D02*
X2703Y480D01*
X11Y479D02*
X11Y479D01*
X2703Y479D02*
X2703Y479D01*
X11Y478D02*
X11Y478D01*
X2703Y478D02*
X2703Y478D01*
X11Y477D02*
X11Y477D01*
X2703Y477D02*
X2703Y477D01*
X11Y476D02*
X11Y476D01*
X2703Y476D02*
X2703Y476D01*
X11Y475D02*
X11Y475D01*
X2703Y475D02*
X2703Y475D01*
X11Y474D02*
X11Y474D01*
X2703Y474D02*
X2703Y474D01*
X11Y473D02*
X11Y473D01*
X2703Y473D02*
X2703Y473D01*
X11Y472D02*
X11Y472D01*
X2703Y472D02*
X2703Y472D01*
X11Y471D02*
X11Y471D01*
X2703Y471D02*
X2703Y471D01*
X11Y470D02*
X11Y470D01*
X2703Y470D02*
X2703Y470D01*
X11Y469D02*
X11Y469D01*
X2703Y469D02*
X2703Y469D01*
X11Y468D02*
X11Y468D01*
X2703Y468D02*
X2703Y468D01*
X11Y467D02*
X11Y467D01*
X2703Y467D02*
X2703Y467D01*
X11Y466D02*
X11Y466D01*
X2703Y466D02*
X2703Y466D01*
X11Y465D02*
X11Y465D01*
X2703Y465D02*
X2703Y465D01*
X11Y464D02*
X11Y464D01*
X2703Y464D02*
X2703Y464D01*
X11Y463D02*
X11Y463D01*
X2703Y463D02*
X2703Y463D01*
X11Y462D02*
X11Y462D01*
X2703Y462D02*
X2703Y462D01*
X11Y461D02*
X11Y461D01*
X2703Y461D02*
X2703Y461D01*
X11Y460D02*
X11Y460D01*
X2703Y460D02*
X2703Y460D01*
X11Y459D02*
X11Y459D01*
X2703Y459D02*
X2703Y459D01*
X11Y458D02*
X11Y458D01*
X2703Y458D02*
X2703Y458D01*
X11Y457D02*
X11Y457D01*
X2703Y457D02*
X2703Y457D01*
X11Y456D02*
X11Y456D01*
X2703Y456D02*
X2703Y456D01*
X11Y455D02*
X11Y455D01*
X2703Y455D02*
X2703Y455D01*
X11Y454D02*
X11Y454D01*
X2703Y454D02*
X2703Y454D01*
X11Y453D02*
X11Y453D01*
X2703Y453D02*
X2703Y453D01*
X11Y452D02*
X11Y452D01*
X2703Y452D02*
X2703Y452D01*
X11Y451D02*
X11Y451D01*
X2703Y451D02*
X2703Y451D01*
X11Y450D02*
X11Y450D01*
X2703Y450D02*
X2703Y450D01*
X11Y449D02*
X11Y449D01*
X2703Y449D02*
X2703Y449D01*
X11Y448D02*
X11Y448D01*
X2703Y448D02*
X2703Y448D01*
X11Y447D02*
X11Y447D01*
X2703Y447D02*
X2703Y447D01*
X11Y446D02*
X11Y446D01*
X2703Y446D02*
X2703Y446D01*
X11Y445D02*
X11Y445D01*
X2703Y445D02*
X2703Y445D01*
X11Y444D02*
X11Y444D01*
X2703Y444D02*
X2703Y444D01*
X11Y443D02*
X11Y443D01*
X2703Y443D02*
X2703Y443D01*
X11Y442D02*
X11Y442D01*
X2703Y442D02*
X2703Y442D01*
X11Y441D02*
X11Y441D01*
X2703Y441D02*
X2703Y441D01*
X11Y440D02*
X11Y440D01*
X2703Y440D02*
X2703Y440D01*
X11Y439D02*
X11Y439D01*
X2703Y439D02*
X2703Y439D01*
X11Y438D02*
X11Y438D01*
X2703Y438D02*
X2703Y438D01*
X11Y437D02*
X11Y437D01*
X2703Y437D02*
X2703Y437D01*
X11Y436D02*
X11Y436D01*
X2703Y436D02*
X2703Y436D01*
X11Y435D02*
X11Y435D01*
X2703Y435D02*
X2703Y435D01*
X11Y434D02*
X11Y434D01*
X2703Y434D02*
X2703Y434D01*
X11Y433D02*
X11Y433D01*
X2703Y433D02*
X2703Y433D01*
X11Y432D02*
X11Y432D01*
X2703Y432D02*
X2703Y432D01*
X11Y431D02*
X11Y431D01*
X2703Y431D02*
X2703Y431D01*
X11Y430D02*
X11Y430D01*
X2703Y430D02*
X2703Y430D01*
X11Y429D02*
X11Y429D01*
X2703Y429D02*
X2703Y429D01*
X11Y428D02*
X11Y428D01*
X2703Y428D02*
X2703Y428D01*
X11Y427D02*
X11Y427D01*
X2703Y427D02*
X2703Y427D01*
X11Y426D02*
X11Y426D01*
X2703Y426D02*
X2703Y426D01*
X11Y425D02*
X11Y425D01*
X2703Y425D02*
X2703Y425D01*
X11Y424D02*
X11Y424D01*
X2703Y424D02*
X2703Y424D01*
X11Y423D02*
X11Y423D01*
X2703Y423D02*
X2703Y423D01*
X11Y422D02*
X11Y422D01*
X2703Y422D02*
X2703Y422D01*
X11Y421D02*
X11Y421D01*
X2703Y421D02*
X2703Y421D01*
X11Y420D02*
X11Y420D01*
X2703Y420D02*
X2703Y420D01*
X11Y419D02*
X11Y419D01*
X2703Y419D02*
X2703Y419D01*
X11Y418D02*
X11Y418D01*
X2703Y418D02*
X2703Y418D01*
X11Y417D02*
X11Y417D01*
X2703Y417D02*
X2703Y417D01*
X11Y416D02*
X11Y416D01*
X2703Y416D02*
X2703Y416D01*
X11Y415D02*
X11Y415D01*
X2703Y415D02*
X2703Y415D01*
X11Y414D02*
X11Y414D01*
X2703Y414D02*
X2703Y414D01*
X11Y413D02*
X11Y413D01*
X2703Y413D02*
X2703Y413D01*
X11Y412D02*
X11Y412D01*
X2703Y412D02*
X2703Y412D01*
X11Y411D02*
X11Y411D01*
X2703Y411D02*
X2703Y411D01*
X11Y410D02*
X11Y410D01*
X2703Y410D02*
X2703Y410D01*
X11Y409D02*
X11Y409D01*
X2703Y409D02*
X2703Y409D01*
X11Y408D02*
X11Y408D01*
X2703Y408D02*
X2703Y408D01*
X11Y407D02*
X11Y407D01*
X2703Y407D02*
X2703Y407D01*
X11Y406D02*
X11Y406D01*
X2703Y406D02*
X2703Y406D01*
X11Y405D02*
X11Y405D01*
X2703Y405D02*
X2703Y405D01*
X11Y404D02*
X11Y404D01*
X2703Y404D02*
X2703Y404D01*
X11Y403D02*
X11Y403D01*
X2703Y403D02*
X2703Y403D01*
X11Y402D02*
X11Y402D01*
X2703Y402D02*
X2703Y402D01*
X11Y401D02*
X11Y401D01*
X2703Y401D02*
X2703Y401D01*
X11Y400D02*
X11Y400D01*
X2703Y400D02*
X2703Y400D01*
X11Y399D02*
X11Y399D01*
X2703Y399D02*
X2703Y399D01*
X11Y398D02*
X11Y398D01*
X2703Y398D02*
X2703Y398D01*
X11Y397D02*
X11Y397D01*
X2703Y397D02*
X2703Y397D01*
X11Y396D02*
X11Y396D01*
X2703Y396D02*
X2703Y396D01*
X11Y395D02*
X11Y395D01*
X2703Y395D02*
X2703Y395D01*
X11Y394D02*
X11Y394D01*
X2703Y394D02*
X2703Y394D01*
X11Y393D02*
X11Y393D01*
X2703Y393D02*
X2703Y393D01*
X11Y392D02*
X11Y392D01*
X2703Y392D02*
X2703Y392D01*
X11Y391D02*
X11Y391D01*
X2703Y391D02*
X2703Y391D01*
X11Y390D02*
X11Y390D01*
X2703Y390D02*
X2703Y390D01*
X11Y389D02*
X11Y389D01*
X2703Y389D02*
X2703Y389D01*
X11Y388D02*
X11Y388D01*
X2703Y388D02*
X2703Y388D01*
X11Y387D02*
X11Y387D01*
X2703Y387D02*
X2703Y387D01*
X11Y386D02*
X11Y386D01*
X2703Y386D02*
X2703Y386D01*
X11Y385D02*
X11Y385D01*
X2703Y385D02*
X2703Y385D01*
X11Y384D02*
X11Y384D01*
X2703Y384D02*
X2703Y384D01*
X11Y383D02*
X11Y383D01*
X2703Y383D02*
X2703Y383D01*
X11Y382D02*
X11Y382D01*
X2703Y382D02*
X2703Y382D01*
X11Y381D02*
X11Y381D01*
X2703Y381D02*
X2703Y381D01*
X11Y380D02*
X11Y380D01*
X2703Y380D02*
X2703Y380D01*
X11Y379D02*
X11Y379D01*
X2703Y379D02*
X2703Y379D01*
X11Y378D02*
X11Y378D01*
X2703Y378D02*
X2703Y378D01*
X11Y377D02*
X11Y377D01*
X2703Y377D02*
X2703Y377D01*
X11Y376D02*
X11Y376D01*
X2703Y376D02*
X2703Y376D01*
X11Y375D02*
X11Y375D01*
X2703Y375D02*
X2703Y375D01*
X11Y374D02*
X11Y374D01*
X2703Y374D02*
X2703Y374D01*
X11Y373D02*
X11Y373D01*
X2703Y373D02*
X2703Y373D01*
X11Y372D02*
X11Y372D01*
X2703Y372D02*
X2703Y372D01*
X11Y371D02*
X11Y371D01*
X2703Y371D02*
X2703Y371D01*
X11Y370D02*
X11Y370D01*
X2703Y370D02*
X2703Y370D01*
X11Y369D02*
X11Y369D01*
X2703Y369D02*
X2703Y369D01*
X11Y368D02*
X11Y368D01*
X2703Y368D02*
X2703Y368D01*
X11Y367D02*
X11Y367D01*
X2703Y367D02*
X2703Y367D01*
X11Y366D02*
X11Y366D01*
X2703Y366D02*
X2703Y366D01*
X11Y365D02*
X11Y365D01*
X2703Y365D02*
X2703Y365D01*
X11Y364D02*
X11Y364D01*
X2703Y364D02*
X2703Y364D01*
X11Y363D02*
X11Y363D01*
X2703Y363D02*
X2703Y363D01*
X11Y362D02*
X11Y362D01*
X2703Y362D02*
X2703Y362D01*
X11Y361D02*
X11Y361D01*
X2703Y361D02*
X2703Y361D01*
X11Y360D02*
X11Y360D01*
X2703Y360D02*
X2703Y360D01*
X11Y359D02*
X11Y359D01*
X2703Y359D02*
X2703Y359D01*
X11Y358D02*
X11Y358D01*
X2703Y358D02*
X2703Y358D01*
X11Y357D02*
X11Y357D01*
X2703Y357D02*
X2703Y357D01*
X11Y356D02*
X11Y356D01*
X2703Y356D02*
X2703Y356D01*
X11Y355D02*
X11Y355D01*
X2703Y355D02*
X2703Y355D01*
X11Y354D02*
X11Y354D01*
X2703Y354D02*
X2703Y354D01*
X11Y353D02*
X11Y353D01*
X2703Y353D02*
X2703Y353D01*
X11Y352D02*
X11Y352D01*
X2703Y352D02*
X2703Y352D01*
X11Y351D02*
X11Y351D01*
X2703Y351D02*
X2703Y351D01*
X11Y350D02*
X11Y350D01*
X2703Y350D02*
X2703Y350D01*
X11Y349D02*
X11Y349D01*
X2703Y349D02*
X2703Y349D01*
X11Y348D02*
X11Y348D01*
X2703Y348D02*
X2703Y348D01*
X11Y347D02*
X11Y347D01*
X2703Y347D02*
X2703Y347D01*
X11Y346D02*
X11Y346D01*
X2703Y346D02*
X2703Y346D01*
X11Y345D02*
X11Y345D01*
X2703Y345D02*
X2703Y345D01*
X11Y344D02*
X11Y344D01*
X2703Y344D02*
X2703Y344D01*
X11Y343D02*
X11Y343D01*
X2703Y343D02*
X2703Y343D01*
X11Y342D02*
X11Y342D01*
X2703Y342D02*
X2703Y342D01*
X11Y341D02*
X11Y341D01*
X2703Y341D02*
X2703Y341D01*
X11Y340D02*
X11Y340D01*
X2703Y340D02*
X2703Y340D01*
X11Y339D02*
X11Y339D01*
X2703Y339D02*
X2703Y339D01*
X11Y338D02*
X11Y338D01*
X2703Y338D02*
X2703Y338D01*
X11Y337D02*
X11Y337D01*
X2703Y337D02*
X2703Y337D01*
X11Y336D02*
X11Y336D01*
X2703Y336D02*
X2703Y336D01*
X11Y335D02*
X11Y335D01*
X2703Y335D02*
X2703Y335D01*
X11Y334D02*
X11Y334D01*
X2703Y334D02*
X2703Y334D01*
X11Y333D02*
X11Y333D01*
X2703Y333D02*
X2703Y333D01*
X11Y332D02*
X11Y332D01*
X2703Y332D02*
X2703Y332D01*
X11Y331D02*
X11Y331D01*
X2703Y331D02*
X2703Y331D01*
X11Y330D02*
X11Y330D01*
X2703Y330D02*
X2703Y330D01*
X11Y329D02*
X11Y329D01*
X2703Y329D02*
X2703Y329D01*
X11Y328D02*
X11Y328D01*
X2703Y328D02*
X2703Y328D01*
X11Y327D02*
X11Y327D01*
X2703Y327D02*
X2703Y327D01*
X11Y326D02*
X11Y326D01*
X2703Y326D02*
X2703Y326D01*
X11Y325D02*
X11Y325D01*
X2703Y325D02*
X2703Y325D01*
X11Y324D02*
X11Y324D01*
X2703Y324D02*
X2703Y324D01*
X11Y323D02*
X11Y323D01*
X2703Y323D02*
X2703Y323D01*
X11Y322D02*
X11Y322D01*
X2703Y322D02*
X2703Y322D01*
X11Y321D02*
X11Y321D01*
X2703Y321D02*
X2703Y321D01*
X11Y320D02*
X11Y320D01*
X2703Y320D02*
X2703Y320D01*
X11Y319D02*
X11Y319D01*
X2703Y319D02*
X2703Y319D01*
X11Y318D02*
X11Y318D01*
X2703Y318D02*
X2703Y318D01*
X11Y317D02*
X11Y317D01*
X2703Y317D02*
X2703Y317D01*
X11Y316D02*
X11Y316D01*
X2703Y316D02*
X2703Y316D01*
X11Y315D02*
X11Y315D01*
X2703Y315D02*
X2703Y315D01*
X11Y314D02*
X11Y314D01*
X2703Y314D02*
X2703Y314D01*
X11Y313D02*
X11Y313D01*
X2703Y313D02*
X2703Y313D01*
X11Y312D02*
X11Y312D01*
X2703Y312D02*
X2703Y312D01*
X11Y311D02*
X11Y311D01*
X2703Y311D02*
X2703Y311D01*
X11Y310D02*
X11Y310D01*
X2703Y310D02*
X2703Y310D01*
X11Y309D02*
X11Y309D01*
X2703Y309D02*
X2703Y309D01*
X11Y308D02*
X11Y308D01*
X2703Y308D02*
X2703Y308D01*
X11Y307D02*
X11Y307D01*
X2703Y307D02*
X2703Y307D01*
X11Y306D02*
X11Y306D01*
X2703Y306D02*
X2703Y306D01*
X11Y305D02*
X11Y305D01*
X2703Y305D02*
X2703Y305D01*
X11Y304D02*
X11Y304D01*
X2703Y304D02*
X2703Y304D01*
X11Y303D02*
X11Y303D01*
X2703Y303D02*
X2703Y303D01*
X11Y302D02*
X11Y302D01*
X2703Y302D02*
X2703Y302D01*
X11Y301D02*
X11Y301D01*
X2703Y301D02*
X2703Y301D01*
X11Y300D02*
X11Y300D01*
X2703Y300D02*
X2703Y300D01*
X11Y299D02*
X11Y299D01*
X2703Y299D02*
X2703Y299D01*
X11Y298D02*
X11Y298D01*
X2703Y298D02*
X2703Y298D01*
X11Y297D02*
X11Y297D01*
X2703Y297D02*
X2703Y297D01*
X11Y296D02*
X11Y296D01*
X2703Y296D02*
X2703Y296D01*
X11Y295D02*
X11Y295D01*
X2703Y295D02*
X2703Y295D01*
X11Y294D02*
X11Y294D01*
X2703Y294D02*
X2703Y294D01*
X11Y293D02*
X11Y293D01*
X2703Y293D02*
X2703Y293D01*
X11Y292D02*
X11Y292D01*
X2703Y292D02*
X2703Y292D01*
X11Y291D02*
X11Y291D01*
X2703Y291D02*
X2703Y291D01*
X11Y290D02*
X11Y290D01*
X2703Y290D02*
X2703Y290D01*
X11Y289D02*
X11Y289D01*
X2703Y289D02*
X2703Y289D01*
X11Y288D02*
X11Y288D01*
X2703Y288D02*
X2703Y288D01*
X11Y287D02*
X11Y287D01*
X2703Y287D02*
X2703Y287D01*
X11Y286D02*
X11Y286D01*
X2703Y286D02*
X2703Y286D01*
X11Y285D02*
X11Y285D01*
X2703Y285D02*
X2703Y285D01*
X11Y284D02*
X11Y284D01*
X2703Y284D02*
X2703Y284D01*
X11Y283D02*
X11Y283D01*
X2703Y283D02*
X2703Y283D01*
X11Y282D02*
X11Y282D01*
X2703Y282D02*
X2703Y282D01*
X11Y281D02*
X11Y281D01*
X2703Y281D02*
X2703Y281D01*
X11Y280D02*
X11Y280D01*
X2703Y280D02*
X2703Y280D01*
X11Y279D02*
X11Y279D01*
X2703Y279D02*
X2703Y279D01*
X11Y278D02*
X11Y278D01*
X2703Y278D02*
X2703Y278D01*
X11Y277D02*
X11Y277D01*
X2703Y277D02*
X2703Y277D01*
X11Y276D02*
X11Y276D01*
X2703Y276D02*
X2703Y276D01*
X11Y275D02*
X11Y275D01*
X2703Y275D02*
X2703Y275D01*
X11Y274D02*
X11Y274D01*
X2703Y274D02*
X2703Y274D01*
X11Y273D02*
X11Y273D01*
X2703Y273D02*
X2703Y273D01*
X11Y272D02*
X11Y272D01*
X2703Y272D02*
X2703Y272D01*
X11Y271D02*
X11Y271D01*
X2703Y271D02*
X2703Y271D01*
X11Y270D02*
X11Y270D01*
X2703Y270D02*
X2703Y270D01*
X11Y269D02*
X11Y269D01*
X2703Y269D02*
X2703Y269D01*
X11Y268D02*
X11Y268D01*
X2703Y268D02*
X2703Y268D01*
X11Y267D02*
X11Y267D01*
X2703Y267D02*
X2703Y267D01*
X11Y266D02*
X11Y266D01*
X2703Y266D02*
X2703Y266D01*
X11Y265D02*
X11Y265D01*
X2703Y265D02*
X2703Y265D01*
X11Y264D02*
X11Y264D01*
X2703Y264D02*
X2703Y264D01*
X11Y263D02*
X11Y263D01*
X2703Y263D02*
X2703Y263D01*
X11Y262D02*
X11Y262D01*
X2703Y262D02*
X2703Y262D01*
X11Y261D02*
X11Y261D01*
X2703Y261D02*
X2703Y261D01*
X11Y260D02*
X11Y260D01*
X2703Y260D02*
X2703Y260D01*
X11Y259D02*
X11Y259D01*
X2703Y259D02*
X2703Y259D01*
X11Y258D02*
X11Y258D01*
X2703Y258D02*
X2703Y258D01*
X11Y257D02*
X11Y257D01*
X2703Y257D02*
X2703Y257D01*
X11Y256D02*
X11Y256D01*
X2703Y256D02*
X2703Y256D01*
X11Y255D02*
X11Y255D01*
X2703Y255D02*
X2703Y255D01*
X11Y254D02*
X11Y254D01*
X2703Y254D02*
X2703Y254D01*
X11Y253D02*
X11Y253D01*
X2703Y253D02*
X2703Y253D01*
X11Y252D02*
X11Y252D01*
X2703Y252D02*
X2703Y252D01*
X11Y251D02*
X11Y251D01*
X2703Y251D02*
X2703Y251D01*
X11Y250D02*
X11Y250D01*
X2703Y250D02*
X2703Y250D01*
X11Y249D02*
X11Y249D01*
X2703Y249D02*
X2703Y249D01*
X11Y248D02*
X11Y248D01*
X2703Y248D02*
X2703Y248D01*
X11Y247D02*
X11Y247D01*
X2703Y247D02*
X2703Y247D01*
X11Y246D02*
X11Y246D01*
X2703Y246D02*
X2703Y246D01*
X11Y245D02*
X11Y245D01*
X2703Y245D02*
X2703Y245D01*
X11Y244D02*
X11Y244D01*
X2703Y244D02*
X2703Y244D01*
X11Y243D02*
X11Y243D01*
X2703Y243D02*
X2703Y243D01*
X11Y242D02*
X11Y242D01*
X2703Y242D02*
X2703Y242D01*
X11Y241D02*
X11Y241D01*
X2703Y241D02*
X2703Y241D01*
X11Y240D02*
X11Y240D01*
X2703Y240D02*
X2703Y240D01*
X11Y239D02*
X11Y239D01*
X2703Y239D02*
X2703Y239D01*
X11Y238D02*
X11Y238D01*
X2703Y238D02*
X2703Y238D01*
X11Y237D02*
X11Y237D01*
X2703Y237D02*
X2703Y237D01*
X11Y236D02*
X11Y236D01*
X2703Y236D02*
X2703Y236D01*
X11Y235D02*
X11Y235D01*
X2703Y235D02*
X2703Y235D01*
X11Y234D02*
X11Y234D01*
X2703Y234D02*
X2703Y234D01*
X11Y233D02*
X11Y233D01*
X2703Y233D02*
X2703Y233D01*
X11Y232D02*
X11Y232D01*
X2703Y232D02*
X2703Y232D01*
X11Y231D02*
X11Y231D01*
X2703Y231D02*
X2703Y231D01*
X11Y230D02*
X11Y230D01*
X2703Y230D02*
X2703Y230D01*
X11Y229D02*
X11Y229D01*
X2703Y229D02*
X2703Y229D01*
X11Y228D02*
X11Y228D01*
X2703Y228D02*
X2703Y228D01*
X11Y227D02*
X11Y227D01*
X2703Y227D02*
X2703Y227D01*
X11Y226D02*
X11Y226D01*
X2703Y226D02*
X2703Y226D01*
X11Y225D02*
X11Y225D01*
X2703Y225D02*
X2703Y225D01*
X11Y224D02*
X11Y224D01*
X2703Y224D02*
X2703Y224D01*
X11Y223D02*
X11Y223D01*
X2703Y223D02*
X2703Y223D01*
X11Y222D02*
X11Y222D01*
X2703Y222D02*
X2703Y222D01*
X11Y221D02*
X11Y221D01*
X2703Y221D02*
X2703Y221D01*
X11Y220D02*
X11Y220D01*
X2703Y220D02*
X2703Y220D01*
X11Y219D02*
X11Y219D01*
X2703Y219D02*
X2703Y219D01*
X11Y218D02*
X11Y218D01*
X2703Y218D02*
X2703Y218D01*
X11Y217D02*
X11Y217D01*
X2703Y217D02*
X2703Y217D01*
X11Y216D02*
X11Y216D01*
X2703Y216D02*
X2703Y216D01*
X11Y215D02*
X11Y215D01*
X2703Y215D02*
X2703Y215D01*
X11Y214D02*
X11Y214D01*
X2703Y214D02*
X2703Y214D01*
X11Y213D02*
X11Y213D01*
X2703Y213D02*
X2703Y213D01*
X11Y212D02*
X11Y212D01*
X2703Y212D02*
X2703Y212D01*
X11Y211D02*
X11Y211D01*
X2703Y211D02*
X2703Y211D01*
X11Y210D02*
X11Y210D01*
X2703Y210D02*
X2703Y210D01*
X11Y209D02*
X11Y209D01*
X2703Y209D02*
X2703Y209D01*
X11Y208D02*
X11Y208D01*
X2703Y208D02*
X2703Y208D01*
X11Y207D02*
X11Y207D01*
X2702Y207D02*
X2702Y207D01*
X11Y206D02*
X11Y206D01*
X2701Y206D02*
X2701Y206D01*
X11Y205D02*
X11Y205D01*
X2700Y205D02*
X2700Y205D01*
X11Y204D02*
X11Y204D01*
X2699Y204D02*
X2699Y204D01*
X11Y203D02*
X11Y203D01*
X2698Y203D02*
X2698Y203D01*
X11Y202D02*
X11Y202D01*
X2697Y202D02*
X2697Y202D01*
X11Y201D02*
X11Y201D01*
X2696Y201D02*
X2696Y201D01*
X11Y200D02*
X11Y200D01*
X2695Y200D02*
X2695Y200D01*
X11Y199D02*
X11Y199D01*
X2694Y199D02*
X2694Y199D01*
X11Y198D02*
X11Y198D01*
X2693Y198D02*
X2693Y198D01*
X11Y197D02*
X11Y197D01*
X2692Y197D02*
X2692Y197D01*
X11Y196D02*
X11Y196D01*
X2691Y196D02*
X2691Y196D01*
X11Y195D02*
X11Y195D01*
X2690Y195D02*
X2690Y195D01*
X11Y194D02*
X11Y194D01*
X2689Y194D02*
X2689Y194D01*
X11Y193D02*
X11Y193D01*
X2688Y193D02*
X2688Y193D01*
X11Y192D02*
X11Y192D01*
X2687Y192D02*
X2687Y192D01*
X11Y191D02*
X11Y191D01*
X2686Y191D02*
X2686Y191D01*
X11Y190D02*
X11Y190D01*
X2685Y190D02*
X2685Y190D01*
X11Y189D02*
X11Y189D01*
X2684Y189D02*
X2684Y189D01*
X11Y188D02*
X11Y188D01*
X2683Y188D02*
X2683Y188D01*
X11Y187D02*
X11Y187D01*
X2682Y187D02*
X2682Y187D01*
X11Y186D02*
X11Y186D01*
X2681Y186D02*
X2681Y186D01*
X11Y185D02*
X11Y185D01*
X2680Y185D02*
X2680Y185D01*
X11Y184D02*
X11Y184D01*
X2679Y184D02*
X2679Y184D01*
X11Y183D02*
X11Y183D01*
X2678Y183D02*
X2678Y183D01*
X11Y182D02*
X11Y182D01*
X2677Y182D02*
X2677Y182D01*
X11Y181D02*
X11Y181D01*
X2676Y181D02*
X2676Y181D01*
X11Y180D02*
X11Y180D01*
X2675Y180D02*
X2675Y180D01*
X11Y179D02*
X11Y179D01*
X2674Y179D02*
X2674Y179D01*
X11Y178D02*
X11Y178D01*
X2673Y178D02*
X2673Y178D01*
X11Y177D02*
X11Y177D01*
X2672Y177D02*
X2672Y177D01*
X11Y176D02*
X11Y176D01*
X2671Y176D02*
X2671Y176D01*
X11Y175D02*
X11Y175D01*
X2670Y175D02*
X2670Y175D01*
X11Y174D02*
X11Y174D01*
X2669Y174D02*
X2669Y174D01*
X11Y173D02*
X11Y173D01*
X2668Y173D02*
X2668Y173D01*
X11Y172D02*
X11Y172D01*
X2667Y172D02*
X2667Y172D01*
X11Y171D02*
X11Y171D01*
X2666Y171D02*
X2666Y171D01*
X11Y170D02*
X11Y170D01*
X2665Y170D02*
X2665Y170D01*
X11Y169D02*
X11Y169D01*
X2664Y169D02*
X2664Y169D01*
X11Y168D02*
X11Y168D01*
X2663Y168D02*
X2663Y168D01*
X11Y167D02*
X11Y167D01*
X2662Y167D02*
X2662Y167D01*
X11Y166D02*
X11Y166D01*
X2661Y166D02*
X2661Y166D01*
X11Y165D02*
X11Y165D01*
X2660Y165D02*
X2660Y165D01*
X11Y164D02*
X11Y164D01*
X2659Y164D02*
X2659Y164D01*
X11Y163D02*
X11Y163D01*
X2658Y163D02*
X2658Y163D01*
X11Y162D02*
X11Y162D01*
X2657Y162D02*
X2657Y162D01*
X11Y161D02*
X11Y161D01*
X2656Y161D02*
X2656Y161D01*
X11Y160D02*
X11Y160D01*
X2655Y160D02*
X2655Y160D01*
X11Y159D02*
X11Y159D01*
X2654Y159D02*
X2654Y159D01*
X11Y158D02*
X11Y158D01*
X2653Y158D02*
X2653Y158D01*
X11Y157D02*
X11Y157D01*
X2652Y157D02*
X2652Y157D01*
X11Y156D02*
X11Y156D01*
X2651Y156D02*
X2651Y156D01*
X11Y155D02*
X11Y155D01*
X2650Y155D02*
X2650Y155D01*
X11Y154D02*
X11Y154D01*
X2649Y154D02*
X2649Y154D01*
X11Y153D02*
X11Y153D01*
X2648Y153D02*
X2648Y153D01*
X11Y152D02*
X11Y152D01*
X2647Y152D02*
X2647Y152D01*
X11Y151D02*
X11Y151D01*
X2646Y151D02*
X2646Y151D01*
X11Y150D02*
X11Y150D01*
X2645Y150D02*
X2645Y150D01*
X11Y149D02*
X11Y149D01*
X2644Y149D02*
X2644Y149D01*
X11Y148D02*
X11Y148D01*
X2643Y148D02*
X2643Y148D01*
X11Y147D02*
X11Y147D01*
X2642Y147D02*
X2642Y147D01*
X11Y146D02*
X11Y146D01*
X2641Y146D02*
X2641Y146D01*
X11Y145D02*
X11Y145D01*
X2640Y145D02*
X2640Y145D01*
X11Y144D02*
X11Y144D01*
X2639Y144D02*
X2639Y144D01*
X11Y143D02*
X11Y143D01*
X2638Y143D02*
X2638Y143D01*
X11Y142D02*
X11Y142D01*
X2637Y142D02*
X2637Y142D01*
X11Y141D02*
X11Y141D01*
X2636Y141D02*
X2636Y141D01*
X11Y140D02*
X11Y140D01*
X2635Y140D02*
X2635Y140D01*
X11Y139D02*
X11Y139D01*
X2634Y139D02*
X2634Y139D01*
X11Y138D02*
X11Y138D01*
X2633Y138D02*
X2633Y138D01*
X11Y137D02*
X11Y137D01*
X2632Y137D02*
X2632Y137D01*
X11Y136D02*
X11Y136D01*
X2631Y136D02*
X2631Y136D01*
X11Y135D02*
X11Y135D01*
X2630Y135D02*
X2630Y135D01*
X11Y134D02*
X11Y134D01*
X2629Y134D02*
X2629Y134D01*
X11Y133D02*
X11Y133D01*
X2628Y133D02*
X2628Y133D01*
X11Y132D02*
X11Y132D01*
X2627Y132D02*
X2627Y132D01*
X11Y131D02*
X11Y131D01*
X2626Y131D02*
X2626Y131D01*
X11Y130D02*
X11Y130D01*
X2625Y130D02*
X2625Y130D01*
X11Y129D02*
X11Y129D01*
X2624Y129D02*
X2624Y129D01*
X11Y128D02*
X11Y128D01*
X2623Y128D02*
X2623Y128D01*
X11Y127D02*
X11Y127D01*
X2622Y127D02*
X2622Y127D01*
X11Y126D02*
X11Y126D01*
X2621Y126D02*
X2621Y126D01*
X11Y125D02*
X11Y125D01*
X2620Y125D02*
X2620Y125D01*
X11Y124D02*
X11Y124D01*
X2619Y124D02*
X2619Y124D01*
X11Y123D02*
X11Y123D01*
X2618Y123D02*
X2618Y123D01*
X11Y122D02*
X11Y122D01*
X2617Y122D02*
X2617Y122D01*
X11Y121D02*
X11Y121D01*
X2616Y121D02*
X2616Y121D01*
X11Y120D02*
X11Y120D01*
X2615Y120D02*
X2615Y120D01*
X11Y119D02*
X11Y119D01*
X2614Y119D02*
X2614Y119D01*
X11Y118D02*
X11Y118D01*
X2613Y118D02*
X2613Y118D01*
X11Y117D02*
X11Y117D01*
X2612Y117D02*
X2612Y117D01*
X11Y116D02*
X11Y116D01*
X2611Y116D02*
X2611Y116D01*
X11Y115D02*
X11Y115D01*
X2610Y115D02*
X2610Y115D01*
X11Y114D02*
X11Y114D01*
X2609Y114D02*
X2609Y114D01*
X11Y113D02*
X11Y113D01*
X2608Y113D02*
X2608Y113D01*
X11Y112D02*
X11Y112D01*
X2607Y112D02*
X2607Y112D01*
X11Y111D02*
X11Y111D01*
X2606Y111D02*
X2606Y111D01*
X11Y110D02*
X11Y110D01*
X2605Y110D02*
X2605Y110D01*
X11Y109D02*
X11Y109D01*
X2604Y109D02*
X2604Y109D01*
X11Y108D02*
X11Y108D01*
X2603Y108D02*
X2603Y108D01*
X11Y107D02*
X11Y107D01*
X2603Y107D02*
X2603Y107D01*
X11Y106D02*
X11Y106D01*
X2603Y106D02*
X2603Y106D01*
X11Y105D02*
X11Y105D01*
X2603Y105D02*
X2603Y105D01*
X11Y104D02*
X11Y104D01*
X2603Y104D02*
X2603Y104D01*
X11Y103D02*
X11Y103D01*
X2603Y103D02*
X2603Y103D01*
X11Y102D02*
X11Y102D01*
X2603Y102D02*
X2603Y102D01*
X11Y101D02*
X11Y101D01*
X2603Y101D02*
X2603Y101D01*
X11Y100D02*
X11Y100D01*
X2603Y100D02*
X2603Y100D01*
X11Y99D02*
X11Y99D01*
X2603Y99D02*
X2603Y99D01*
X11Y98D02*
X11Y98D01*
X2603Y98D02*
X2603Y98D01*
X11Y97D02*
X11Y97D01*
X2603Y97D02*
X2603Y97D01*
X11Y96D02*
X11Y96D01*
X2603Y96D02*
X2603Y96D01*
X11Y95D02*
X11Y95D01*
X2603Y95D02*
X2603Y95D01*
X11Y94D02*
X11Y94D01*
X2603Y94D02*
X2603Y94D01*
X11Y93D02*
X11Y93D01*
X2603Y93D02*
X2603Y93D01*
X11Y92D02*
X11Y92D01*
X2603Y92D02*
X2603Y92D01*
X11Y91D02*
X11Y91D01*
X2603Y91D02*
X2603Y91D01*
X11Y90D02*
X11Y90D01*
X2603Y90D02*
X2603Y90D01*
X11Y89D02*
X11Y89D01*
X2603Y89D02*
X2603Y89D01*
X11Y88D02*
X11Y88D01*
X2603Y88D02*
X2603Y88D01*
X11Y87D02*
X11Y87D01*
X2603Y87D02*
X2603Y87D01*
X11Y86D02*
X11Y86D01*
X2603Y86D02*
X2603Y86D01*
X11Y85D02*
X11Y85D01*
X2603Y85D02*
X2603Y85D01*
X11Y84D02*
X11Y84D01*
X2603Y84D02*
X2603Y84D01*
X11Y83D02*
X11Y83D01*
X2603Y83D02*
X2603Y83D01*
X11Y82D02*
X11Y82D01*
X2603Y82D02*
X2603Y82D01*
X11Y81D02*
X11Y81D01*
X2603Y81D02*
X2603Y81D01*
X11Y80D02*
X11Y80D01*
X2603Y80D02*
X2603Y80D01*
X11Y79D02*
X11Y79D01*
X2603Y79D02*
X2603Y79D01*
X11Y78D02*
X11Y78D01*
X2603Y78D02*
X2603Y78D01*
X11Y77D02*
X11Y77D01*
X2603Y77D02*
X2603Y77D01*
X11Y76D02*
X11Y76D01*
X2603Y76D02*
X2603Y76D01*
X11Y75D02*
X11Y75D01*
X2603Y75D02*
X2603Y75D01*
X11Y74D02*
X11Y74D01*
X2603Y74D02*
X2603Y74D01*
X11Y73D02*
X11Y73D01*
X2603Y73D02*
X2603Y73D01*
X11Y72D02*
X11Y72D01*
X2603Y72D02*
X2603Y72D01*
X11Y71D02*
X11Y71D01*
X2603Y71D02*
X2603Y71D01*
X11Y70D02*
X11Y70D01*
X2603Y70D02*
X2603Y70D01*
X11Y69D02*
X11Y69D01*
X2603Y69D02*
X2603Y69D01*
X11Y68D02*
X11Y68D01*
X2603Y68D02*
X2603Y68D01*
X11Y67D02*
X11Y67D01*
X2603Y67D02*
X2603Y67D01*
X11Y66D02*
X11Y66D01*
X2603Y66D02*
X2603Y66D01*
X11Y65D02*
X11Y65D01*
X2603Y65D02*
X2603Y65D01*
X11Y64D02*
X11Y64D01*
X2603Y64D02*
X2603Y64D01*
X11Y63D02*
X11Y63D01*
X2603Y63D02*
X2603Y63D01*
X11Y62D02*
X11Y62D01*
X2603Y62D02*
X2603Y62D01*
X11Y61D02*
X11Y61D01*
X2603Y61D02*
X2603Y61D01*
X11Y60D02*
X11Y60D01*
X2603Y60D02*
X2603Y60D01*
X11Y59D02*
X11Y59D01*
X2603Y59D02*
X2603Y59D01*
X11Y58D02*
X11Y58D01*
X2603Y58D02*
X2603Y58D01*
X11Y57D02*
X11Y57D01*
X2603Y57D02*
X2603Y57D01*
X11Y56D02*
X11Y56D01*
X2603Y56D02*
X2603Y56D01*
X11Y55D02*
X11Y55D01*
X2603Y55D02*
X2603Y55D01*
X11Y54D02*
X11Y54D01*
X2603Y54D02*
X2603Y54D01*
X11Y53D02*
X11Y53D01*
X2603Y53D02*
X2603Y53D01*
X11Y52D02*
X11Y52D01*
X2603Y52D02*
X2603Y52D01*
X11Y51D02*
X11Y51D01*
X2603Y51D02*
X2603Y51D01*
X11Y50D02*
X11Y50D01*
X2603Y50D02*
X2603Y50D01*
X11Y49D02*
X11Y49D01*
X2603Y49D02*
X2603Y49D01*
X11Y48D02*
X11Y48D01*
X2603Y48D02*
X2603Y48D01*
X11Y47D02*
X11Y47D01*
X2603Y47D02*
X2603Y47D01*
X11Y46D02*
X11Y46D01*
X2603Y46D02*
X2603Y46D01*
X11Y45D02*
X11Y45D01*
X2603Y45D02*
X2603Y45D01*
X11Y44D02*
X11Y44D01*
X2603Y44D02*
X2603Y44D01*
X11Y43D02*
X11Y43D01*
X2603Y43D02*
X2603Y43D01*
X11Y42D02*
X11Y42D01*
X2603Y42D02*
X2603Y42D01*
X11Y41D02*
X11Y41D01*
X2603Y41D02*
X2603Y41D01*
X11Y40D02*
X11Y40D01*
X2603Y40D02*
X2603Y40D01*
X11Y39D02*
X11Y39D01*
X2603Y39D02*
X2603Y39D01*
X11Y38D02*
X11Y38D01*
X2603Y38D02*
X2603Y38D01*
X11Y37D02*
X11Y37D01*
X2603Y37D02*
X2603Y37D01*
X12Y36D02*
X12Y36D01*
X2602Y36D02*
X2602Y36D01*
X12Y35D02*
X12Y35D01*
X2602Y35D02*
X2602Y35D01*
X12Y34D02*
X12Y34D01*
X2602Y34D02*
X2602Y34D01*
X12Y33D02*
X12Y33D01*
X2602Y33D02*
X2602Y33D01*
X13Y32D02*
X13Y32D01*
X2601Y32D02*
X2601Y32D01*
X13Y31D02*
X13Y31D01*
X2601Y31D02*
X2601Y31D01*
X13Y30D02*
X13Y30D01*
X2600Y30D02*
X2600Y30D01*
X14Y29D02*
X14Y29D01*
X2600Y29D02*
X2600Y29D01*
X14Y28D02*
X14Y28D01*
X2600Y28D02*
X2600Y28D01*
X15Y27D02*
X15Y27D01*
X2599Y27D02*
X2599Y27D01*
X15Y26D02*
X16Y26D01*
X2598Y26D02*
X2598Y26D01*
X16Y25D02*
X16Y25D01*
X2598Y25D02*
X2598Y25D01*
X17Y24D02*
X17Y24D01*
X2597Y24D02*
X2597Y24D01*
X17Y23D02*
X17Y23D01*
X2596Y23D02*
X2597Y23D01*
X18Y22D02*
X18Y22D01*
X2596Y22D02*
X2596Y22D01*
X19Y21D02*
X19Y21D01*
X2595Y21D02*
X2595Y21D01*
X20Y20D02*
X20Y20D01*
X2594Y20D02*
X2594Y20D01*
X21Y19D02*
X21Y19D01*
X2593Y19D02*
X2593Y19D01*
X22Y18D02*
X22Y18D01*
X2592Y18D02*
X2592Y18D01*
X23Y17D02*
X23Y17D01*
X2591Y17D02*
X2591Y17D01*
X24Y16D02*
X24Y16D01*
X2590Y16D02*
X2590Y16D01*
X25Y15D02*
X26Y15D01*
X2588Y15D02*
X2589Y15D01*
X27Y14D02*
X27Y14D01*
X2587Y14D02*
X2587Y14D01*
X28Y13D02*
X29Y13D01*
X2585Y13D02*
X2586Y13D01*
X30Y12D02*
X31Y12D01*
X2583Y12D02*
X2584Y12D01*
X32Y11D02*
X34Y11D01*
X2580Y11D02*
X2582Y11D01*
X35Y10D02*
X37Y10D01*
X2577Y10D02*
X2579Y10D01*
X38Y9D02*
X43Y9D01*
X49Y9D02*
X2565Y9D01*
X2570Y9D02*
X2576Y9D01*
X44Y8D02*
X48Y8D01*
X2564Y8D02*
X2564Y8D01*
X2566Y8D02*
X2570Y8D01*
D02*
G04 End of Silk0*
M02*